<svg width="144" height="144" viewBox="0 0 144 144" fill="none" xmlns="http://www.w3.org/2000/svg">
<circle cx="88.5" cy="88.5" r="19.5" fill="#151515"/>
<path fill-rule="evenodd" clip-rule="evenodd" d="M88.5 105C97.6127 105 105 97.6127 105 88.5C105 79.3873 97.6127 72 88.5 72C79.3873 72 72 79.3873 72 88.5C72 97.6127 79.3873 105 88.5 105ZM84 80.25C82.7574 80.25 81.75 81.2574 81.75 82.5C81.75 83.7426 82.7574 84.75 84 84.75H89.068L80.909 92.909C80.0303 93.7877 80.0303 95.2123 80.909 96.091C81.7877 96.9697 83.2123 96.9697 84.091 96.091L92.25 87.932V93C92.25 94.2426 93.2574 95.25 94.5 95.25C95.7426 95.25 96.75 94.2426 96.75 93V82.5C96.75 81.2574 95.7426 80.25 94.5 80.25H84Z" fill="white"/>
</svg>
