<svg width="144" height="288" viewBox="0 0 144 288" fill="none" xmlns="http://www.w3.org/2000/svg">
<g clip-path="url(#clip0_816_6904)">
<path fill-rule="evenodd" clip-rule="evenodd" d="M58 97.9127L58 252C58 259.732 64.268 266 72 266C79.732 266 86 259.732 86 252L86 97.9127C81.9588 100.5 77.1546 102 72 102C66.8454 102 62.0412 100.5 58 97.9127Z" fill="white"/>
<path fill-rule="evenodd" clip-rule="evenodd" d="M64 51.254L64 36C64 31.5817 67.5817 28 72 28C76.4183 28 80 31.5817 80 36L80 51.254C82.1339 51.9433 84.1471 52.901 86 54.0873L86 36C86 28.268 79.732 22 72 22C64.268 22 58 28.268 58 36L58 54.0873C59.8528 52.901 61.8661 51.9433 64 51.254ZM58 97.9127L58 252C58 259.732 64.268 266 72 266C79.732 266 86 259.732 86 252L86 97.9127C84.1471 99.099 82.1339 100.057 80 100.746L80 252C80 256.418 76.4183 260 72 260C67.5817 260 64 256.418 64 252L64 100.746C61.8661 100.057 59.8529 99.099 58 97.9127Z" fill="white"/>
<circle cx="72" cy="76" r="17" transform="rotate(-90 72 76)" stroke="white" stroke-width="6"/>
</g>
<defs>
<clipPath id="clip0_816_6904">
<rect width="288" height="144" fill="white" transform="translate(0 288) rotate(-90)"/>
</clipPath>
</defs>
</svg>
