<svg width="288" height="144" viewBox="0 0 288 144" fill="none" xmlns="http://www.w3.org/2000/svg">
<path fill-rule="evenodd" clip-rule="evenodd" d="M178.087 58H36C28.268 58 22 64.268 22 72C22 79.732 28.268 86 36 86H178.087C175.5 81.9588 174 77.1546 174 72C174 66.8454 175.5 62.0412 178.087 58Z" fill="white"/>
<path fill-rule="evenodd" clip-rule="evenodd" d="M224.746 64H252C256.418 64 260 67.5817 260 72C260 76.4183 256.418 80 252 80H224.746C224.057 82.1339 223.099 84.1471 221.913 86H252C259.732 86 266 79.732 266 72C266 64.268 259.732 58 252 58H221.913C223.099 59.8529 224.057 61.8661 224.746 64ZM178.087 58H36C28.268 58 22 64.268 22 72C22 79.732 28.268 86 36 86H178.087C176.901 84.1471 175.943 82.1339 175.254 80H36C31.5817 80 28 76.4183 28 72C28 67.5817 31.5817 64 36 64H175.254C175.943 61.8661 176.901 59.8529 178.087 58Z" fill="white"/>
<circle cx="200" cy="72" r="17" stroke="white" stroke-width="6"/>
</svg>
