<svg width="144" height="144" viewBox="0 0 144 144" fill="none" xmlns="http://www.w3.org/2000/svg">
<path d="M71.9995 60C73.2421 60 74.2495 61.0074 74.2495 62.25V75.75C74.2495 76.9926 73.2421 78 71.9995 78C70.7568 78 69.7495 76.9926 69.7495 75.75V62.25C69.7495 61.0074 70.7568 60 71.9995 60Z" fill="#FF7073"/>
<path d="M71.9995 87C73.6563 87 74.9995 85.6569 74.9995 84C74.9995 82.3431 73.6563 81 71.9995 81C70.3426 81 68.9995 82.3431 68.9995 84C68.9995 85.6569 70.3426 87 71.9995 87Z" fill="#FF7073"/>
<path fill-rule="evenodd" clip-rule="evenodd" d="M77.1956 47.8418C74.8862 43.8418 69.1127 43.8418 66.8033 47.8418L44.1956 86.9995C41.8862 90.9995 44.773 95.9995 49.3918 95.9995H94.6072C99.226 95.9995 102.113 90.9995 99.8033 86.9995L77.1956 47.8418ZM95.9062 89.2495L73.2985 50.0918C72.7211 49.0918 71.2778 49.0918 70.7004 50.0918L48.0927 89.2495C47.5154 90.2495 48.2371 91.4995 49.3918 91.4995H94.6072C95.7618 91.4995 96.4835 90.2495 95.9062 89.2495Z" fill="#FF7073"/>
</svg>
