<svg width="144" height="144" viewBox="0 0 144 144" fill="none" xmlns="http://www.w3.org/2000/svg">
<path fill-rule="evenodd" clip-rule="evenodd" d="M60 48C60 44.6863 62.6863 42 66 42H78C81.3137 42 84 44.6863 84 48V73.7574L79.2426 69H79.5V48C79.5 47.1716 78.8284 46.5 78 46.5H66C65.1716 46.5 64.5 47.1716 64.5 48V54.2574L60 49.7574V48ZM60 58.2426V84C60 87.3137 62.6863 90 66 90H69.75V97.5H59.25C58.0074 97.5 57 98.5074 57 99.75C57 100.993 58.0074 102 59.25 102L84.75 102C85.9926 102 87 100.993 87 99.75C87 98.5074 85.9926 97.5 84.75 97.5H74.25V90H78C81.3137 90 84 87.3137 84 84V82.2426L79.5 77.7426V84C79.5 84.8284 78.8284 85.5 78 85.5H66C65.1716 85.5 64.5 84.8284 64.5 84V73.5L75.2574 73.5L70.7574 69L64.5 69V62.7426L60 58.2426ZM53.25 66C54.4926 66 55.5 67.0074 55.5 68.25L55.5 75.75C55.5 76.9926 54.4926 78 53.25 78C52.0074 78 51 76.9926 51 75.75V68.25C51 67.0074 52.0074 66 53.25 66ZM90.75 66C91.9926 66 93 67.0074 93 68.25V75.75C93 76.9926 91.9926 78 90.75 78C89.5074 78 88.5 76.9926 88.5 75.75V68.25C88.5 67.0074 89.5074 66 90.75 66Z" fill="white"/>
<path fill-rule="evenodd" clip-rule="evenodd" d="M49.409 49.409C50.2877 48.5303 51.7123 48.5303 52.591 49.409L96.091 92.909C96.9697 93.7877 96.9697 95.2123 96.091 96.091C95.2123 96.9697 93.7877 96.9697 92.909 96.091L49.409 52.591C48.5303 51.7123 48.5303 50.2877 49.409 49.409Z" fill="#E12A40"/>
</svg>
