<svg width="144" height="144" viewBox="0 0 144 144" fill="none" xmlns="http://www.w3.org/2000/svg">
<path fill-rule="evenodd" clip-rule="evenodd" d="M38.375 36.5615V71.5C38.375 74.8137 41.0613 77.5 44.375 77.5H48.125V85H37.625C36.3824 85 35.375 86.0074 35.375 87.25C35.375 88.4926 36.3824 89.5 37.625 89.5L63.125 89.5C64.3676 89.5 65.375 88.4926 65.375 87.25C65.375 86.0074 64.3676 85 63.125 85H52.625V77.5H56.375C59.6887 77.5 62.375 74.8137 62.375 71.5V60.2615L57.875 55.8178V56.5L42.875 56.5V41.0053L38.375 36.5615ZM57.875 47.3854V35.5C57.875 34.6716 57.2034 34 56.375 34H44.375C44.357 34 44.339 34.0003 44.3212 34.0009L40.8915 30.6142C41.8736 29.9127 43.0761 29.5 44.375 29.5H56.375C59.6887 29.5 62.375 32.1863 62.375 35.5V51.8291L57.875 47.3854ZM66.875 64.7053V68.5C66.875 71.8137 69.5613 74.5 72.875 74.5H76.7937L66.875 64.7053ZM89.375 78.4916V74.5H85.3329L80.7759 70H111.875C112.703 70 113.375 69.3284 113.375 68.5V41.5C113.375 40.6716 112.703 40 111.875 40H72.875C72.0466 40 71.375 40.6716 71.375 41.5V55.75V60.7166L66.875 56.2729V55.75V41.5C66.875 38.1863 69.5613 35.5 72.875 35.5H111.875C115.189 35.5 117.875 38.1863 117.875 41.5V68.5C117.875 71.8137 115.189 74.5 111.875 74.5H93.875V82H104.375C105.618 82 106.625 83.0074 106.625 84.25C106.625 85.4926 105.618 86.5 104.375 86.5H97.4848L89.375 78.4916ZM84.3887 82H78.875C77.6324 82 76.625 83.0074 76.625 84.25C76.625 85.4926 77.6324 86.5 78.875 86.5H88.9456L84.3887 82ZM103.84 101.209C103.7 101.783 103.625 102.383 103.625 103C103.625 107.142 106.983 110.5 111.125 110.5C111.775 110.5 112.406 110.417 113.008 110.262L103.84 101.209ZM117.752 106.514C118.309 105.466 118.625 104.27 118.625 103C118.625 98.8579 115.267 95.5 111.125 95.5C109.822 95.5 108.596 95.8325 107.528 96.4174L111.156 100C112.776 100.016 114.088 101.316 114.124 102.931L117.752 106.514ZM42.875 71.5V61L57.875 61V71.5C57.875 72.3284 57.2034 73 56.375 73H44.375C43.5466 73 42.875 72.3284 42.875 71.5ZM33.875 55.75C33.875 54.5074 32.8676 53.5 31.625 53.5C30.3824 53.5 29.375 54.5074 29.375 55.75V63.25C29.375 64.4926 30.3824 65.5 31.625 65.5C32.8676 65.5 33.875 64.4926 33.875 63.25L33.875 55.75ZM36.875 106C38.5319 106 39.875 104.657 39.875 103C39.875 101.343 38.5319 100 36.875 100C35.2181 100 33.875 101.343 33.875 103C33.875 104.657 35.2181 106 36.875 106ZM36.875 110.5C41.0171 110.5 44.375 107.142 44.375 103C44.375 98.8579 41.0171 95.5 36.875 95.5C32.7329 95.5 29.375 98.8579 29.375 103C29.375 107.142 32.7329 110.5 36.875 110.5ZM64.625 103C64.625 104.657 63.2819 106 61.625 106C59.9681 106 58.625 104.657 58.625 103C58.625 101.343 59.9681 100 61.625 100C63.2819 100 64.625 101.343 64.625 103ZM69.125 103C69.125 107.142 65.7671 110.5 61.625 110.5C57.4829 110.5 54.125 107.142 54.125 103C54.125 98.8579 57.4829 95.5 61.625 95.5C65.7671 95.5 69.125 98.8579 69.125 103ZM86.375 106C88.0319 106 89.375 104.657 89.375 103C89.375 101.343 88.0319 100 86.375 100C84.7181 100 83.375 101.343 83.375 103C83.375 104.657 84.7181 106 86.375 106ZM86.375 110.5C90.5171 110.5 93.875 107.142 93.875 103C93.875 98.8579 90.5171 95.5 86.375 95.5C82.2329 95.5 78.875 98.8579 78.875 103C78.875 107.142 82.2329 110.5 86.375 110.5Z" fill="white"/>
<path fill-rule="evenodd" clip-rule="evenodd" d="M31.409 31.409C32.2877 30.5303 33.7123 30.5303 34.591 31.409L113.591 110.409C114.47 111.288 114.47 112.712 113.591 113.591C112.712 114.47 111.288 114.47 110.409 113.591L31.409 34.591C30.5303 33.7123 30.5303 32.2877 31.409 31.409Z" fill="#E12A40"/>
</svg>
