<svg width="144" height="144" viewBox="0 0 144 144" fill="none" xmlns="http://www.w3.org/2000/svg">
<path fill-rule="evenodd" clip-rule="evenodd" d="M54 78.2634C55.1935 78.2634 56.3381 78.7375 57.182 79.5814L64.5 86.8994V54.6273L57.182 61.9454C56.3381 62.7893 55.1935 63.2634 54 63.2634H48C47.1716 63.2634 46.5 63.9349 46.5 64.7634V76.7634C46.5 77.5918 47.1716 78.2634 48 78.2634H54ZM54 82.7634L63.8787 92.6421C65.7686 94.5319 69 93.1934 69 90.5207V51.006C69 48.3333 65.7686 46.9948 63.8787 48.8847L54 58.7634H48C44.6863 58.7634 42 61.4497 42 64.7634V76.7634C42 80.0771 44.6863 82.7634 48 82.7634H54ZM90 82.0134C88.7574 82.0134 87.75 81.006 87.75 79.7634V73.0134H81C79.7574 73.0134 78.75 72.006 78.75 70.7634C78.75 69.5207 79.7574 68.5134 81 68.5134H87.75V61.7634C87.75 60.5207 88.7574 59.5134 90 59.5134C91.2426 59.5134 92.25 60.5207 92.25 61.7634V68.5134H99C100.243 68.5134 101.25 69.5207 101.25 70.7634C101.25 72.006 100.243 73.0134 99 73.0134H92.25V79.7634C92.25 81.006 91.2426 82.0134 90 82.0134Z" fill="white"/>
</svg>
