<svg width="144" height="144" viewBox="0 0 144 144" fill="none" xmlns="http://www.w3.org/2000/svg">
<path fill-rule="evenodd" clip-rule="evenodd" d="M57.8787 56.1214L54 60.0001H48C44.6863 60.0001 42 62.6864 42 66.0001V78.0001C42 81.3138 44.6863 84.0001 48 84.0001H54L63.8787 93.8788C65.7686 95.7687 69 94.4302 69 91.7575V67.2426L64.5 62.7426V88.1362L57.182 80.8181C56.3381 79.9742 55.1935 79.5001 54 79.5001H48C47.1716 79.5001 46.5 78.8286 46.5 78.0001V66.0001C46.5 65.1717 47.1716 64.5001 48 64.5001H54C55.1935 64.5001 56.3381 64.026 57.182 63.1821L61.0607 59.3034L57.8787 56.1214ZM76.1186 74.3613C76.0617 74.5329 75.9985 74.7027 75.9291 74.8703C75.5522 75.7802 74.9997 76.607 74.3033 77.3034C73.4246 78.1821 73.4246 79.6067 74.3033 80.4854C75.182 81.3641 76.6066 81.3641 77.4853 80.4854C78.2919 79.6788 78.9778 78.7629 79.5238 77.7664L76.1186 74.3613ZM80.9277 70.6851L74.0537 63.8111C74.127 63.7071 74.2102 63.6079 74.3033 63.5148C75.182 62.6362 76.6066 62.6362 77.4853 63.5148C78.5996 64.6291 79.4835 65.952 80.0866 67.4079C80.5212 68.4571 80.8038 69.5606 80.9277 70.6851ZM83.8824 82.125C83.249 83.0561 82.528 83.9279 81.7279 84.728C80.8492 85.6067 80.8492 87.0313 81.7279 87.91C82.6066 88.7887 84.0312 88.7887 84.9099 87.91C85.708 87.1119 86.4431 86.2568 87.1098 85.3525L83.8824 82.125ZM90.088 79.8453L86.4914 76.2488C86.8285 74.861 87 73.4348 87 72.0001C87 69.6363 86.5344 67.2957 85.6298 65.1118C84.7252 62.928 83.3994 60.9437 81.7279 59.2722C80.8492 58.3935 80.8492 56.9689 81.7279 56.0902C82.6066 55.2115 84.0312 55.2115 84.9099 56.0902C86.9992 58.1795 88.6566 60.6599 89.7873 63.3897C90.918 66.1196 91.5 69.0454 91.5 72.0001C91.5 74.6806 91.0211 77.3372 90.088 79.8453ZM91.3904 89.633C90.6962 90.5145 89.9492 91.356 89.1525 92.1527C88.2739 93.0313 88.2739 94.456 89.1525 95.3347C90.0312 96.2133 91.4558 96.2133 92.3345 95.3347C93.1305 94.5387 93.8837 93.7041 94.5917 92.8343L91.3904 89.633ZM97.9968 87.7541L94.6551 84.4125C94.8945 83.9177 95.1197 83.4156 95.3306 82.9066C96.7628 79.4488 97.5 75.7428 97.5 72.0001C97.5 68.2575 96.7628 64.5514 95.3306 61.0936C93.8983 57.6359 91.799 54.4941 89.1525 51.8476C88.2739 50.9689 88.2739 49.5443 89.1525 48.6656C90.0312 47.7869 91.4558 47.7869 92.3345 48.6656C95.3989 51.7299 97.8296 55.3678 99.488 59.3716C101.146 63.3753 102 67.6665 102 72.0001C102 76.3337 101.146 80.6249 99.488 84.6287C99.0451 85.6979 98.5472 86.741 97.9968 87.7541ZM69 58.7574L62.1214 51.8787L63.8787 50.1214C65.7686 48.2315 69 49.5701 69 52.2428V58.7574Z" fill="white"/>
<path fill-rule="evenodd" clip-rule="evenodd" d="M49.409 49.409C50.2877 48.5303 51.7123 48.5303 52.591 49.409L96.091 92.909C96.9697 93.7877 96.9697 95.2123 96.091 96.091C95.2123 96.9697 93.7877 96.9697 92.909 96.091L49.409 52.591C48.5303 51.7123 48.5303 50.2877 49.409 49.409Z" fill="#E12A40"/>
</svg>
