<svg width="144" height="144" viewBox="0 0 144 144" fill="none" xmlns="http://www.w3.org/2000/svg">
<path fill-rule="evenodd" clip-rule="evenodd" d="M57.182 79.5814C56.3381 78.7375 55.1935 78.2634 54 78.2634H48C47.1716 78.2634 46.5 77.5918 46.5 76.7634V64.7634C46.5 63.9349 47.1716 63.2634 48 63.2634H54C55.1935 63.2634 56.3381 62.7893 57.182 61.9454L64.5 54.6273V86.8994L57.182 79.5814ZM63.8787 92.6421L54 82.7634H48C44.6863 82.7634 42 80.0771 42 76.7634V64.7634C42 61.4497 44.6863 58.7634 48 58.7634H54L63.8787 48.8847C65.7686 46.9948 69 48.3333 69 51.006V90.5207C69 93.1934 65.7686 94.5319 63.8787 92.6421ZM99 73.0134C100.243 73.0134 101.25 72.006 101.25 70.7634C101.25 69.5207 100.243 68.5134 99 68.5134H81C79.7574 68.5134 78.75 69.5207 78.75 70.7634C78.75 72.006 79.7574 73.0134 81 73.0134H99Z" fill="white"/>
</svg>
