<svg width="144" height="144" viewBox="0 0 144 144" fill="none" xmlns="http://www.w3.org/2000/svg">
<path d="M92.3345 48.6656C91.4558 47.7869 90.0312 47.7869 89.1525 48.6656C88.2739 49.5443 88.2739 50.9689 89.1525 51.8476C91.799 54.4941 93.8983 57.6359 95.3306 61.0936C96.7628 64.5514 97.5 68.2575 97.5 72.0001C97.5 75.7428 96.7628 79.4488 95.3306 82.9066C93.8983 86.3644 91.799 89.5062 89.1525 92.1527C88.2739 93.0314 88.2739 94.456 89.1525 95.3347C90.0312 96.2133 91.4558 96.2133 92.3345 95.3347C95.3989 92.2703 97.8296 88.6324 99.488 84.6287C101.146 80.6249 102 76.3337 102 72.0001C102 67.6665 101.146 63.3753 99.488 59.3716C97.8296 55.3678 95.3989 51.7299 92.3345 48.6656Z" fill="white"/>
<path fill-rule="evenodd" clip-rule="evenodd" d="M63.8787 93.8788L54 84.0001H48C44.6863 84.0001 42 81.3138 42 78.0001V66.0001C42 62.6864 44.6863 60.0001 48 60.0001H54L63.8787 50.1214C65.7686 48.2315 69 49.5701 69 52.2428V91.7575C69 94.4302 65.7686 95.7687 63.8787 93.8788ZM57.182 80.8181C56.3381 79.9742 55.1935 79.5001 54 79.5001H48C47.1716 79.5001 46.5 78.8286 46.5 78.0001V66.0001C46.5 65.1717 47.1716 64.5001 48 64.5001H54C55.1935 64.5001 56.3381 64.026 57.182 63.1821L64.5 55.8641V88.1362L57.182 80.8181Z" fill="white"/>
<path d="M77.4853 63.5148C76.6066 62.6362 75.182 62.6362 74.3033 63.5148C73.4246 64.3935 73.4246 65.8181 74.3033 66.6968C74.9997 67.3933 75.5522 68.2201 75.9291 69.13C76.306 70.0399 76.5 71.0152 76.5 72.0001C76.5 72.985 76.306 73.9603 75.9291 74.8703C75.5522 75.7802 74.9997 76.607 74.3033 77.3034C73.4246 78.1821 73.4246 79.6067 74.3033 80.4854C75.182 81.3641 76.6066 81.3641 77.4853 80.4854C78.5996 79.3711 79.4835 78.0482 80.0866 76.5923C80.6896 75.1364 81 73.576 81 72.0001C81 70.4243 80.6896 68.8638 80.0866 67.4079C79.4835 65.952 78.5996 64.6291 77.4853 63.5148Z" fill="white"/>
<path d="M81.7279 56.0902C82.6066 55.2115 84.0312 55.2115 84.9099 56.0902C86.9992 58.1795 88.6566 60.6599 89.7873 63.3897C90.918 66.1196 91.5 69.0454 91.5 72.0001C91.5 74.9549 90.918 77.8807 89.7873 80.6105C88.6566 83.3403 86.9992 85.8207 84.9099 87.91C84.0312 88.7887 82.6066 88.7887 81.7279 87.91C80.8492 87.0313 80.8492 85.6067 81.7279 84.728C83.3994 83.0566 84.7252 81.0723 85.6298 78.8884C86.5344 76.7046 87 74.3639 87 72.0001C87 69.6363 86.5344 67.2957 85.6298 65.1118C84.7252 62.928 83.3994 60.9437 81.7279 59.2722C80.8492 58.3935 80.8492 56.9689 81.7279 56.0902Z" fill="white"/>
</svg>
