<svg width="144" height="144" viewBox="0 0 144 144" fill="none" xmlns="http://www.w3.org/2000/svg">
<path fill-rule="evenodd" clip-rule="evenodd" d="M44 48C44 44.6863 46.6863 42 50 42H62C65.3137 42 68 44.6863 68 48V84C68 87.3137 65.3137 90 62 90H58.25V97.5H68.75C69.9926 97.5 71 98.5074 71 99.75C71 100.993 69.9926 102 68.75 102L43.25 102C42.0074 102 41 100.993 41 99.75C41 98.5074 42.0074 97.5 43.25 97.5H53.75V90H50C46.6863 90 44 87.3137 44 84V48ZM50 46.5H62C62.8284 46.5 63.5 47.1716 63.5 48V69L48.5 69V48C48.5 47.1716 49.1716 46.5 50 46.5ZM48.5 73.5V84C48.5 84.8284 49.1716 85.5 50 85.5H62C62.8284 85.5 63.5 84.8284 63.5 84V73.5L48.5 73.5Z" fill="white"/>
<path d="M37.25 66C38.4926 66 39.5 67.0074 39.5 68.25L39.5 75.75C39.5 76.9926 38.4926 78 37.25 78C36.0074 78 35 76.9926 35 75.75V68.25C35 67.0074 36.0074 66 37.25 66Z" fill="white"/>
<path d="M77 68.25C77 67.0074 75.9926 66 74.75 66C73.5074 66 72.5 67.0074 72.5 68.25V75.75C72.5 76.9926 73.5074 78 74.75 78C75.9926 78 77 76.9926 77 75.75V68.25Z" fill="white"/>
<path fill-rule="evenodd" clip-rule="evenodd" d="M109.25 72C109.25 73.2426 108.243 74.25 107 74.25L95 74.25C93.7574 74.25 92.75 73.2426 92.75 72C92.75 70.7574 93.7574 69.75 95 69.75L107 69.75C108.243 69.75 109.25 70.7574 109.25 72Z" fill="white"/>
</svg>
