<svg width="144" height="144" viewBox="0 0 144 144" fill="none" xmlns="http://www.w3.org/2000/svg">
<path fill-rule="evenodd" clip-rule="evenodd" d="M38.375 35.5C38.375 32.1863 41.0613 29.5 44.375 29.5H56.375C59.6887 29.5 62.375 32.1863 62.375 35.5V71.5C62.375 74.8137 59.6887 77.5 56.375 77.5H52.625V85H63.125C64.3676 85 65.375 86.0074 65.375 87.25C65.375 88.4926 64.3676 89.5 63.125 89.5L37.625 89.5C36.3824 89.5 35.375 88.4926 35.375 87.25C35.375 86.0074 36.3824 85 37.625 85H48.125V77.5H44.375C41.0613 77.5 38.375 74.8137 38.375 71.5V35.5ZM44.375 34H56.375C57.2034 34 57.875 34.6716 57.875 35.5V56.5L42.875 56.5V35.5C42.875 34.6716 43.5466 34 44.375 34ZM42.875 61V71.5C42.875 72.3284 43.5466 73 44.375 73H56.375C57.2034 73 57.875 72.3284 57.875 71.5V61L42.875 61ZM31.625 53.5C32.8676 53.5 33.875 54.5074 33.875 55.75L33.875 63.25C33.875 64.4926 32.8676 65.5 31.625 65.5C30.3824 65.5 29.375 64.4926 29.375 63.25V55.75C29.375 54.5074 30.3824 53.5 31.625 53.5ZM66.875 63.25V68.5C66.875 71.8137 69.5613 74.5 72.875 74.5H89.375V82H78.875C77.6324 82 76.625 83.0074 76.625 84.25C76.625 85.4926 77.6324 86.5 78.875 86.5H104.375C105.618 86.5 106.625 85.4926 106.625 84.25C106.625 83.0074 105.618 82 104.375 82H93.875V74.5H111.875C115.189 74.5 117.875 71.8137 117.875 68.5V41.5C117.875 38.1863 115.189 35.5 111.875 35.5H72.875C69.5613 35.5 66.875 38.1863 66.875 41.5V55.75V63.25ZM39.875 103C39.875 104.657 38.5319 106 36.875 106C35.2181 106 33.875 104.657 33.875 103C33.875 101.343 35.2181 100 36.875 100C38.5319 100 39.875 101.343 39.875 103ZM44.375 103C44.375 107.142 41.0171 110.5 36.875 110.5C32.7329 110.5 29.375 107.142 29.375 103C29.375 98.8579 32.7329 95.5 36.875 95.5C41.0171 95.5 44.375 98.8579 44.375 103ZM61.625 106C63.2819 106 64.625 104.657 64.625 103C64.625 101.343 63.2819 100 61.625 100C59.9681 100 58.625 101.343 58.625 103C58.625 104.657 59.9681 106 61.625 106ZM61.625 110.5C65.7671 110.5 69.125 107.142 69.125 103C69.125 98.8579 65.7671 95.5 61.625 95.5C57.4829 95.5 54.125 98.8579 54.125 103C54.125 107.142 57.4829 110.5 61.625 110.5ZM89.375 103C89.375 104.657 88.0319 106 86.375 106C84.7181 106 83.375 104.657 83.375 103C83.375 101.343 84.7181 100 86.375 100C88.0319 100 89.375 101.343 89.375 103ZM93.875 103C93.875 107.142 90.5171 110.5 86.375 110.5C82.2329 110.5 78.875 107.142 78.875 103C78.875 98.8579 82.2329 95.5 86.375 95.5C90.5171 95.5 93.875 98.8579 93.875 103ZM111.125 106C112.782 106 114.125 104.657 114.125 103C114.125 101.343 112.782 100 111.125 100C109.468 100 108.125 101.343 108.125 103C108.125 104.657 109.468 106 111.125 106ZM111.125 110.5C115.267 110.5 118.625 107.142 118.625 103C118.625 98.8579 115.267 95.5 111.125 95.5C106.983 95.5 103.625 98.8579 103.625 103C103.625 107.142 106.983 110.5 111.125 110.5ZM72.875 40H111.875C112.703 40 113.375 40.6716 113.375 41.5V68.5C113.375 69.3284 112.703 70 111.875 70H72.875C72.0466 70 71.375 69.3284 71.375 68.5V63.25V55.75V41.5C71.375 40.6716 72.0466 40 72.875 40Z" fill="white"/>
</svg>
