<svg width="144" height="144" viewBox="0 0 144 144" fill="none" xmlns="http://www.w3.org/2000/svg">
<path fill-rule="evenodd" clip-rule="evenodd" d="M36.875 37.5C36.875 34.1863 39.5613 31.5 42.875 31.5H54.875C58.1887 31.5 60.875 34.1863 60.875 37.5V73.5C60.875 76.8137 58.1887 79.5 54.875 79.5H51.125V87H61.625C62.8676 87 63.875 88.0074 63.875 89.25C63.875 90.4926 62.8676 91.5 61.625 91.5L36.125 91.5C34.8824 91.5 33.875 90.4926 33.875 89.25C33.875 88.0074 34.8824 87 36.125 87H46.625V79.5H42.875C39.5613 79.5 36.875 76.8137 36.875 73.5V37.5ZM42.875 36H54.875C55.7034 36 56.375 36.6716 56.375 37.5V58.5L41.375 58.5V37.5C41.375 36.6716 42.0466 36 42.875 36ZM41.375 63V73.5C41.375 74.3284 42.0466 75 42.875 75H54.875C55.7034 75 56.375 74.3284 56.375 73.5V63L41.375 63ZM30.125 55.5C31.3676 55.5 32.375 56.5074 32.375 57.75L32.375 65.25C32.375 66.4926 31.3676 67.5 30.125 67.5C28.8824 67.5 27.875 66.4926 27.875 65.25V57.75C27.875 56.5074 28.8824 55.5 30.125 55.5ZM67.625 55.5C68.8676 55.5 69.875 56.5074 69.875 57.75V65.25C69.875 66.4926 68.8676 67.5 67.625 67.5C66.3824 67.5 65.375 66.4926 65.375 65.25V57.75C65.375 56.5074 66.3824 55.5 67.625 55.5ZM35.375 112.5C39.5171 112.5 42.875 109.142 42.875 105C42.875 100.858 39.5171 97.5 35.375 97.5C31.2329 97.5 27.875 100.858 27.875 105C27.875 109.142 31.2329 112.5 35.375 112.5Z" fill="#6F9BFF"/>
<path fill-rule="evenodd" clip-rule="evenodd" d="M99.1249 88.4999H74.3749V83.9999H84.1249V76.4999H74.3749V71.9999H110.375C111.203 71.9999 111.875 71.3283 111.875 70.4999V43.4999C111.875 42.6715 111.203 41.9999 110.375 41.9999H74.3749V37.4999H110.375C113.689 37.4999 116.375 40.1862 116.375 43.4999V70.4999C116.375 73.8136 113.689 76.4999 110.375 76.4999H88.6249V83.9999H99.1249C100.368 83.9999 101.375 85.0072 101.375 86.2499C101.375 87.4925 100.368 88.4999 99.1249 88.4999ZM63.1248 105C63.1248 106.657 61.7816 108 60.1248 108C58.4679 108 57.1248 106.657 57.1248 105C57.1248 103.343 58.4679 102 60.1248 102C61.7816 102 63.1248 103.343 63.1248 105ZM67.6248 105C67.6248 109.142 64.2669 112.5 60.1248 112.5C55.9826 112.5 52.6248 109.142 52.6248 105C52.6248 100.858 55.9826 97.5 60.1248 97.5C64.2669 97.5 67.6248 100.858 67.6248 105ZM87.8751 105C87.8751 106.657 86.532 108 84.8751 108C83.2183 108 81.8751 106.657 81.8751 105C81.8751 103.343 83.2183 102 84.8751 102C86.532 102 87.8751 103.343 87.8751 105ZM92.3751 105C92.3751 109.142 89.0173 112.5 84.8751 112.5C80.733 112.5 77.3751 109.142 77.3751 105C77.3751 100.858 80.733 97.5 84.8751 97.5C89.0173 97.5 92.3751 100.858 92.3751 105ZM109.625 108C111.282 108 112.625 106.657 112.625 105C112.625 103.343 111.282 102 109.625 102C107.968 102 106.625 103.343 106.625 105C106.625 106.657 107.968 108 109.625 108ZM109.625 112.5C113.767 112.5 117.125 109.142 117.125 105C117.125 100.858 113.767 97.5 109.625 97.5C105.483 97.5 102.125 100.858 102.125 105C102.125 109.142 105.483 112.5 109.625 112.5Z" fill="white"/>
</svg>
