<svg width="144" height="144" viewBox="0 0 144 144" fill="none" xmlns="http://www.w3.org/2000/svg">
<path fill-rule="evenodd" clip-rule="evenodd" d="M68.5074 66.75H61.2426C59.8503 66.75 58.5149 67.3031 57.5303 68.2877L41.909 83.909C41.0303 84.7877 41.0303 86.2123 41.909 87.091C42.7877 87.9697 44.2123 87.9697 45.091 87.091L60.7123 71.4697C60.853 71.329 61.0437 71.25 61.2426 71.25H73.0074L68.5074 66.75ZM81.4926 71.25H102C103.243 71.25 104.25 70.2426 104.25 69C104.25 67.7574 103.243 66.75 102 66.75H76.9926L81.4926 71.25Z" fill="white"/>
<path fill-rule="evenodd" clip-rule="evenodd" d="M49.409 49.409C50.2877 48.5303 51.7123 48.5303 52.591 49.409L96.091 92.909C96.9697 93.7877 96.9697 95.2123 96.091 96.091C95.2123 96.9697 93.7877 96.9697 92.909 96.091L49.409 52.591C48.5303 51.7123 48.5303 50.2877 49.409 49.409Z" fill="#E12A40"/>
</svg>
