<svg width="144" height="144" viewBox="0 0 144 144" fill="none" xmlns="http://www.w3.org/2000/svg">
<path fill-rule="evenodd" clip-rule="evenodd" d="M69.75 46.5C69.75 45.2574 70.7574 44.25 72 44.25C73.2426 44.25 74.25 45.2574 74.25 46.5V49.5C74.25 50.7426 73.2426 51.75 72 51.75C70.7574 51.75 69.75 50.7426 69.75 49.5V46.5ZM55.5 54.4926L52.2442 51.2368C51.5065 51.6061 51 52.3689 51 53.25V90.75C51 91.9926 52.0074 93 53.25 93C54.4926 93 55.5 91.9926 55.5 90.75V54.4926ZM61.2442 60.2368C60.5065 60.6061 60 61.3689 60 62.25V81.75C60 82.9926 61.0074 84 62.25 84C63.4926 84 64.5 82.9926 64.5 81.75V63.4926L61.2442 60.2368ZM70.1818 69.1744C69.9102 69.5462 69.75 70.0044 69.75 70.5V73.5C69.75 74.7426 70.7574 75.75 72 75.75C73.2426 75.75 74.25 74.7426 74.25 73.5V73.2426L70.1818 69.1744ZM90.4761 80.9835C90.5659 80.9944 90.6573 81 90.75 81C91.9926 81 93 79.9926 93 78.75V65.25C93 64.0074 91.9926 63 90.75 63C89.5074 63 88.5 64.0074 88.5 65.25V78.75C88.5 78.8427 88.5056 78.9341 88.5165 79.0239L90.4761 80.9835ZM83.8364 74.3438C83.9419 74.0832 84 73.7984 84 73.5V70.5C84 69.2574 82.9926 68.25 81.75 68.25C80.6608 68.25 79.7523 69.024 79.5446 70.052L83.8364 74.3438ZM73.0058 63.5132C73.7435 63.1439 74.25 62.3811 74.25 61.5V58.5C74.25 57.2574 73.2426 56.25 72 56.25C70.7574 56.25 69.75 57.2574 69.75 58.5V60.2574L73.0058 63.5132ZM46.5 62.25C46.5 61.0074 45.4926 60 44.25 60C43.0074 60 42 61.0074 42 62.25V81.75C42 82.9926 43.0074 84 44.25 84C45.4926 84 46.5 82.9926 46.5 81.75V62.25ZM99.75 68.25C98.5074 68.25 97.5 69.2574 97.5 70.5V73.5C97.5 74.7426 98.5074 75.75 99.75 75.75C100.993 75.75 102 74.7426 102 73.5V70.5C102 69.2574 100.993 68.25 99.75 68.25ZM74.25 85.5C74.25 86.7426 73.2426 87.75 72 87.75C70.7574 87.75 69.75 86.7426 69.75 85.5V82.5C69.75 81.2574 70.7574 80.25 72 80.25C73.2426 80.25 74.25 81.2574 74.25 82.5V85.5ZM74.25 97.5C74.25 98.7426 73.2426 99.75 72 99.75C70.7574 99.75 69.75 98.7426 69.75 97.5V94.5C69.75 93.2574 70.7574 92.25 72 92.25C73.2426 92.25 74.25 93.2574 74.25 94.5V97.5Z" fill="white"/>
<path fill-rule="evenodd" clip-rule="evenodd" d="M47.659 48.659C48.5377 47.7803 49.9623 47.7803 50.841 48.659L94.341 92.159C95.2197 93.0377 95.2197 94.4623 94.341 95.341C93.4623 96.2197 92.0377 96.2197 91.159 95.341L47.659 51.841C46.7803 50.9623 46.7803 49.5377 47.659 48.659Z" fill="#E12A40"/>
</svg>
