<svg width="144" height="144" viewBox="0 0 144 144" fill="none" xmlns="http://www.w3.org/2000/svg">
<path fill-rule="evenodd" clip-rule="evenodd" d="M44 48C44 44.6863 46.6863 42 50 42H62C65.3137 42 68 44.6863 68 48V84C68 87.3137 65.3137 90 62 90H58.25V97.5H68.75C69.9926 97.5 71 98.5074 71 99.75C71 100.993 69.9926 102 68.75 102L43.25 102C42.0074 102 41 100.993 41 99.75C41 98.5074 42.0074 97.5 43.25 97.5H53.75V90H50C46.6863 90 44 87.3137 44 84V48ZM50 46.5H62C62.8284 46.5 63.5 47.1716 63.5 48V69L48.5 69V48C48.5 47.1716 49.1716 46.5 50 46.5ZM48.5 73.5V84C48.5 84.8284 49.1716 85.5 50 85.5H62C62.8284 85.5 63.5 84.8284 63.5 84V73.5L48.5 73.5Z" fill="white"/>
<path d="M37.25 66C38.4926 66 39.5 67.0074 39.5 68.25L39.5 75.75C39.5 76.9926 38.4926 78 37.25 78C36.0074 78 35 76.9926 35 75.75V68.25C35 67.0074 36.0074 66 37.25 66Z" fill="white"/>
<path d="M77 68.25C77 67.0074 75.9926 66 74.75 66C73.5074 66 72.5 67.0074 72.5 68.25V75.75C72.5 76.9926 73.5074 78 74.75 78C75.9926 78 77 76.9926 77 75.75V68.25Z" fill="white"/>
<path d="M101.984 74.7145C102.41 74.4085 102.688 73.9087 102.688 73.3438C102.688 72.4118 101.932 71.6562 101 71.6562C100.068 71.6562 99.3125 72.4118 99.3125 73.3438C99.3125 73.9087 99.5902 74.4085 100.016 74.7145V75.9219C100.016 76.4655 100.456 76.9062 101 76.9062C101.544 76.9062 101.984 76.4655 101.984 75.9219V74.7145ZM101 60.6406C98.3853 60.6406 96.2656 62.7603 96.2656 65.375V67.9062H95.375C94.1841 67.9062 93.2188 68.8716 93.2188 70.0625V78.5C93.2188 79.6909 94.1841 80.6562 95.375 80.6562H106.625C107.816 80.6562 108.781 79.6909 108.781 78.5V70.0625C108.781 68.8716 107.816 67.9062 106.625 67.9062H105.734V65.375C105.734 62.7603 103.615 60.6406 101 60.6406ZM103.766 65.375V67.9062H98.2344V65.375C98.2344 63.8476 99.4726 62.6094 101 62.6094C102.527 62.6094 103.766 63.8476 103.766 65.375ZM95.1875 70.0625C95.1875 69.9589 95.2714 69.875 95.375 69.875H106.625C106.729 69.875 106.812 69.9589 106.812 70.0625V78.5C106.812 78.6036 106.729 78.6875 106.625 78.6875H95.375C95.2714 78.6875 95.1875 78.6036 95.1875 78.5V70.0625Z" fill="white" stroke="white" stroke-width="0.5625" stroke-linecap="round" stroke-linejoin="round"/>
</svg>
