<svg width="144" height="144" viewBox="0 0 144 144" fill="none" xmlns="http://www.w3.org/2000/svg">
<path d="M69.75 46.5C69.75 45.2574 70.7574 44.25 72 44.25C73.2426 44.25 74.25 45.2574 74.25 46.5V49.5C74.25 50.7426 73.2426 51.75 72 51.75C70.7574 51.75 69.75 50.7426 69.75 49.5V46.5Z" fill="white"/>
<path d="M53.25 51C54.4926 51 55.5 52.0074 55.5 53.25V90.75C55.5 91.9926 54.4926 93 53.25 93C52.0074 93 51 91.9926 51 90.75V53.25C51 52.0074 52.0074 51 53.25 51Z" fill="white"/>
<path d="M44.25 60C45.4926 60 46.5 61.0074 46.5 62.25V81.75C46.5 82.9926 45.4926 84 44.25 84C43.0074 84 42 82.9926 42 81.75V62.25C42 61.0074 43.0074 60 44.25 60Z" fill="white"/>
<path d="M62.25 60C63.4926 60 64.5 61.0074 64.5 62.25V81.75C64.5 82.9926 63.4926 84 62.25 84C61.0074 84 60 82.9926 60 81.75V62.25C60 61.0074 61.0074 60 62.25 60Z" fill="white"/>
<path d="M88.5 78.75C88.5 79.9926 89.5074 81 90.75 81C91.9926 81 93 79.9926 93 78.75V65.25C93 64.0074 91.9926 63 90.75 63C89.5074 63 88.5 64.0074 88.5 65.25V78.75Z" fill="white"/>
<path d="M81.75 68.25C80.5074 68.25 79.5 69.2574 79.5 70.5V73.5C79.5 74.7426 80.5074 75.75 81.75 75.75C82.9926 75.75 84 74.7426 84 73.5V70.5C84 69.2574 82.9926 68.25 81.75 68.25Z" fill="white"/>
<path d="M97.5 70.5C97.5 69.2574 98.5074 68.25 99.75 68.25C100.993 68.25 102 69.2574 102 70.5V73.5C102 74.7426 100.993 75.75 99.75 75.75C98.5074 75.75 97.5 74.7426 97.5 73.5V70.5Z" fill="white"/>
<path d="M72 56.25C70.7574 56.25 69.75 57.2574 69.75 58.5V61.5C69.75 62.7426 70.7574 63.75 72 63.75C73.2426 63.75 74.25 62.7426 74.25 61.5V58.5C74.25 57.2574 73.2426 56.25 72 56.25Z" fill="white"/>
<path d="M72 87.75C73.2426 87.75 74.25 86.7426 74.25 85.5V82.5C74.25 81.2574 73.2426 80.25 72 80.25C70.7574 80.25 69.75 81.2574 69.75 82.5V85.5C69.75 86.7426 70.7574 87.75 72 87.75Z" fill="white"/>
<path d="M74.25 97.5C74.25 98.7426 73.2426 99.75 72 99.75C70.7574 99.75 69.75 98.7426 69.75 97.5V94.5C69.75 93.2574 70.7574 92.25 72 92.25C73.2426 92.25 74.25 93.2574 74.25 94.5V97.5Z" fill="white"/>
<path d="M72 68.25C70.7574 68.25 69.75 69.2574 69.75 70.5V73.5C69.75 74.7426 70.7574 75.75 72 75.75C73.2426 75.75 74.25 74.7426 74.25 73.5V70.5C74.25 69.2574 73.2426 68.25 72 68.25Z" fill="white"/>
</svg>
