<svg width="144" height="144" viewBox="0 0 144 144" fill="none" xmlns="http://www.w3.org/2000/svg">
<path fill-rule="evenodd" clip-rule="evenodd" d="M42.875 31.5H51.125V36H42.875C42.0466 36 41.375 36.6716 41.375 37.5V58.5L51.125 58.5V63L41.375 63V73.5C41.375 74.3284 42.0466 75 42.875 75H51.125V79.5V87V91.5L36.125 91.5C34.8824 91.5 33.875 90.4926 33.875 89.25C33.875 88.0074 34.8824 87 36.125 87H46.625V79.5H42.875C39.5613 79.5 36.875 76.8137 36.875 73.5V37.5C36.875 34.1863 39.5613 31.5 42.875 31.5ZM32.375 57.75C32.375 56.5074 31.3676 55.5 30.125 55.5C28.8824 55.5 27.875 56.5074 27.875 57.75V65.25C27.875 66.4926 28.8824 67.5 30.125 67.5C31.3676 67.5 32.375 66.4926 32.375 65.25L32.375 57.75ZM38.375 105C38.375 106.657 37.0319 108 35.375 108C33.7181 108 32.375 106.657 32.375 105C32.375 103.343 33.7181 102 35.375 102C37.0319 102 38.375 103.343 38.375 105ZM42.875 105C42.875 109.142 39.5171 112.5 35.375 112.5C31.2329 112.5 27.875 109.142 27.875 105C27.875 100.858 31.2329 97.5 35.375 97.5C39.5171 97.5 42.875 100.858 42.875 105ZM60.125 108C61.7819 108 63.125 106.657 63.125 105C63.125 103.343 61.7819 102 60.125 102C58.4681 102 57.125 103.343 57.125 105C57.125 106.657 58.4681 108 60.125 108ZM60.125 112.5C64.2671 112.5 67.625 109.142 67.625 105C67.625 100.858 64.2671 97.5 60.125 97.5C55.9829 97.5 52.625 100.858 52.625 105C52.625 109.142 55.9829 112.5 60.125 112.5ZM87.875 105C87.875 106.657 86.5319 108 84.875 108C83.2181 108 81.875 106.657 81.875 105C81.875 103.343 83.2181 102 84.875 102C86.5319 102 87.875 103.343 87.875 105ZM92.375 105C92.375 109.142 89.0171 112.5 84.875 112.5C80.7329 112.5 77.375 109.142 77.375 105C77.375 100.858 80.7329 97.5 84.875 97.5C89.0171 97.5 92.375 100.858 92.375 105Z" fill="white"/>
<path fill-rule="evenodd" clip-rule="evenodd" d="M56.375 43.5C56.375 40.1863 59.0613 37.5 62.375 37.5H110.375C113.689 37.5 116.375 40.1863 116.375 43.5V70.5C116.375 73.8137 113.689 76.5 110.375 76.5H88.625V84H99.125C100.368 84 101.375 85.0074 101.375 86.25C101.375 87.4926 100.368 88.5 99.125 88.5H73.625C72.3824 88.5 71.375 87.4926 71.375 86.25C71.375 85.0074 72.3824 84 73.625 84H84.125V76.5H62.375C59.0613 76.5 56.375 73.8137 56.375 70.5V43.5ZM62.375 42H110.375C111.203 42 111.875 42.6716 111.875 43.5V70.5C111.875 71.3284 111.203 72 110.375 72H62.375C61.5466 72 60.875 71.3284 60.875 70.5V43.5C60.875 42.6716 61.5466 42 62.375 42ZM109.625 112.5C113.767 112.5 117.125 109.142 117.125 105C117.125 100.858 113.767 97.5 109.625 97.5C105.483 97.5 102.125 100.858 102.125 105C102.125 109.142 105.483 112.5 109.625 112.5Z" fill="#6F9BFF"/>
</svg>
