<svg width="144" height="144" viewBox="0 0 144 144" fill="none" xmlns="http://www.w3.org/2000/svg">
<path fill-rule="evenodd" clip-rule="evenodd" d="M87.125 35.5H72.875C69.5613 35.5 66.875 38.1863 66.875 41.5V55.75V63.25V68.5C66.875 71.8137 69.5613 74.5 72.875 74.5H89.375V82H78.875C77.6324 82 76.625 83.0074 76.625 84.25C76.625 85.4926 77.6324 86.5 78.875 86.5H104.375C105.618 86.5 106.625 85.4926 106.625 84.25C106.625 83.0074 105.618 82 104.375 82H93.875V74.5H111.875C115.189 74.5 117.875 71.8137 117.875 68.5V51.4295C116.496 52.4049 114.986 53.2058 113.375 53.8001V68.5C113.375 69.3284 112.703 70 111.875 70H72.875C72.0466 70 71.375 69.3284 71.375 68.5V63.25V55.75V41.5C71.375 40.6716 72.0466 40 72.875 40H87.6468C87.3056 38.5554 87.125 37.0488 87.125 35.5ZM44.375 29.5C41.0613 29.5 38.375 32.1863 38.375 35.5V71.5C38.375 74.8137 41.0613 77.5 44.375 77.5H48.125V85H37.625C36.3824 85 35.375 86.0074 35.375 87.25C35.375 88.4926 36.3824 89.5 37.625 89.5L63.125 89.5C64.3676 89.5 65.375 88.4926 65.375 87.25C65.375 86.0074 64.3676 85 63.125 85H52.625V77.5H56.375C59.6887 77.5 62.375 74.8137 62.375 71.5V35.5C62.375 32.1863 59.6887 29.5 56.375 29.5H44.375ZM56.375 34H44.375C43.5466 34 42.875 34.6716 42.875 35.5V56.5L57.875 56.5V35.5C57.875 34.6716 57.2034 34 56.375 34ZM42.875 71.5V61L57.875 61V71.5C57.875 72.3284 57.2034 73 56.375 73H44.375C43.5466 73 42.875 72.3284 42.875 71.5ZM33.875 55.75C33.875 54.5074 32.8676 53.5 31.625 53.5C30.3824 53.5 29.375 54.5074 29.375 55.75V63.25C29.375 64.4926 30.3824 65.5 31.625 65.5C32.8676 65.5 33.875 64.4926 33.875 63.25L33.875 55.75ZM36.875 106C38.5319 106 39.875 104.657 39.875 103C39.875 101.343 38.5319 100 36.875 100C35.2181 100 33.875 101.343 33.875 103C33.875 104.657 35.2181 106 36.875 106ZM36.875 110.5C41.0171 110.5 44.375 107.142 44.375 103C44.375 98.8579 41.0171 95.5 36.875 95.5C32.7329 95.5 29.375 98.8579 29.375 103C29.375 107.142 32.7329 110.5 36.875 110.5ZM64.625 103C64.625 104.657 63.2819 106 61.625 106C59.9681 106 58.625 104.657 58.625 103C58.625 101.343 59.9681 100 61.625 100C63.2819 100 64.625 101.343 64.625 103ZM69.125 103C69.125 107.142 65.7671 110.5 61.625 110.5C57.4829 110.5 54.125 107.142 54.125 103C54.125 98.8579 57.4829 95.5 61.625 95.5C65.7671 95.5 69.125 98.8579 69.125 103ZM86.375 106C88.0319 106 89.375 104.657 89.375 103C89.375 101.343 88.0319 100 86.375 100C84.7181 100 83.375 101.343 83.375 103C83.375 104.657 84.7181 106 86.375 106ZM86.375 110.5C90.5171 110.5 93.875 107.142 93.875 103C93.875 98.8579 90.5171 95.5 86.375 95.5C82.2329 95.5 78.875 98.8579 78.875 103C78.875 107.142 82.2329 110.5 86.375 110.5ZM114.125 103C114.125 104.657 112.782 106 111.125 106C109.468 106 108.125 104.657 108.125 103C108.125 101.343 109.468 100 111.125 100C112.782 100 114.125 101.343 114.125 103ZM118.625 103C118.625 107.142 115.267 110.5 111.125 110.5C106.983 110.5 103.625 107.142 103.625 103C103.625 98.8579 106.983 95.5 111.125 95.5C115.267 95.5 118.625 98.8579 118.625 103Z" fill="white"/>
<path fill-rule="evenodd" clip-rule="evenodd" d="M107.125 52.4999C116.238 52.4999 123.625 45.1126 123.625 35.9999C123.625 26.8872 116.238 19.4999 107.125 19.4999C98.0125 19.4999 90.6252 26.8872 90.6252 35.9999C90.6252 45.1126 98.0125 52.4999 107.125 52.4999ZM102.625 27.7499C101.383 27.7499 100.375 28.7572 100.375 29.9999C100.375 31.2425 101.383 32.2499 102.625 32.2499H107.693L99.5343 40.4089C98.6556 41.2876 98.6556 42.7122 99.5343 43.5909C100.413 44.4695 101.838 44.4695 102.716 43.5909L110.875 35.4319V40.4999C110.875 41.7425 111.883 42.7499 113.125 42.7499C114.368 42.7499 115.375 41.7425 115.375 40.4999V29.9999C115.375 28.7572 114.368 27.7499 113.125 27.7499H102.625Z" fill="white"/>
</svg>
