<svg width="144" height="144" viewBox="0 0 144 144" fill="none" xmlns="http://www.w3.org/2000/svg">
<path fill-rule="evenodd" clip-rule="evenodd" d="M88.5 105C97.6127 105 105 97.6127 105 88.5C105 79.3873 97.6127 72 88.5 72C79.3873 72 72 79.3873 72 88.5C72 97.6127 79.3873 105 88.5 105ZM84 80.25C82.7574 80.25 81.75 81.2574 81.75 82.5C81.75 83.7426 82.7574 84.75 84 84.75H89.068L80.909 92.909C80.0303 93.7877 80.0303 95.2123 80.909 96.091C81.7877 96.9697 83.2123 96.9697 84.091 96.091L92.25 87.932V93C92.25 94.2426 93.2574 95.25 94.5 95.25C95.7426 95.25 96.75 94.2426 96.75 93V82.5C96.75 81.2574 95.7426 80.25 94.5 80.25H84Z" fill="white"/>
<path fill-rule="evenodd" clip-rule="evenodd" d="M89.1525 48.6654C90.0312 47.7867 91.4558 47.7867 92.3345 48.6654C95.3989 51.7298 97.8296 55.3676 99.488 59.3714C101.146 63.3751 102 67.6663 102 71.9999C102 72.7848 101.972 73.5683 101.916 74.3489C100.601 73.1013 99.1115 72.0352 97.4885 71.1906C97.39 67.7239 96.6595 64.3018 95.3306 61.0935C93.8983 57.6357 91.799 54.4939 89.1525 51.8474C88.2739 50.9687 88.2739 49.5441 89.1525 48.6654ZM91.3255 69.2032C91.0757 67.2094 90.5595 65.2538 89.7873 63.3896C88.6566 60.6597 86.9992 58.1794 84.9099 56.09C84.0312 55.2114 82.6066 55.2114 81.7279 56.09C80.8492 56.9687 80.8492 58.3933 81.7279 59.272C83.3994 60.9435 84.7252 62.9278 85.6298 65.1116C86.1587 66.3886 86.5376 67.7191 86.761 69.0765C87.3339 69.0259 87.9139 69 88.5 69C89.4596 69 90.403 69.0693 91.3255 69.2032ZM80.9099 70.5323C80.7779 69.4607 80.5015 68.4095 80.0866 67.4077C79.4835 65.9518 78.5996 64.629 77.4853 63.5147C76.6066 62.636 75.182 62.636 74.3033 63.5147C73.4246 64.3933 73.4246 65.818 74.3033 66.6966C74.9997 67.3931 75.5522 68.2199 75.9291 69.1298C76.306 70.0398 76.5 71.015 76.5 71.9999C76.5 72.4046 76.4673 72.8076 76.4025 73.2052C77.7685 72.1233 79.2828 71.2205 80.9099 70.5323ZM69 88.5V52.2426C69 49.5699 65.7686 48.2314 63.8787 50.1213L54 59.9999H48C44.6863 59.9999 42 62.6862 42 65.9999V77.9999C42 81.3137 44.6863 83.9999 48 83.9999H54L63.8787 93.8786C65.7686 95.7685 69 94.43 69 91.7573V88.5ZM54 79.4999C55.1935 79.4999 56.3381 79.974 57.182 80.818L64.5 88.136V55.8639L57.182 63.1819C56.3381 64.0258 55.1935 64.4999 54 64.4999H48C47.1716 64.4999 46.5 65.1715 46.5 65.9999V77.9999C46.5 78.8284 47.1716 79.4999 48 79.4999H54Z" fill="white"/>
</svg>
