<svg width="144" height="144" viewBox="0 0 144 144" fill="none" xmlns="http://www.w3.org/2000/svg">
<path fill-rule="evenodd" clip-rule="evenodd" d="M60 48C60 44.6863 62.6863 42 66 42H78C81.3137 42 84 44.6863 84 48V69.5218C81.0252 70.2245 78.3137 71.6085 76.0393 73.5L64.5 73.5V84C64.5 84.8284 65.1716 85.5 66 85.5H69.2293C69.0783 86.4779 69 87.4798 69 88.5C69 89.0047 69.0192 89.5049 69.0568 90H66C62.6863 90 60 87.3137 60 84V48ZM69.75 93.8743V97.5H59.25C58.0074 97.5 57 98.5074 57 99.75C57 100.993 58.0074 102 59.25 102L74.4287 102C72.2627 99.7429 70.6344 96.9656 69.75 93.8743ZM93 69.5218V68.25C93 67.0074 91.9926 66 90.75 66C89.5074 66 88.5 67.0074 88.5 68.25V69C90.0488 69 91.5554 69.1806 93 69.5218ZM66 46.5H78C78.8284 46.5 79.5 47.1716 79.5 48V69L64.5 69V48C64.5 47.1716 65.1716 46.5 66 46.5ZM53.25 66C54.4926 66 55.5 67.0074 55.5 68.25L55.5 75.75C55.5 76.9926 54.4926 78 53.25 78C52.0074 78 51 76.9926 51 75.75V68.25C51 67.0074 52.0074 66 53.25 66Z" fill="white"/>
<path fill-rule="evenodd" clip-rule="evenodd" d="M89.4998 106C98.6125 106 106 98.6128 106 89.5001C106 80.3874 98.6125 73.0001 89.4998 73.0001C80.3871 73.0001 72.9998 80.3874 72.9998 89.5001C72.9998 98.6128 80.3871 106 89.4998 106ZM84.9998 81.2501C83.7571 81.2501 82.7498 82.2575 82.7498 83.5001C82.7498 84.7428 83.7571 85.7501 84.9998 85.7501H90.0678L81.9088 93.9091C81.0301 94.7878 81.0301 96.2124 81.9088 97.0911C82.7874 97.9698 84.2121 97.9698 85.0907 97.0911L93.2498 88.9321V94.0001C93.2498 95.2428 94.2571 96.2501 95.4998 96.2501C96.7424 96.2501 97.7498 95.2428 97.7498 94.0001L97.7498 83.5001C97.7498 82.2575 96.7424 81.2501 95.4998 81.2501H84.9998Z" fill="white"/>
</svg>
