<svg width="144" height="144" viewBox="0 0 144 144" fill="none" xmlns="http://www.w3.org/2000/svg">
<path fill-rule="evenodd" clip-rule="evenodd" d="M60 48C60 44.6863 62.6863 42 66 42H78C81.3137 42 84 44.6863 84 48V84C84 87.3137 81.3137 90 78 90H74.25V97.5H84.75C85.9926 97.5 87 98.5074 87 99.75C87 100.993 85.9926 102 84.75 102L59.25 102C58.0074 102 57 100.993 57 99.75C57 98.5074 58.0074 97.5 59.25 97.5H69.75V90H66C62.6863 90 60 87.3137 60 84V48ZM66 46.5H78C78.8284 46.5 79.5 47.1716 79.5 48V69L64.5 69V48C64.5 47.1716 65.1716 46.5 66 46.5ZM64.5 73.5V84C64.5 84.8284 65.1716 85.5 66 85.5H78C78.8284 85.5 79.5 84.8284 79.5 84V73.5L64.5 73.5Z" fill="white"/>
<path d="M53.25 66C54.4926 66 55.5 67.0074 55.5 68.25L55.5 75.75C55.5 76.9926 54.4926 78 53.25 78C52.0074 78 51 76.9926 51 75.75V68.25C51 67.0074 52.0074 66 53.25 66Z" fill="white"/>
<path d="M93 68.25C93 67.0074 91.9926 66 90.75 66C89.5074 66 88.5 67.0074 88.5 68.25V75.75C88.5 76.9926 89.5074 78 90.75 78C91.9926 78 93 76.9926 93 75.75V68.25Z" fill="white"/>
</svg>
