<svg width="40" height="40" viewBox="0 0 40 40" fill="none" xmlns="http://www.w3.org/2000/svg">
<path d="M33.5564 4.43934C32.9706 3.85355 32.0208 3.85355 31.435 4.43934C30.8492 5.02513 30.8492 5.97487 31.435 6.56066C33.1993 8.32497 34.5989 10.4195 35.5537 12.7247C36.5085 15.0299 37 17.5006 37 19.9957C37 22.4908 36.5085 24.9615 35.5537 27.2667C34.5989 29.5719 33.1993 31.6664 31.435 33.4307C30.8492 34.0165 30.8492 34.9663 31.435 35.552C32.0208 36.1378 32.9706 36.1378 33.5564 35.552C35.5992 33.5092 37.2197 31.0839 38.3253 28.4147C39.431 25.7456 40 22.8848 40 19.9957C40 17.1066 39.431 14.2458 38.3253 11.5767C37.2197 8.90749 35.5992 6.48223 33.5564 4.43934Z" fill="white"/>
<path fill-rule="evenodd" clip-rule="evenodd" d="M14.5858 34.5815L8 27.9957H4C1.79086 27.9957 0 26.2048 0 23.9957V15.9957C0 13.7866 1.79086 11.9957 4 11.9957H8L14.5858 5.4099C15.8457 4.14997 18 5.04231 18 6.82412V33.1673C18 34.9491 15.8457 35.8414 14.5858 34.5815ZM10.1213 25.8744C9.55871 25.3118 8.79565 24.9957 8 24.9957H4C3.44772 24.9957 3 24.548 3 23.9957V15.9957C3 15.4434 3.44772 14.9957 4 14.9957H8C8.79565 14.9957 9.55871 14.6796 10.1213 14.117L15 9.23833V30.753L10.1213 25.8744Z" fill="white"/>
<path d="M23.6569 14.3388C23.0711 13.753 22.1213 13.753 21.5355 14.3388C20.9497 14.9246 20.9497 15.8744 21.5355 16.4602C21.9998 16.9244 22.3681 17.4756 22.6194 18.0823C22.8707 18.6889 23 19.3391 23 19.9957C23 20.6523 22.8707 21.3025 22.6194 21.9091C22.3681 22.5157 21.9998 23.0669 21.5355 23.5312C20.9497 24.117 20.9497 25.0668 21.5355 25.6525C22.1213 26.2383 23.0711 26.2383 23.6569 25.6525C24.3997 24.9097 24.989 24.0278 25.391 23.0572C25.7931 22.0866 26 21.0463 26 19.9957C26 18.9451 25.7931 17.9048 25.391 16.9342C24.989 15.9636 24.3997 15.0817 23.6569 14.3388Z" fill="white"/>
<path d="M26.4853 9.38909C27.0711 8.8033 28.0208 8.8033 28.6066 9.38909C29.9995 10.782 31.1044 12.4356 31.8582 14.2554C32.612 16.0753 33 18.0259 33 19.9957C33 21.9655 32.612 23.9161 31.8582 25.7359C31.1044 27.5558 29.9995 29.2094 28.6066 30.6023C28.0208 31.1881 27.0711 31.1881 26.4853 30.6023C25.8995 30.0165 25.8995 29.0668 26.4853 28.481C27.5996 27.3667 28.4835 26.0438 29.0866 24.5879C29.6896 23.132 30 21.5716 30 19.9957C30 18.4198 29.6896 16.8594 29.0866 15.4035C28.4835 13.9476 27.5996 12.6247 26.4853 11.5104C25.8995 10.9246 25.8995 9.97487 26.4853 9.38909Z" fill="white"/>
</svg>
