<svg width="40" height="40" viewBox="0 0 40 40" fill="none" xmlns="http://www.w3.org/2000/svg">
<path fill-rule="evenodd" clip-rule="evenodd" d="M 8.9231 11.077 L 8 12.0001 H 4 C 1.7909 12.0001 0 13.7909 0 16.0001 V 24.0001 C 0 26.2092 1.7909 28.0001 4 28.0001 H 8 L 14.5858 34.5859 C 15.8457 35.8458 18 34.9535 18 33.1717 V 20.154 L 21.4613 23.6153 C 20.9509 24.2046 20.9756 25.097 21.5355 25.6569 C 22.0954 26.2169 22.9879 26.2416 23.5772 25.7311 L 26.4111 28.565 C 25.9006 29.1543 25.9254 30.0468 26.4853 30.6067 C 27.0452 31.1666 27.9376 31.1913 28.5269 30.6809 L 31.3608 33.5148 C 30.8504 34.1041 30.8751 34.9965 31.435 35.5564 C 31.9949 36.1163 32.8874 36.1411 33.4767 35.6306 Z M 15 17.154 L 11.0444 13.1983 L 10.1213 14.1214 C 9.5587 14.684 8.7957 15.0001 8 15.0001 H 4 C 3.4477 15.0001 3 15.4478 3 16.0001 V 24.0001 C 3 24.5524 3.4477 25.0001 4 25.0001 H 8 C 8.7957 25.0001 9.5587 25.3162 10.1213 25.8788 L 15 30.7574 V 17.154 Z M 14.8233 9.4194 L 15 9.2427 V 9.596 L 18 12.596 V 6.8285 C 18 5.0467 15.8457 4.1544 14.5858 5.4143 L 12.702 7.2981 L 14.8233 9.4194 Z M 21.1313 15.7273 L 25.9793 20.5753 C 25.9931 20.3842 26 20.1923 26 20.0001 C 26 18.9495 25.7931 17.9092 25.391 16.9386 C 24.989 15.968 24.3997 15.0861 23.6569 14.3432 C 23.0711 13.7574 22.1213 13.7574 21.5355 14.3432 C 21.1599 14.7189 21.0251 15.2443 21.1313 15.7273 Z M 29.3371 23.9332 L 31.6416 26.2376 C 31.7167 26.0733 31.7889 25.9075 31.8582 25.7403 C 32.612 23.9205 33 21.9699 33 20.0001 C 33 18.0303 32.612 16.0797 31.8582 14.2598 C 31.1044 12.4399 29.9995 10.7864 28.6066 9.3935 C 28.0208 8.8077 27.0711 8.8077 26.4853 9.3935 C 25.8995 9.9793 25.8995 10.929 26.4853 11.5148 C 27.5996 12.6291 28.4835 13.952 29.0866 15.4079 C 29.6896 16.8638 30 18.4242 30 20.0001 C 30 21.3406 29.7754 22.6699 29.3371 23.9332 Z M 34.6169 29.213 L 36.8115 31.4075 C 37.39 30.4535 37.8964 29.4547 38.3253 28.4191 C 39.431 25.75 40 22.8892 40 20.0001 C 40 17.111 39.431 14.2502 38.3253 11.581 C 37.2197 8.9119 35.5992 6.4866 33.5564 4.4437 C 32.9706 3.858 32.0208 3.858 31.435 4.4437 C 30.8492 5.0295 30.8492 5.9793 31.435 6.5651 C 33.1993 8.3294 34.5989 10.4239 35.5537 12.7291 C 36.5085 15.0343 37 17.505 37 20.0001 C 37 22.4952 36.5085 24.9659 35.5537 27.2711 C 35.2779 27.9369 34.965 28.5852 34.6169 29.213 Z" fill="white"/>
<path fill-rule="evenodd" clip-rule="evenodd" d="M4.93934 4.93934C5.52513 4.35355 6.47487 4.35355 7.06066 4.93934L36.0607 33.9393C36.6464 34.5251 36.6464 35.4749 36.0607 36.0607C35.4749 36.6464 34.5251 36.6464 33.9393 36.0607L4.93934 7.06066C4.35355 6.47487 4.35355 5.52513 4.93934 4.93934Z" fill="#E12A40"/>
</svg>
