<svg width="40" height="40" viewBox="0 0 40 40" fill="none" xmlns="http://www.w3.org/2000/svg">
<path fill-rule="evenodd" clip-rule="evenodd" d="M 16 0 C 13.7909 0 12 1.7909 12 4 V 6.596 L 15 9.596 V 4 C 15 3.4477 15.4477 3 16 3 H 24 C 24.5523 3 25 3.4477 25 4 V 18 H 23.404 L 28 22.596 V 4 C 28 1.7909 26.2091 0 24 0 H 16 Z M 12 14.154 L 27.5973 29.7512 C 26.9479 31.0827 25.5811 32 24 32 H 21.5 V 37 H 28.5 C 29.3284 37 30 37.6716 30 38.5 C 30 39.3284 29.3284 40 28.5 40 L 11.5 40 C 10.6716 40 10 39.3284 10 38.5 C 10 37.6716 10.6716 37 11.5 37 H 18.5 V 32 H 16 C 13.7909 32 12 30.2091 12 28 V 14.154 Z M 25 27.154 L 18.846 21 L 15 21 V 28 C 15 28.5523 15.4477 29 16 29 H 24 C 24.5523 29 25 28.5523 25 28 V 27.154 Z M 15.846 18 H 15 V 17.154 L 15.846 18 Z M 9 17.5 C 9 16.6716 8.3284 16 7.5 16 C 6.6716 16 6 16.6716 6 17.5 V 22.5 C 6 23.3284 6.6716 24 7.5 24 C 8.3284 24 9 23.3284 9 22.5 V 17.5 Z M 34 17.5 C 34 16.6716 33.3284 16 32.5 16 C 31.6716 16 31 16.6716 31 17.5 V 22.5 C 31 23.3284 31.6716 24 32.5 24 C 33.3284 24 34 23.3284 34 22.5 V 17.5 Z" fill="white"/>
<path fill-rule="evenodd" clip-rule="evenodd" d="M4.93934 4.93934C5.52513 4.35355 6.47487 4.35355 7.06066 4.93934L36.0607 33.9393C36.6464 34.5251 36.6464 35.4749 36.0607 36.0607C35.4749 36.6464 34.5251 36.6464 33.9393 36.0607L4.93934 7.06066C4.35355 6.47487 4.35355 5.52513 4.93934 4.93934Z" fill="#E12A40"/>
</svg>
