<svg width="40" height="40" viewBox="0 0 40 40" fill="none" xmlns="http://www.w3.org/2000/svg">
<g clip-path="url(#clip0_1540_9050)">
<path fill-rule="evenodd" clip-rule="evenodd" d="M12 4C12 1.79086 13.7909 0 16 0H24C26.2091 0 28 1.79086 28 4V28C28 30.2091 26.2091 32 24 32H21.5V37H28.5C29.3284 37 30 37.6716 30 38.5C30 39.3284 29.3284 40 28.5 40L11.5 40C10.6716 40 10 39.3284 10 38.5C10 37.6716 10.6716 37 11.5 37H18.5V32H16C13.7909 32 12 30.2091 12 28V4ZM16 3H24C24.5523 3 25 3.44772 25 4V18L15 18V4C15 3.44772 15.4477 3 16 3ZM15 21V28C15 28.5523 15.4477 29 16 29H24C24.5523 29 25 28.5523 25 28V21L15 21Z" fill="white"/>
<path d="M7.5 16C8.32843 16 9 16.6716 9 17.5L9 22.5C9 23.3284 8.32843 24 7.5 24C6.67157 24 6 23.3284 6 22.5V17.5C6 16.6716 6.67157 16 7.5 16Z" fill="white"/>
<path d="M34 17.5C34 16.6716 33.3284 16 32.5 16C31.6716 16 31 16.6716 31 17.5V22.5C31 23.3284 31.6716 24 32.5 24C33.3284 24 34 23.3284 34 22.5V17.5Z" fill="white"/>
</g>
<defs>
<clipPath id="clip0_1540_9050">
<rect width="40" height="40" fill="white"/>
</clipPath>
</defs>
</svg>
