<svg width="36" height="36" viewBox="0 0 36 36" fill="none" xmlns="http://www.w3.org/2000/svg">
<path fill-rule="evenodd" clip-rule="evenodd" d="M12 6C12 4.34315 13.3431 3 15 3H21C22.6569 3 24 4.34315 24 6V24C24 25.6569 22.6569 27 21 27H19.125V30.75H24.375C24.9963 30.75 25.5 31.2537 25.5 31.875C25.5 32.4963 24.9963 33 24.375 33L11.625 33C11.0037 33 10.5 32.4963 10.5 31.875C10.5 31.2537 11.0037 30.75 11.625 30.75H16.875V27H15C13.3431 27 12 25.6569 12 24V6ZM15 5.25H21C21.4142 5.25 21.75 5.58579 21.75 6V16.5L14.25 16.5V6C14.25 5.58579 14.5858 5.25 15 5.25ZM14.25 18.75V24C14.25 24.4142 14.5858 24.75 15 24.75H21C21.4142 24.75 21.75 24.4142 21.75 24V18.75L14.25 18.75Z" fill="white"/>
<path d="M8.625 15C9.24632 15 9.75 15.5037 9.75 16.125L9.75 19.875C9.75 20.4963 9.24632 21 8.625 21C8.00368 21 7.5 20.4963 7.5 19.875V16.125C7.5 15.5037 8.00368 15 8.625 15Z" fill="white"/>
<path d="M28.5 16.125C28.5 15.5037 27.9963 15 27.375 15C26.7537 15 26.25 15.5037 26.25 16.125V19.875C26.25 20.4963 26.7537 21 27.375 21C27.9963 21 28.5 20.4963 28.5 19.875V16.125Z" fill="white"/>
</svg>
