<svg width="36" height="36" viewBox="0 0 36 36" fill="none" xmlns="http://www.w3.org/2000/svg">
<path fill-rule="evenodd" clip-rule="evenodd" d="M 12 13.3641 V 24 C 12 25.6569 13.3431 27 15 27 H 16.875 V 30.75 H 11.625 C 11.0037 30.75 10.5 31.2537 10.5 31.875 C 10.5 32.4963 11.0037 33 11.625 33 L 24.375 33 C 24.9963 33 25.5 32.4963 25.5 31.875 C 25.5 31.2537 24.9963 30.75 24.375 30.75 H 19.125 V 27 H 21 C 22.2533 27 23.3271 26.2314 23.7758 25.1399 Z M 21.75 23.1141 L 17.3859 18.75 L 14.25 18.75 V 24 C 14.25 24.4142 14.5858 24.75 15 24.75 H 21 C 21.4142 24.75 21.75 24.4142 21.75 24 V 23.1141 Z M 15.1359 16.5 L 14.25 15.6141 V 16.5 H 15.1359 Z M 21.75 16.5 H 21.341 L 24 19.159 V 6 C 24 4.3431 22.6569 3 21 3 H 15 C 13.3431 3 12 4.3431 12 6 V 7.159 L 14.25 9.409 V 6 C 14.25 5.5858 14.5858 5.25 15 5.25 H 21 C 21.4142 5.25 21.75 5.5858 21.75 6 V 16.5 Z M 9.75 16.125 C 9.75 15.5037 9.2463 15 8.625 15 C 8.0037 15 7.5 15.5037 7.5 16.125 V 19.875 C 7.5 20.4963 8.0037 21 8.625 21 C 9.2463 21 9.75 20.4963 9.75 19.875 V 16.125 Z M 28.5 16.125 C 28.5 15.5037 27.9963 15 27.375 15 C 26.7537 15 26.25 15.5037 26.25 16.125 V 19.875 C 26.25 20.4963 26.7537 21 27.375 21 C 27.9963 21 28.5 20.4963 28.5 19.875 V 16.125 Z" fill="white"/>
<path fill-rule="evenodd" clip-rule="evenodd" d="M4.5455 2.7276 C4.1062 2.2882 3.3938 2.2882 2.9545 2.7276 C2.5152 3.1669 2.5152 3.8792 2.9545 4.3186 L32.4007 33.7647 C32.84 34.2041 33.5523 34.2041 33.9916 33.7647 C34.431 33.3254 34.431 32.6131 33.9916 32.1737 L4.5455 2.7276Z" fill="#E12A40"/>
</svg>
