<svg width="24" height="24" viewBox="0 0 24 24" fill="none" xmlns="http://www.w3.org/2000/svg">
<path fill-rule="evenodd" clip-rule="evenodd" d="M4 4C2.89543 4 2 4.89543 2 6V15C2 16.1046 2.89543 17 4 17H11.25V19.5H7.75C7.33579 19.5 7 19.8358 7 20.25C7 20.6642 7.33579 21 7.75 21H16.25C16.6642 21 17 20.6642 17 20.25C17 19.8358 16.6642 19.5 16.25 19.5H12.75V17H20C21.1046 17 22 16.1046 22 15V6C22 4.89543 21.1046 4 20 4H4ZM20 5.5H4C3.72386 5.5 3.5 5.72386 3.5 6V15C3.5 15.2761 3.72386 15.5 4 15.5H20C20.2761 15.5 20.5 15.2761 20.5 15V6C20.5 5.72386 20.2761 5.5 20 5.5Z" fill="white"/>
</svg>
