<svg width="36" height="36" viewBox="0 0 36 36" fill="none" xmlns="http://www.w3.org/2000/svg">
<path fill-rule="evenodd" clip-rule="evenodd" d="M 4.8601 6.2241 C 3.7686 6.6729 3 7.7467 3 9 V 22.5 C 3 24.1569 4.3431 25.5 6 25.5 H 16.875 V 29.25 H 11.625 C 11.0037 29.25 10.5 29.7537 10.5 30.375 C 10.5 30.9963 11.0037 31.5 11.625 31.5 H 24.375 C 24.9963 31.5 25.5 30.9963 25.5 30.375 C 25.5 29.7537 24.9963 29.25 24.375 29.25 H 19.125 V 25.5 H 24.1359 Z M 21.8859 23.25 L 6.8859 8.25 H 6 C 5.5858 8.25 5.25 8.5858 5.25 9 V 22.5 C 5.25 22.9142 5.5858 23.25 6 23.25 H 21.8859 Z M 30 23.25 H 28.091 L 30.3237 25.4827 C 31.8283 25.3213 33 24.0475 33 22.5 V 9 C 33 7.3431 31.6569 6 30 6 H 10.841 L 13.091 8.25 H 30 C 30.4142 8.25 30.75 8.5858 30.75 9 V 22.5 C 30.75 22.9142 30.4142 23.25 30 23.25 Z" fill="white"/>
<path fill-rule="evenodd" clip-rule="evenodd" d="M4.5455 2.7276 C4.1062 2.2882 3.3938 2.2882 2.9545 2.7276 C2.5152 3.1669 2.5152 3.8792 2.9545 4.3186 L32.4007 33.7647 C32.84 34.2041 33.5523 34.2041 33.9916 33.7647 C34.431 33.3254 34.431 32.6131 33.9916 32.1737 L4.5455 2.7276Z" fill="#E12A40"/>
</svg>
