<svg width="40" height="40" viewBox="0 0 40 40" fill="none" xmlns="http://www.w3.org/2000/svg">
<path d="M20 3C10.6112 3 3 10.6112 3 20V30.5C3 31.3284 2.32843 32 1.5 32C0.671573 32 0 31.3284 0 30.5V20C0 8.95431 8.95431 0 20 0C31.0457 0 40 8.95431 40 20V30.5C40 31.3284 39.3284 32 38.5 32C37.6716 32 37 31.3284 37 30.5V20C37 10.6112 29.3888 3 20 3Z" fill="white"/>
<path fill-rule="evenodd" clip-rule="evenodd" d="M10 22C7.79086 22 6 23.7909 6 26V36C6 38.2091 7.79086 40 10 40H12C14.2091 40 16 38.2091 16 36V26C16 23.7909 14.2091 22 12 22H10ZM12 25H10C9.44771 25 9 25.4477 9 26V36C9 36.5523 9.44772 37 10 37H12C12.5523 37 13 36.5523 13 36V26C13 25.4477 12.5523 25 12 25Z" fill="white"/>
<path fill-rule="evenodd" clip-rule="evenodd" d="M24 26C24 23.7909 25.7909 22 28 22H30C32.2091 22 34 23.7909 34 26V36C34 38.2091 32.2091 40 30 40H28C25.7909 40 24 38.2091 24 36V26ZM28 25H30C30.5523 25 31 25.4477 31 26V36C31 36.5523 30.5523 37 30 37H28C27.4477 37 27 36.5523 27 36V26C27 25.4477 27.4477 25 28 25Z" fill="white"/>
</svg>
