<svg width="40" height="40" viewBox="0 0 40 40" fill="none" xmlns="http://www.w3.org/2000/svg">
<path d="M7.78634 5.3994C8.31887 5.93193 8.31887 6.79534 7.78634 7.32787C6.18242 8.93179 4.91012 10.8359 4.04208 12.9315C3.17405 15.0272 2.72727 17.2732 2.72727 19.5415C2.72727 21.8098 3.17404 24.0559 4.04208 26.1515C4.91012 28.2471 6.18242 30.1513 7.78634 31.7552C8.31887 32.2877 8.31887 33.1511 7.78634 33.6837C7.2538 34.2162 6.3904 34.2162 5.85786 33.6837C4.00069 31.8265 2.5275 29.6217 1.52241 27.1952C0.517315 24.7687 0 22.168 0 19.5415C0 16.9151 0.517316 14.3144 1.52241 11.8879C2.5275 9.46135 4.00069 7.25657 5.85787 5.3994C6.3904 4.86687 7.25381 4.86687 7.78634 5.3994Z" fill="white"/>
<path d="M12.9289 10.542C13.4615 11.0745 13.4615 11.9379 12.9289 12.4705C12.0003 13.3991 11.2638 14.5014 10.7612 15.7147C10.2587 16.928 10 18.2283 10 19.5415C10 20.8548 10.2587 22.1551 10.7612 23.3684C11.2638 24.5816 12.0003 25.684 12.9289 26.6126C13.4615 27.1451 13.4615 28.0085 12.9289 28.5411C12.3964 29.0736 11.533 29.0736 11.0005 28.5411C9.81862 27.3592 8.88114 25.9562 8.24153 24.4121C7.60193 22.8679 7.27273 21.2129 7.27273 19.5415C7.27273 17.8702 7.60193 16.2152 8.24153 14.671C8.88114 13.1269 9.81862 11.7238 11.0005 10.542C11.533 10.0095 12.3964 10.0095 12.9289 10.542Z" fill="white"/>
<path fill-rule="evenodd" clip-rule="evenodd" d="M20 24.9961C23.0125 24.9961 25.4545 22.554 25.4545 19.5415C25.4545 16.5291 23.0125 14.087 20 14.087C16.9875 14.087 14.5455 16.5291 14.5455 19.5415C14.5455 22.554 16.9875 24.9961 20 24.9961ZM20 22.2688C21.5062 22.2688 22.7273 21.0478 22.7273 19.5415C22.7273 18.0353 21.5062 16.8143 20 16.8143C18.4938 16.8143 17.2727 18.0353 17.2727 19.5415C17.2727 21.0478 18.4938 22.2688 20 22.2688Z" fill="white"/>
<path d="M27.0711 26.6126C26.5385 27.1451 26.5385 28.0085 27.0711 28.5411C27.6036 29.0736 28.467 29.0736 28.9995 28.5411C30.1814 27.3592 31.1189 25.9562 31.7585 24.4121C32.3981 22.8679 32.7273 21.2129 32.7273 19.5415C32.7273 17.8702 32.3981 16.2152 31.7585 14.671C31.1189 13.1269 30.1814 11.7238 28.9995 10.542C28.467 10.0095 27.6036 10.0095 27.0711 10.542C26.5385 11.0745 26.5385 11.9379 27.0711 12.4705C27.9997 13.3991 28.7362 14.5014 29.2388 15.7147C29.7413 16.928 30 18.2283 30 19.5415C30 20.8548 29.7413 22.1551 29.2388 23.3684C28.7362 24.5816 27.9996 25.684 27.0711 26.6126Z" fill="white"/>
<path d="M32.2137 31.7552C31.6811 32.2877 31.6811 33.1511 32.2137 33.6837C32.7462 34.2162 33.6096 34.2162 34.1421 33.6837C35.9993 31.8265 37.4725 29.6217 38.4776 27.1952C39.4827 24.7687 40 22.168 40 19.5415C40 16.9151 39.4827 14.3144 38.4776 11.8879C37.4725 9.46136 35.9993 7.25658 34.1421 5.39941C33.6096 4.86687 32.7462 4.86687 32.2137 5.39941C31.6811 5.93194 31.6811 6.79534 32.2137 7.32788C33.8176 8.9318 35.0899 10.8359 35.9579 12.9316C36.826 15.0272 37.2727 17.2733 37.2727 19.5415C37.2727 21.8098 36.826 24.0559 35.9579 26.1515C35.0899 28.2472 33.8176 30.1513 32.2137 31.7552Z" fill="white"/>
</svg>
