<svg width="40" height="40" viewBox="0 0 40 40" fill="none" xmlns="http://www.w3.org/2000/svg">
<path fill-rule="evenodd" clip-rule="evenodd" d="M8.53963 7.44358C5.13554 10.5523 3 15.0268 3 20V30.5C3 31.3284 2.32843 32 1.5 32C0.671573 32 0 31.3284 0 30.5V20C0 14.1983 2.4703 8.97366 6.41644 5.3204L8.53963 7.44358ZM24.7557 23.6597C24.2802 24.3177 24 25.1261 24 26V36C24 38.2091 25.7909 40 28 40H30C32.2091 40 34 38.2091 34 36V32.904L31 29.904V36C31 36.5523 30.5523 37 30 37H28C27.4477 37 27 36.5523 27 36V26C27 25.969 27.0014 25.9384 27.0042 25.9081L24.7557 23.6597ZM30.6167 25.2128L27.4425 22.0385C27.6247 22.0131 27.8108 22 28 22H30C32.2091 22 34 23.7909 34 26V28.596L30.7872 25.3833C30.7375 25.3198 30.6802 25.2625 30.6167 25.2128ZM10.9871 5.58317L8.8189 3.41495C12.0107 1.25891 15.8583 0 20 0C31.0457 0 40 8.95431 40 20V30.5C40 31.3284 39.3284 32 38.5 32C37.6716 32 37 31.3284 37 30.5V20C37 10.6112 29.3888 3 20 3C16.6894 3 13.5999 3.9463 10.9871 5.58317ZM10 22C7.79086 22 6 23.7909 6 26V36C6 38.2091 7.79086 40 10 40H12C14.2091 40 16 38.2091 16 36V26C16 23.7909 14.2091 22 12 22H10ZM12 25H10C9.44771 25 9 25.4477 9 26V36C9 36.5523 9.44772 37 10 37H12C12.5523 37 13 36.5523 13 36V26C13 25.4477 12.5523 25 12 25Z" fill="white"/>
<path fill-rule="evenodd" clip-rule="evenodd" d="M4.4461 4.4461C5.0409 3.8513 6.00526 3.8513 6.60005 4.4461L36.0462 33.8923C36.641 34.487 36.641 35.4514 36.0462 36.0462C35.4514 36.641 34.487 36.641 33.8923 36.0462L4.4461 6.60005C3.8513 6.00526 3.8513 5.0409 4.4461 4.4461Z" fill="#E12A40"/>
</svg>
