<svg width="40" height="40" viewBox="0 0 40 40" fill="none" xmlns="http://www.w3.org/2000/svg">
<path fill-rule="evenodd" clip-rule="evenodd" d="M6.2306 5.13455C6.09587 5.19939 5.96958 5.28767 5.85787 5.39939C4.00069 7.25656 2.5275 9.46135 1.52241 11.8879C0.517316 14.3144 0 16.9151 0 19.5415C0 22.168 0.517315 24.7687 1.52241 27.1952C2.5275 29.6217 4.00069 31.8265 5.85786 33.6837C6.3904 34.2162 7.2538 34.2162 7.78634 33.6837C8.31887 33.1511 8.31887 32.2877 7.78634 31.7552C6.18242 30.1513 4.91012 28.2471 4.04208 26.1515C3.17404 24.0559 2.72727 21.8098 2.72727 19.5415C2.72727 17.2732 3.17405 15.0272 4.04208 12.9315C4.91012 10.8359 6.18242 8.93179 7.78634 7.32787C7.89806 7.21615 7.98634 7.08987 8.05118 6.95513L6.2306 5.13455ZM11.3732 10.2771C11.2385 10.342 11.1122 10.4303 11.0005 10.542C9.81862 11.7238 8.88114 13.1269 8.24153 14.671C7.60193 16.2152 7.27273 17.8702 7.27273 19.5415C7.27273 21.2129 7.60193 22.8679 8.24153 24.412C8.88114 25.9562 9.81862 27.3592 11.0005 28.5411C11.533 29.0736 12.3964 29.0736 12.9289 28.5411C13.4615 28.0085 13.4615 27.1451 12.9289 26.6126C12.0003 25.684 11.2638 24.5816 10.7612 23.3684C10.2587 22.1551 10 20.8547 10 19.5415C10 18.2283 10.2587 16.928 10.7612 15.7147C11.2638 14.5014 12.0003 13.399 12.9289 12.4705C13.0407 12.3587 13.1289 12.2325 13.1938 12.0977L11.3732 10.2771ZM16.475 15.3789C15.2946 16.3794 14.5455 17.873 14.5455 19.5415C14.5455 22.554 16.9875 24.9961 20 24.9961C21.6685 24.9961 23.1621 24.2469 24.1626 23.0666L22.2209 21.1248C21.7263 21.8173 20.9159 22.2688 20 22.2688C18.4938 22.2688 17.2727 21.0478 17.2727 19.5415C17.2727 18.6257 17.7242 17.8152 18.4167 17.3206L16.475 15.3789ZM27.3827 26.2866C27.2814 26.3975 27.1775 26.5062 27.0711 26.6126C26.5385 27.1451 26.5385 28.0085 27.0711 28.5411C27.6036 29.0736 28.467 29.0736 28.9995 28.5411C29.1059 28.4347 29.2103 28.3265 29.3127 28.2166L27.3827 26.2866ZM31.1259 25.7219L29.0974 23.6934C29.1464 23.586 29.1935 23.4776 29.2388 23.3684C29.7413 22.1551 30 20.8547 30 19.5415C30 18.2283 29.7413 16.928 29.2388 15.7147C28.7362 14.5014 27.9997 13.399 27.0711 12.4705C26.5385 11.9379 26.5385 11.0745 27.0711 10.542C27.6036 10.0095 28.467 10.0095 28.9995 10.542C30.1814 11.7238 31.1189 13.1269 31.7585 14.671C32.3981 16.2152 32.7273 17.8702 32.7273 19.5415C32.7273 21.2129 32.3981 22.8679 31.7585 24.412C31.5724 24.8613 31.3611 25.2986 31.1259 25.7219ZM32.5283 31.4322C32.4249 31.5412 32.32 31.6489 32.2137 31.7552C31.6811 32.2877 31.6811 33.1511 32.2137 33.6837C32.7462 34.2162 33.6096 34.2162 34.1421 33.6837C34.2485 33.5773 34.3535 33.4699 34.4573 33.3613L32.5283 31.4322ZM36.397 30.9931L34.4335 29.0295C35.0297 28.1225 35.5405 27.1592 35.9579 26.1515C36.826 24.0559 37.2727 21.8098 37.2727 19.5415C37.2727 17.2732 36.826 15.0272 35.9579 12.9315C35.0899 10.8359 33.8176 8.93179 32.2137 7.32787C31.6811 6.79534 31.6811 5.93193 32.2137 5.3994C32.7462 4.86687 33.6096 4.86687 34.1421 5.3994C35.9993 7.25657 37.4725 9.46135 38.4776 11.8879C39.4827 14.3144 40 16.9151 40 19.5415C40 22.168 39.4827 24.7687 38.4776 27.1952C37.9222 28.5359 37.224 29.809 36.397 30.9931ZM25.433 20.0291L19.5124 14.1085C19.6731 14.0943 19.8357 14.087 20 14.087C23.0125 14.087 25.4545 16.5291 25.4545 19.5415C25.4545 19.7058 25.4473 19.8685 25.433 20.0291Z" fill="white"/>
<path fill-rule="evenodd" clip-rule="evenodd" d="M4.4461 4.4461C5.0409 3.8513 6.00526 3.8513 6.60005 4.4461L36.0462 33.8923C36.641 34.487 36.641 35.4514 36.0462 36.0462C35.4514 36.641 34.487 36.641 33.8923 36.0462L4.4461 6.60005C3.8513 6.00526 3.8513 5.0409 4.4461 4.4461Z" fill="#E12A40"/>
</svg>
