<svg width="144" height="144" viewBox="0 0 144 144" fill="none" xmlns="http://www.w3.org/2000/svg">
<path fill-rule="evenodd" clip-rule="evenodd" d="M40 42H60C61.1046 42 62 42.8954 62 44V76C62 77.1046 61.1046 78 60 78H40C38.8954 78 38 77.1046 38 76V44C38 42.8954 38.8954 42 40 42ZM32 44C32 39.5817 35.5817 36 40 36H60C64.4183 36 68 39.5817 68 44V76C68 80.4183 64.4183 84 60 84H40C35.5817 84 32 80.4183 32 76V44ZM56 52C56 55.3137 53.3137 58 50 58C46.6863 58 44 55.3137 44 52C44 48.6863 46.6863 46 50 46C53.3137 46 56 48.6863 56 52ZM50 74C53.3137 74 56 71.3137 56 68C56 64.6863 53.3137 62 50 62C46.6863 62 44 64.6863 44 68C44 71.3137 46.6863 74 50 74ZM54 98C54 100.209 52.2091 102 50 102C47.7909 102 46 100.209 46 98C46 95.7909 47.7909 94 50 94C52.2091 94 54 95.7909 54 98ZM60 98C60 103.523 55.5228 108 50 108C44.4772 108 40 103.523 40 98C40 92.4772 44.4772 88 50 88C55.5228 88 60 92.4772 60 98Z" fill="white"/>
<path fill-rule="evenodd" clip-rule="evenodd" d="M84 42H104C105.105 42 106 42.8954 106 44V76C106 77.1046 105.105 78 104 78H84C82.8954 78 82 77.1046 82 76V44C82 42.8954 82.8954 42 84 42ZM76 44C76 39.5817 79.5817 36 84 36H104C108.418 36 112 39.5817 112 44V76C112 80.4183 108.418 84 104 84H84C79.5817 84 76 80.4183 76 76V44ZM100 52C100 55.3137 97.3137 58 94 58C90.6863 58 88 55.3137 88 52C88 48.6863 90.6863 46 94 46C97.3137 46 100 48.6863 100 52ZM94 74C97.3137 74 100 71.3137 100 68C100 64.6863 97.3137 62 94 62C90.6863 62 88 64.6863 88 68C88 71.3137 90.6863 74 94 74ZM94 108C99.5228 108 104 103.523 104 98C104 92.4772 99.5228 88 94 88C88.4772 88 84 92.4772 84 98C84 103.523 88.4772 108 94 108Z" fill="#3BB455"/>
</svg>
