<svg width="144" height="144" viewBox="0 0 144 144" fill="none" xmlns="http://www.w3.org/2000/svg">
<path fill-rule="evenodd" clip-rule="evenodd" d="M72 66C76.1421 66 79.5 62.6421 79.5 58.5C79.5 54.3579 76.1421 51 72 51C67.8579 51 64.5 54.3579 64.5 58.5C64.5 62.6421 67.8579 66 72 66ZM72 61.5C73.6569 61.5 75 60.1569 75 58.5C75 56.8431 73.6569 55.5 72 55.5C70.3431 55.5 69 56.8431 69 58.5C69 60.1569 70.3431 61.5 72 61.5Z" fill="white"/>
<path fill-rule="evenodd" clip-rule="evenodd" d="M84 81C84 87.6274 78.6274 93 72 93C65.3726 93 60 87.6274 60 81C60 74.3726 65.3726 69 72 69C78.6274 69 84 74.3726 84 81ZM79.5 81C79.5 85.1421 76.1421 88.5 72 88.5C67.8579 88.5 64.5 85.1421 64.5 81C64.5 76.8579 67.8579 73.5 72 73.5C76.1421 73.5 79.5 76.8579 79.5 81Z" fill="white"/>
<path fill-rule="evenodd" clip-rule="evenodd" d="M54 42C50.6863 42 48 44.6863 48 48V96C48 99.3137 50.6863 102 54 102H90C93.3137 102 96 99.3137 96 96V48C96 44.6863 93.3137 42 90 42H54ZM90 46.5H54C53.1716 46.5 52.5 47.1716 52.5 48V96C52.5 96.8284 53.1716 97.5 54 97.5H90C90.8284 97.5 91.5 96.8284 91.5 96V48C91.5 47.1716 90.8284 46.5 90 46.5Z" fill="white"/>
</svg>
