<svg width="144" height="144" viewBox="0 0 144 144" fill="none" xmlns="http://www.w3.org/2000/svg">
<path fill-rule="evenodd" clip-rule="evenodd" d="M54 42C50.6863 42 48 44.6863 48 48V96C48 99.3137 50.6863 102 54 102H74.4287C73.1497 100.667 72.0582 99.1531 71.1966 97.5H54C53.1716 97.5 52.5 96.8284 52.5 96V48C52.5 47.1716 53.1716 46.5 54 46.5H90C90.8284 46.5 91.5 47.1716 91.5 48V69.2293C93.0696 69.4717 94.5775 69.9013 96 70.4945V48C96 44.6863 93.3137 42 90 42H54ZM72 69C74.6866 69 77.167 69.8829 79.1669 71.3744C77.7314 72.1583 76.4053 73.1175 75.2174 74.2232C74.2424 73.7595 73.1515 73.5 72 73.5C67.8579 73.5 64.5 76.8579 64.5 81C64.5 84.0792 66.3556 86.725 69.0097 87.8801C69.0032 88.086 69 88.2926 69 88.5C69 89.9528 69.1589 91.3685 69.4602 92.7307C64.0526 91.5655 60 86.756 60 81C60 74.3726 65.3726 69 72 69ZM79.5 58.5C79.5 62.6421 76.1421 66 72 66C67.8579 66 64.5 62.6421 64.5 58.5C64.5 54.3579 67.8579 51 72 51C76.1421 51 79.5 54.3579 79.5 58.5ZM75 58.5C75 60.1569 73.6569 61.5 72 61.5C70.3431 61.5 69 60.1569 69 58.5C69 56.8431 70.3431 55.5 72 55.5C73.6569 55.5 75 56.8431 75 58.5ZM105 88.5C105 97.6127 97.6127 105 88.5 105C79.3873 105 72 97.6127 72 88.5C72 79.3873 79.3873 72 88.5 72C97.6127 72 105 79.3873 105 88.5ZM88.5001 80.6345C84.1561 80.6345 80.6345 84.1561 80.6345 88.5002V93.8158C80.6345 94.6442 79.9629 95.3158 79.1345 95.3158C78.3061 95.3158 77.6345 94.6442 77.6345 93.8158V88.5002C77.6345 82.4992 82.4992 77.6345 88.5001 77.6345C94.5011 77.6345 99.3658 82.4992 99.3658 88.5002V93.8158C99.3658 94.6442 98.6942 95.3158 97.8658 95.3158C97.0373 95.3158 96.3658 94.6442 96.3658 93.8158V88.5002C96.3658 84.1561 92.8442 80.6345 88.5001 80.6345ZM83.944 89.5129C82.546 89.5129 81.4127 90.6462 81.4127 92.0442V96.0942C81.4127 97.4922 82.546 98.6254 83.944 98.6254C85.3419 98.6254 86.4752 97.4922 86.4752 96.0942V92.0442C86.4752 90.6462 85.3419 89.5129 83.944 89.5129ZM90.5251 92.0442C90.5251 90.6462 91.6584 89.5129 93.0564 89.5129C94.4544 89.5129 95.5876 90.6462 95.5876 92.0442V96.0942C95.5876 97.4922 94.4544 98.6254 93.0564 98.6254C91.6584 98.6254 90.5251 97.4922 90.5251 96.0942V92.0442Z" fill="white"/>
</svg>
