<svg width="144" height="144" viewBox="0 0 144 144" fill="none" xmlns="http://www.w3.org/2000/svg">
<path fill-rule="evenodd" clip-rule="evenodd" d="M48 48C48 47.682 48.0247 47.3697 48.0724 47.0651L52.5 51.4926V96C52.5 96.8284 53.1716 97.5 54 97.5H71.1966C72.0582 99.1531 73.1497 100.667 74.4287 102H54C50.6863 102 48 99.3137 48 96V48ZM96 70.4945V48C96 44.6863 93.3137 42 90 42H54C53.2531 42 52.5381 42.1365 51.8785 42.3858L55.9926 46.5H90C90.8284 46.5 91.5 47.1716 91.5 48V69.2293C93.0696 69.4717 94.5775 69.9013 96 70.4945ZM75.2242 74.2169L70.1492 69.1419C64.4005 70.0318 60 75.002 60 81C60 86.756 64.0526 91.5655 69.4602 92.7307C69.1589 91.3685 69 89.9528 69 88.5C69 88.2926 69.0032 88.086 69.0097 87.8801C66.3556 86.725 64.5 84.0792 64.5 81C64.5 76.8579 67.8579 73.5 72 73.5C73.1515 73.5 74.2424 73.7595 75.2174 74.2232C75.2197 74.2211 75.222 74.219 75.2242 74.2169ZM70.6944 61.2018L74.908 65.4154C77.6059 64.2795 79.5 61.611 79.5 58.5C79.5 54.3579 76.1421 51 72 51C68.889 51 66.2205 52.8941 65.0846 55.592L69.2982 59.8056C69.5926 60.4137 70.0863 60.9074 70.6944 61.2018ZM70.6944 61.2018C71.0891 61.3929 71.532 61.5 72 61.5C73.6569 61.5 75 60.1569 75 58.5C75 56.8431 73.6569 55.5 72 55.5C70.3431 55.5 69 56.8431 69 58.5C69 58.968 69.1071 59.4109 69.2982 59.8056L70.6944 61.2018Z" fill="white"/>
<path fill-rule="evenodd" clip-rule="evenodd" d="M44.841 42.659C43.9623 41.7803 42.5377 41.7803 41.659 42.659C40.7803 43.5377 40.7803 44.9623 41.659 45.841L72.779 76.9609C73.6715 75.747 74.7013 74.6402 75.8454 73.6634L44.841 42.659Z" fill="#E12A40"/>
<path fill-rule="evenodd" clip-rule="evenodd" d="M88.5 105C97.6127 105 105 97.6127 105 88.5C105 79.3873 97.6127 72 88.5 72C79.3873 72 72 79.3873 72 88.5C72 97.6127 79.3873 105 88.5 105ZM81.8709 81.8709C82.4567 81.2851 82.4567 80.3354 81.8709 79.7496C81.2851 79.1638 80.3353 79.1638 79.7496 79.7496C77.4288 82.0703 76.125 85.218 76.125 88.5C76.125 91.7821 77.4288 94.9297 79.7496 97.2505C80.3353 97.8363 81.2851 97.8363 81.8709 97.2505C82.4567 96.6647 82.4567 95.7149 81.8709 95.1291C80.1127 93.371 79.125 90.9864 79.125 88.5C79.125 86.0136 80.1127 83.629 81.8709 81.8709ZM85.0529 85.0529C85.6386 84.4671 85.6386 83.5173 85.0529 82.9316C84.4671 82.3458 83.5173 82.3458 82.9315 82.9316C81.4547 84.4084 80.625 86.4114 80.625 88.5C80.625 90.5886 81.4547 92.5916 82.9315 94.0685C83.5173 94.6543 84.4671 94.6543 85.0529 94.0685C85.6386 93.4827 85.6386 92.533 85.0529 91.9472C84.1386 91.0329 83.625 89.7929 83.625 88.5C83.625 87.2071 84.1386 85.9671 85.0529 85.0529ZM91.9471 94.0685C91.3614 93.4827 91.3614 92.533 91.9471 91.9472C92.8614 91.0329 93.375 89.793 93.375 88.5C93.375 87.2071 92.8614 85.9671 91.9471 85.0529C91.3614 84.4671 91.3614 83.5173 91.9471 82.9316C92.5329 82.3458 93.4827 82.3458 94.0685 82.9316C95.5453 84.4084 96.375 86.4114 96.375 88.5C96.375 90.5886 95.5453 92.5916 94.0685 94.0685C93.4827 94.6543 92.5329 94.6543 91.9471 94.0685ZM95.1291 95.1291C94.5433 95.7149 94.5433 96.6647 95.1291 97.2505C95.7149 97.8363 96.6647 97.8363 97.2505 97.2505C99.5712 94.9297 100.875 91.7821 100.875 88.5C100.875 85.218 99.5712 82.0703 97.2504 79.7496C96.6647 79.1638 95.7149 79.1638 95.1291 79.7496C94.5433 80.3354 94.5433 81.2851 95.1291 81.8709C96.8873 83.629 97.875 86.0136 97.875 88.5C97.875 90.9864 96.8873 93.371 95.1291 95.1291ZM91.875 88.5C91.875 90.364 90.364 91.875 88.5 91.875C86.636 91.875 85.125 90.364 85.125 88.5C85.125 86.6361 86.636 85.125 88.5 85.125C90.364 85.125 91.875 86.6361 91.875 88.5Z" fill="white"/>
</svg>
