<svg width="144" height="144" viewBox="0 0 144 144" fill="none" xmlns="http://www.w3.org/2000/svg">
<g>
<path fill-rule="evenodd" clip-rule="evenodd" d="M88.5 105C97.6127 105 105 97.6127 105 88.5C105 79.3873 97.6127 72 88.5 72C79.3873 72 72 79.3873 72 88.5C72 97.6127 79.3873 105 88.5 105ZM95.1291 95.1292C94.5433 95.715 94.5433 96.6647 95.1291 97.2505C95.7149 97.8363 96.6647 97.8363 97.2504 97.2505C99.5712 94.9298 100.875 91.7821 100.875 88.5001C100.875 85.218 99.5712 82.0704 97.2504 79.7496C96.6647 79.1639 95.7149 79.1639 95.1291 79.7496C94.5433 80.3354 94.5433 81.2852 95.1291 81.871C96.8873 83.6291 97.875 86.0137 97.875 88.5001C97.875 90.9865 96.8873 93.3711 95.1291 95.1292ZM81.8709 81.871C82.4567 81.2852 82.4567 80.3354 81.8709 79.7496C81.2851 79.1639 80.3353 79.1639 79.7496 79.7496C77.4288 82.0704 76.125 85.218 76.125 88.5001C76.125 91.7821 77.4288 94.9298 79.7496 97.2505C80.3353 97.8363 81.2851 97.8363 81.8709 97.2505C82.4567 96.6647 82.4567 95.715 81.8709 95.1292C80.1127 93.3711 79.125 90.9865 79.125 88.5001C79.125 86.0137 80.1127 83.6291 81.8709 81.871ZM85.0529 85.0529C85.6386 84.4672 85.6386 83.5174 85.0529 82.9316C84.4671 82.3458 83.5173 82.3458 82.9315 82.9316C81.4547 84.4085 80.625 86.4115 80.625 88.5001C80.625 90.5887 81.4547 92.5917 82.9315 94.0686C83.5173 94.6543 84.4671 94.6543 85.0529 94.0686C85.6386 93.4828 85.6386 92.533 85.0529 91.9472C84.1386 91.033 83.625 89.793 83.625 88.5001C83.625 87.2072 84.1386 85.9672 85.0529 85.0529ZM91.9471 94.0686C91.3614 93.4828 91.3614 92.533 91.9471 91.9472C92.8614 91.033 93.375 89.793 93.375 88.5001C93.375 87.2072 92.8614 85.9672 91.9471 85.0529C91.3614 84.4672 91.3614 83.5174 91.9471 82.9316C92.5329 82.3458 93.4827 82.3458 94.0685 82.9316C95.5453 84.4085 96.375 86.4115 96.375 88.5001C96.375 90.5887 95.5453 92.5917 94.0685 94.0686C93.4827 94.6543 92.5329 94.6543 91.9471 94.0686ZM91.875 88.5001C91.875 90.364 90.364 91.8751 88.5 91.8751C86.636 91.8751 85.125 90.364 85.125 88.5001C85.125 86.6361 86.636 85.1251 88.5 85.1251C90.364 85.1251 91.875 86.6361 91.875 88.5001Z" fill="white"/>
<path fill-rule="evenodd" clip-rule="evenodd" d="M48 48C48 44.6863 50.6863 42 54 42H90C93.3137 42 96 44.6863 96 48V70.4945C94.5775 69.9013 93.0696 69.4717 91.5 69.2293V48C91.5 47.1716 90.8284 46.5 90 46.5H54C53.1716 46.5 52.5 47.1716 52.5 48V96C52.5 96.8284 53.1716 97.5 54 97.5H71.1966C72.0582 99.1531 73.1497 100.667 74.4287 102H54C50.6863 102 48 99.3137 48 96V48ZM79.1669 71.3744C77.167 69.8829 74.6866 69 72 69C65.3726 69 60 74.3726 60 81C60 86.756 64.0526 91.5655 69.4602 92.7307C69.1589 91.3685 69 89.9528 69 88.5C69 88.2926 69.0032 88.086 69.0097 87.8801C66.3556 86.725 64.5 84.0792 64.5 81C64.5 76.8579 67.8579 73.5 72 73.5C73.1515 73.5 74.2424 73.7595 75.2174 74.2232C76.4053 73.1175 77.7314 72.1583 79.1669 71.3744ZM72 66C76.1421 66 79.5 62.6421 79.5 58.5C79.5 54.3579 76.1421 51 72 51C67.8579 51 64.5 54.3579 64.5 58.5C64.5 62.6421 67.8579 66 72 66ZM72 61.5C73.6569 61.5 75 60.1569 75 58.5C75 56.8431 73.6569 55.5 72 55.5C70.3431 55.5 69 56.8431 69 58.5C69 60.1569 70.3431 61.5 72 61.5Z" fill="white"/>
</g>
</svg>
