<svg width="144" height="144" viewBox="0 0 144 144" fill="none" xmlns="http://www.w3.org/2000/svg">
<path fill-rule="evenodd" clip-rule="evenodd" d="M48 48C48 47.682 48.0247 47.3697 48.0724 47.0651L52.5 51.4926V96C52.5 96.8284 53.1716 97.5 54 97.5H71.1966C72.0582 99.1531 73.1497 100.667 74.4287 102H54C50.6863 102 48 99.3137 48 96V48ZM96 70.4945V48C96 44.6863 93.3137 42 90 42H54C53.2531 42 52.5381 42.1365 51.8785 42.3858L55.9926 46.5H90C90.8284 46.5 91.5 47.1716 91.5 48V69.2293C93.0696 69.4717 94.5775 69.9013 96 70.4945ZM75.2242 74.2169L70.1492 69.1419C64.4005 70.0318 60 75.002 60 81C60 86.756 64.0526 91.5655 69.4602 92.7307C69.1589 91.3685 69 89.9528 69 88.5C69 88.2926 69.0032 88.086 69.0097 87.8801C66.3556 86.725 64.5 84.0792 64.5 81C64.5 76.8579 67.8579 73.5 72 73.5C73.1515 73.5 74.2424 73.7595 75.2174 74.2232C75.2197 74.2211 75.222 74.219 75.2242 74.2169ZM70.6944 61.2018L74.908 65.4154C77.6059 64.2795 79.5 61.611 79.5 58.5C79.5 54.3579 76.1421 51 72 51C68.889 51 66.2205 52.8941 65.0846 55.592L69.2982 59.8056C69.5926 60.4137 70.0863 60.9074 70.6944 61.2018ZM70.6944 61.2018C71.0891 61.3929 71.532 61.5 72 61.5C73.6569 61.5 75 60.1569 75 58.5C75 56.8431 73.6569 55.5 72 55.5C70.3431 55.5 69 56.8431 69 58.5C69 58.968 69.1071 59.4109 69.2982 59.8056L70.6944 61.2018Z" fill="white"/>
<path fill-rule="evenodd" clip-rule="evenodd" d="M44.841 42.659C43.9623 41.7803 42.5377 41.7803 41.659 42.659C40.7803 43.5377 40.7803 44.9623 41.659 45.841L72.779 76.9609C73.6715 75.747 74.7013 74.6402 75.8454 73.6634L44.841 42.659Z" fill="#E12A40"/>
<path fill-rule="evenodd" clip-rule="evenodd" d="M88.5 105C97.6127 105 105 97.6127 105 88.5C105 79.3873 97.6127 72 88.5 72C79.3873 72 72 79.3873 72 88.5C72 97.6127 79.3873 105 88.5 105ZM80.6344 88.5C80.6344 84.1559 84.1559 80.6344 88.5 80.6344C92.8441 80.6344 96.3656 84.1559 96.3656 88.5V93.8156C96.3656 94.6441 97.0372 95.3156 97.8656 95.3156C98.694 95.3156 99.3656 94.6441 99.3656 93.8156V88.5C99.3656 82.4991 94.5009 77.6344 88.5 77.6344C82.4991 77.6344 77.6344 82.4991 77.6344 88.5V93.8156C77.6344 94.6441 78.3059 95.3156 79.1344 95.3156C79.9628 95.3156 80.6344 94.6441 80.6344 93.8156V88.5ZM81.4125 92.0437C81.4125 90.6458 82.5458 89.5125 83.9438 89.5125C85.3417 89.5125 86.475 90.6458 86.475 92.0437V96.0937C86.475 97.4917 85.3417 98.625 83.9438 98.625C82.5458 98.625 81.4125 97.4917 81.4125 96.0938V92.0437ZM93.0563 89.5125C91.6583 89.5125 90.525 90.6458 90.525 92.0437V96.0938C90.525 97.4917 91.6583 98.625 93.0563 98.625C94.4542 98.625 95.5875 97.4917 95.5875 96.0937V92.0437C95.5875 90.6458 94.4542 89.5125 93.0563 89.5125Z" fill="white"/>
</svg>
