<svg width="144" height="144" viewBox="0 0 144 144" fill="none" xmlns="http://www.w3.org/2000/svg">
<path d="M51.8475 48.6656C52.7261 49.5443 52.7261 50.9689 51.8475 51.8476C49.201 54.4941 47.1017 57.6359 45.6694 61.0936C44.2372 64.5514 43.5 68.2575 43.5 72.0001C43.5 75.7428 44.2372 79.4488 45.6694 82.9066C47.1017 86.3644 49.201 89.5062 51.8475 92.1527C52.7261 93.0314 52.7261 94.456 51.8475 95.3347C50.9688 96.2133 49.5442 96.2133 48.6655 95.3347C45.6011 92.2703 43.1704 88.6324 41.512 84.6287C39.8536 80.6249 39 76.3337 39 72.0001C39 67.6665 39.8536 63.3753 41.512 59.3716C43.1704 55.3678 45.6011 51.7299 48.6655 48.6656C49.5442 47.7869 50.9688 47.7869 51.8475 48.6656Z" fill="white"/>
<path d="M60.3327 57.1509C61.2114 58.0296 61.2114 59.4542 60.3327 60.3329C58.8006 61.865 57.5852 63.684 56.756 65.6859C55.9268 67.6877 55.5 69.8333 55.5 72.0001C55.5 74.1669 55.9268 76.3125 56.756 78.3144C57.5852 80.3163 58.8006 82.1352 60.3327 83.6674C61.2114 84.5461 61.2114 85.9707 60.3327 86.8494C59.4541 87.7281 58.0294 87.7281 57.1508 86.8494C55.2007 84.8993 53.6539 82.5843 52.5985 80.0365C51.5432 77.4886 51 74.7579 51 72.0001C51 69.2424 51.5432 66.5116 52.5985 63.9638C53.6539 61.4159 55.2007 59.1009 57.1508 57.1509C58.0294 56.2722 59.4541 56.2722 60.3327 57.1509Z" fill="white"/>
<path fill-rule="evenodd" clip-rule="evenodd" d="M72 81.0001C76.9706 81.0001 81 76.9707 81 72.0001C81 67.0296 76.9706 63.0001 72 63.0001C67.0294 63.0001 63 67.0296 63 72.0001C63 76.9707 67.0294 81.0001 72 81.0001ZM72 76.5001C74.4853 76.5001 76.5 74.4854 76.5 72.0001C76.5 69.5148 74.4853 67.5001 72 67.5001C69.5147 67.5001 67.5 69.5148 67.5 72.0001C67.5 74.4854 69.5147 76.5001 72 76.5001Z" fill="white"/>
<path d="M83.6673 83.6674C82.7886 84.5461 82.7886 85.9707 83.6673 86.8494C84.5459 87.7281 85.9706 87.7281 86.8492 86.8494C88.7993 84.8993 90.3461 82.5843 91.4015 80.0365C92.4568 77.4886 93 74.7579 93 72.0001C93 69.2424 92.4568 66.5116 91.4015 63.9638C90.3461 61.4159 88.7993 59.1009 86.8492 57.1509C85.9706 56.2722 84.5459 56.2722 83.6673 57.1509C82.7886 58.0296 82.7886 59.4542 83.6673 60.3329C85.1994 61.865 86.4148 63.684 87.244 65.6859C88.0732 67.6877 88.5 69.8333 88.5 72.0001C88.5 74.1669 88.0732 76.3125 87.244 78.3144C86.4148 80.3163 85.1994 82.1352 83.6673 83.6674Z" fill="white"/>
<path d="M92.1525 92.1527C91.2739 93.0314 91.2739 94.456 92.1525 95.3347C93.0312 96.2133 94.4558 96.2133 95.3345 95.3347C98.3989 92.2703 100.83 88.6324 102.488 84.6287C104.146 80.6249 105 76.3338 105 72.0001C105 67.6665 104.146 63.3753 102.488 59.3716C100.83 55.3678 98.3989 51.7299 95.3345 48.6656C94.4558 47.7869 93.0312 47.7869 92.1525 48.6656C91.2739 49.5443 91.2739 50.9689 92.1525 51.8476C94.799 54.4941 96.8983 57.6359 98.3306 61.0937C99.7628 64.5514 100.5 68.2575 100.5 72.0001C100.5 75.7428 99.7628 79.4488 98.3306 82.9066C96.8983 86.3644 94.799 89.5062 92.1525 92.1527Z" fill="white"/>
</svg>
