<svg width="40" height="40" viewBox="0 0 40 40" fill="none" xmlns="http://www.w3.org/2000/svg">
<g>
<path d="M20 10C24.1011 10 27.6255 12.4687 29.1684 16.0011C29.1123 16.0004 29.0562 16 29 16C21.8203 16 16 21.8203 16 29C16 29.0562 16.0004 29.1123 16.0011 29.1684C12.4687 27.6255 10 24.1011 10 20C10 14.4772 14.4772 10 20 10Z" fill="white"/>
<path d="M3 20C3 28.9566 9.92647 36.2954 18.7151 36.9522C19.6104 38.1084 20.6963 39.1095 21.9258 39.9085C21.292 39.969 20.6496 40 20 40C8.9543 40 0 31.0457 0 20C0 8.9543 8.9543 0 20 0C31.0457 0 40 8.9543 40 20C40 20.6496 39.969 21.292 39.9085 21.9258C39.1095 20.6963 38.1084 19.6104 36.9522 18.7151C36.2954 9.92647 28.9566 3 20 3C10.6112 3 3 10.6112 3 20Z" fill="white"/>
<path fill-rule="evenodd" clip-rule="evenodd" d="M40 29C40 35.0751 35.0751 40 29 40C22.9249 40 18 35.0751 18 29C18 22.9249 22.9249 18 29 18C35.0751 18 40 22.9249 40 29ZM29 23.7563C26.104 23.7563 23.7563 26.104 23.7563 29V32.5438C23.7563 33.096 23.3085 33.5438 22.7563 33.5438C22.204 33.5438 21.7563 33.096 21.7563 32.5438V29C21.7563 24.9994 24.9994 21.7563 29 21.7563C33.0006 21.7563 36.2438 24.9994 36.2438 29V32.5438C36.2438 33.096 35.796 33.5438 35.2438 33.5438C34.6915 33.5438 34.2438 33.096 34.2438 32.5438V29C34.2438 26.104 31.896 23.7563 29 23.7563ZM25.9625 29.675C25.0305 29.675 24.275 30.4305 24.275 31.3625V34.0625C24.275 34.9945 25.0305 35.75 25.9625 35.75C26.8945 35.75 27.65 34.9945 27.65 34.0625V31.3625C27.65 30.4305 26.8945 29.675 25.9625 29.675ZM30.35 31.3625C30.35 30.4305 31.1055 29.675 32.0375 29.675C32.9695 29.675 33.725 30.4305 33.725 31.3625V34.0625C33.725 34.9945 32.9695 35.75 32.0375 35.75C31.1055 35.75 30.35 34.9945 30.35 34.0625V31.3625Z" fill="white"/>
</g>
</svg>
