<svg width="40" height="40" viewBox="0 0 40 40" fill="none" xmlns="http://www.w3.org/2000/svg">
<g>
<path fill-rule="evenodd" clip-rule="evenodd" d="M20 40C20.6496 40 21.292 39.969 21.9258 39.9085C20.6963 39.1095 19.6104 38.1084 18.7151 36.9522C9.92647 36.2954 3 28.9566 3 20C3 15.0075 5.15208 10.5177 8.57916 7.40759L6.58579 5.41421C6.54202 5.37044 6.5007 5.32515 6.46184 5.2785C2.48925 8.93366 0 14.1761 0 20C0 31.0457 8.9543 40 20 40ZM10 20C10 24.1011 12.4687 27.6255 16.0011 29.1684C16.0004 29.1123 16 29.0562 16 29C16 25.112 17.7068 21.6227 20.412 19.2404L13.5389 12.3673C11.3741 14.2016 10 16.9403 10 20ZM29 16C29.0562 16 29.1123 16.0004 29.1684 16.0011C27.6255 12.4687 24.1011 10 20 10C19.0353 10 18.1025 10.1366 17.2199 10.3915L23.8769 17.0484C25.4489 16.3737 27.1808 16 29 16ZM20 3C28.9566 3 36.2954 9.92647 36.9522 18.7151C38.1084 19.6104 39.1095 20.6963 39.9085 21.9258C39.969 21.292 40 20.6496 40 20C40 8.9543 31.0457 0 20 0C16.2277 0 12.6993 1.04439 9.68822 2.85979L11.8861 5.05764C14.2974 3.74549 17.0616 3 20 3ZM29 40C35.0751 40 40 35.0751 40 29C40 22.9249 35.0751 18 29 18C22.9249 18 18 22.9249 18 29C18 35.0751 22.9249 40 29 40ZM23.7563 29C23.7563 26.104 26.104 23.7563 29 23.7563C31.896 23.7563 34.2438 26.104 34.2438 29V32.5438C34.2438 33.096 34.6915 33.5438 35.2438 33.5438C35.796 33.5438 36.2438 33.096 36.2438 32.5438V29C36.2438 24.9994 33.0006 21.7563 29 21.7563C24.9994 21.7563 21.7563 24.9994 21.7563 29V32.5438C21.7563 33.096 22.204 33.5438 22.7563 33.5438C23.3085 33.5438 23.7563 33.096 23.7563 32.5438V29ZM24.275 31.3625C24.275 30.4305 25.0305 29.675 25.9625 29.675C26.8945 29.675 27.65 30.4305 27.65 31.3625V34.0625C27.65 34.9945 26.8945 35.75 25.9625 35.75C25.0305 35.75 24.275 34.9945 24.275 34.0625V31.3625ZM32.0375 29.675C31.1055 29.675 30.35 30.4305 30.35 31.3625V34.0625C30.35 34.9945 31.1055 35.75 32.0375 35.75C32.9695 35.75 33.725 34.9945 33.725 34.0625V31.3625C33.725 30.4305 32.9695 29.675 32.0375 29.675Z" fill="white"/>
<path fill-rule="evenodd" clip-rule="evenodd" d="M4.93934 4.93934C5.52513 4.35355 6.47487 4.35355 7.06066 4.93934L20.9293 18.808C20.1434 19.4312 19.4312 20.1434 18.808 20.9293L4.93934 7.06066C4.35355 6.47487 4.35355 5.52513 4.93934 4.93934Z" fill="#E12A40"/>
</g>
</svg>
