<svg width="40" height="40" viewBox="0 0 40 40" fill="none" xmlns="http://www.w3.org/2000/svg">
<g>
<path d="M20 10C24.1011 10 27.6255 12.4687 29.1684 16.0011C29.1123 16.0004 29.0562 16 29 16C21.8203 16 16 21.8203 16 29C16 29.0562 16.0004 29.1123 16.0011 29.1684C12.4687 27.6255 10 24.1011 10 20C10 14.4772 14.4772 10 20 10Z" fill="white"/>
<path d="M3 20C3 28.9566 9.92647 36.2954 18.7151 36.9522C19.6104 38.1084 20.6963 39.1095 21.9258 39.9085C21.292 39.969 20.6496 40 20 40C8.9543 40 0 31.0457 0 20C0 8.9543 8.9543 0 20 0C31.0457 0 40 8.9543 40 20C40 20.6496 39.969 21.292 39.9085 21.9258C39.1095 20.6963 38.1084 19.6104 36.9522 18.7151C36.2954 9.92647 28.9566 3 20 3C10.6112 3 3 10.6112 3 20Z" fill="white"/>
<path fill-rule="evenodd" clip-rule="evenodd" d="M40 29C40 35.0751 35.0751 40 29 40C22.9249 40 18 35.0751 18 29C18 22.9249 22.9249 18 29 18C35.0751 18 40 22.9249 40 29ZM24.5806 23.1664C24.9711 23.5569 24.9711 24.1901 24.5806 24.5806C23.4085 25.7527 22.75 27.3424 22.75 29C22.75 30.6576 23.4085 32.2473 24.5806 33.4194C24.9711 33.81 24.9711 34.4431 24.5806 34.8336C24.1901 35.2242 23.5569 35.2242 23.1664 34.8336C21.6192 33.2865 20.75 31.188 20.75 29C20.75 26.812 21.6192 24.7136 23.1664 23.1664C23.5569 22.7759 24.1901 22.7759 24.5806 23.1664ZM26.7019 25.2877C27.0924 25.6782 27.0924 26.3114 26.7019 26.7019C26.0924 27.3114 25.75 28.1381 25.75 29C25.75 29.862 26.0924 30.6886 26.7019 31.2981C27.0924 31.6886 27.0924 32.3218 26.7019 32.7123C26.3114 33.1028 25.6782 33.1028 25.2877 32.7123C24.3031 31.7278 23.75 30.3924 23.75 29C23.75 27.6076 24.3031 26.2723 25.2877 25.2877C25.6782 24.8972 26.3114 24.8972 26.7019 25.2877ZM31.2981 31.2981C30.9076 31.6886 30.9076 32.3218 31.2981 32.7123C31.6886 33.1029 32.3218 33.1029 32.7123 32.7123C33.6969 31.7278 34.25 30.3924 34.25 29C34.25 27.6076 33.6969 26.2723 32.7123 25.2877C32.3218 24.8972 31.6886 24.8972 31.2981 25.2877C30.9076 25.6782 30.9076 26.3114 31.2981 26.7019C31.9076 27.3114 32.25 28.1381 32.25 29C32.25 29.862 31.9076 30.6886 31.2981 31.2981ZM33.4194 34.8336C33.0289 34.4431 33.0289 33.81 33.4194 33.4194C34.5915 32.2473 35.25 30.6576 35.25 29C35.25 27.3424 34.5915 25.7527 33.4194 24.5806C33.0289 24.1901 33.0289 23.5569 33.4194 23.1664C33.8099 22.7759 34.4431 22.7759 34.8336 23.1664C36.3808 24.7136 37.25 26.812 37.25 29C37.25 31.188 36.3808 33.2865 34.8336 34.8336C34.4431 35.2242 33.8099 35.2242 33.4194 34.8336ZM29 31.25C30.2426 31.25 31.25 30.2427 31.25 29C31.25 27.7574 30.2426 26.75 29 26.75C27.7574 26.75 26.75 27.7574 26.75 29C26.75 30.2427 27.7574 31.25 29 31.25Z" fill="white"/>
</g>
</svg>
