<svg width="40" height="40" viewBox="0 0 40 40" fill="none" xmlns="http://www.w3.org/2000/svg">
<g>
<path fill-rule="evenodd" clip-rule="evenodd" d="M20 40C20.6496 40 21.292 39.969 21.9258 39.9085C20.6963 39.1095 19.6104 38.1084 18.7151 36.9522C9.92647 36.2954 3 28.9566 3 20C3 15.0075 5.15208 10.5177 8.57916 7.40759L6.58579 5.41421C6.54202 5.37044 6.5007 5.32515 6.46184 5.2785C2.48925 8.93366 0 14.1761 0 20C0 31.0457 8.9543 40 20 40ZM10 20C10 24.1011 12.4687 27.6255 16.0011 29.1684C16.0004 29.1123 16 29.0562 16 29C16 25.112 17.7068 21.6227 20.412 19.2404L13.5389 12.3673C11.3741 14.2016 10 16.9403 10 20ZM29 16C29.0562 16 29.1123 16.0004 29.1684 16.0011C27.6255 12.4687 24.1011 10 20 10C19.0353 10 18.1025 10.1366 17.2199 10.3915L23.8769 17.0484C25.4489 16.3737 27.1808 16 29 16ZM20 3C28.9566 3 36.2954 9.92647 36.9522 18.7151C38.1084 19.6104 39.1095 20.6963 39.9085 21.9258C39.969 21.292 40 20.6496 40 20C40 8.9543 31.0457 0 20 0C16.2277 0 12.6993 1.04439 9.68822 2.85979L11.8861 5.05764C14.2974 3.74549 17.0616 3 20 3ZM29 40C35.0751 40 40 35.0751 40 29C40 22.9249 35.0751 18 29 18C22.9249 18 18 22.9249 18 29C18 35.0751 22.9249 40 29 40ZM24.5806 24.5806C24.9711 24.1901 24.9711 23.5569 24.5806 23.1664C24.1901 22.7759 23.5569 22.7759 23.1664 23.1664C21.6192 24.7136 20.75 26.812 20.75 29C20.75 31.188 21.6192 33.2865 23.1664 34.8336C23.5569 35.2242 24.1901 35.2242 24.5806 34.8336C24.9711 34.4431 24.9711 33.81 24.5806 33.4194C23.4085 32.2473 22.75 30.6576 22.75 29C22.75 27.3424 23.4085 25.7527 24.5806 24.5806ZM26.7019 26.7019C27.0924 26.3114 27.0924 25.6782 26.7019 25.2877C26.3114 24.8972 25.6782 24.8972 25.2877 25.2877C24.3031 26.2723 23.75 27.6076 23.75 29C23.75 30.3924 24.3031 31.7278 25.2877 32.7123C25.6782 33.1028 26.3114 33.1028 26.7019 32.7123C27.0924 32.3218 27.0924 31.6886 26.7019 31.2981C26.0924 30.6886 25.75 29.862 25.75 29C25.75 28.1381 26.0924 27.3114 26.7019 26.7019ZM31.2981 32.7123C30.9076 32.3218 30.9076 31.6886 31.2981 31.2981C31.9076 30.6886 32.25 29.862 32.25 29C32.25 28.1381 31.9076 27.3114 31.2981 26.7019C30.9076 26.3114 30.9076 25.6782 31.2981 25.2877C31.6886 24.8972 32.3218 24.8972 32.7123 25.2877C33.6969 26.2723 34.25 27.6076 34.25 29C34.25 30.3924 33.6969 31.7278 32.7123 32.7123C32.3218 33.1029 31.6886 33.1029 31.2981 32.7123ZM33.4194 33.4194C33.0289 33.81 33.0289 34.4431 33.4194 34.8336C33.8099 35.2242 34.4431 35.2242 34.8336 34.8336C36.3808 33.2865 37.25 31.188 37.25 29C37.25 26.812 36.3808 24.7136 34.8336 23.1664C34.4431 22.7759 33.8099 22.7759 33.4194 23.1664C33.0289 23.5569 33.0289 24.1901 33.4194 24.5806C34.5915 25.7527 35.25 27.3424 35.25 29C35.25 30.6576 34.5915 32.2473 33.4194 33.4194ZM31.25 29C31.25 30.2427 30.2426 31.25 29 31.25C27.7574 31.25 26.75 30.2427 26.75 29C26.75 27.7574 27.7574 26.75 29 26.75C30.2426 26.75 31.25 27.7574 31.25 29Z" fill="white"/>
<path fill-rule="evenodd" clip-rule="evenodd" d="M7.06066 4.93934C6.47487 4.35355 5.52513 4.35355 4.93934 4.93934C4.35355 5.52513 4.35355 6.47487 4.93934 7.06066L18.808 20.9293C19.4312 20.1434 20.1434 19.4312 20.9293 18.808L7.06066 4.93934Z" fill="#E12A40"/>
</g>
</svg>
