<svg width="40" height="40" viewBox="0 0 40 40" fill="none" xmlns="http://www.w3.org/2000/svg">
<path fill-rule="evenodd" clip-rule="evenodd" d="M17.3803 21.5H15.0217C15.0669 23.0595 15.1819 24.5561 15.3563 25.9646C15.1234 26.9384 15 27.9548 15 29C15 33.6142 17.4039 37.6669 21.0277 39.9741C20.6873 39.9913 20.3447 40 20 40C8.9543 40 0 31.0457 0 20C0 8.9543 8.9543 0 20 0C31.0457 0 40 8.9543 40 20C40 21.1465 39.9035 22.2705 39.7182 23.3643C38.7851 21.4276 37.386 19.7577 35.6664 18.5H36.9347C36.3184 11.4501 31.399 5.63376 24.8182 3.69245C25.2651 4.5077 25.6624 5.42812 26.0114 6.4213C26.9317 9.04052 27.5774 12.3444 27.8521 16.0008C26.8257 16.0123 25.8279 16.1427 24.8718 16.3788C24.6198 12.8744 24.0114 9.77923 23.181 7.41575C22.6253 5.83407 21.9981 4.66088 21.3763 3.9123C20.7469 3.15469 20.2745 3 20 3C19.7255 3 19.2531 3.15469 18.6237 3.9123C18.0019 4.66088 17.3747 5.83407 16.819 7.41575C15.8246 10.2459 15.1486 14.1252 15.0217 18.5H20.3336C19.1944 19.3332 18.1959 20.3473 17.3803 21.5ZM3.06527 18.5H12.0205C12.1478 13.8544 12.8628 9.62554 13.9886 6.4213C14.3376 5.42812 14.7349 4.5077 15.1818 3.69245C8.60097 5.63376 3.68159 11.4501 3.06527 18.5ZM12.0205 21.5H3.06527C3.68159 28.5499 8.60097 34.3662 15.1818 36.3075C14.7349 35.4923 14.3376 34.5719 13.9886 33.5787C12.8628 30.3745 12.1478 26.1456 12.0205 21.5Z" fill="white"/>
<path fill-rule="evenodd" clip-rule="evenodd" d="M28 40C34.0751 40 39 35.0751 39 29C39 22.9249 34.0751 18 28 18C21.9249 18 17 22.9249 17 29C17 35.0751 21.9249 40 28 40ZM22.7562 29C22.7562 26.104 25.104 23.7562 28 23.7562C30.896 23.7562 33.2437 26.104 33.2437 29V32.5438C33.2437 33.096 33.6915 33.5438 34.2437 33.5438C34.796 33.5438 35.2437 33.096 35.2437 32.5438V29C35.2437 24.9994 32.0006 21.7562 28 21.7562C23.9994 21.7562 20.7562 24.9994 20.7562 29V32.5438C20.7562 33.096 21.204 33.5438 21.7562 33.5438C22.3085 33.5438 22.7562 33.096 22.7562 32.5438V29ZM23.275 31.3625C23.275 30.4305 24.0305 29.675 24.9625 29.675C25.8945 29.675 26.65 30.4305 26.65 31.3625V34.0625C26.65 34.9945 25.8945 35.75 24.9625 35.75C24.0305 35.75 23.275 34.9945 23.275 34.0625V31.3625ZM31.0375 29.675C30.1055 29.675 29.35 30.4305 29.35 31.3625V34.0625C29.35 34.9945 30.1055 35.75 31.0375 35.75C31.9695 35.75 32.725 34.9945 32.725 34.0625V31.3625C32.725 30.4305 31.9695 29.675 31.0375 29.675Z" fill="white"/>
</svg>
