<svg width="40" height="40" viewBox="0 0 40 40" fill="none" xmlns="http://www.w3.org/2000/svg">
<g>
<path fill-rule="evenodd" clip-rule="evenodd" d="M6.45571 5.28414C2.48669 8.93905 0 14.1791 0 20C0 31.0457 8.9543 40 20 40C20.3447 40 20.6873 39.9913 21.0277 39.9741C17.4039 37.6669 15 33.6142 15 29C15 27.9548 15.1234 26.9384 15.3563 25.9646C15.1819 24.5561 15.0669 23.0595 15.0217 21.5H17.3803C18.1048 20.476 18.9737 19.5614 19.9574 18.7858L19.6716 18.5H15.0217C15.0655 16.9895 15.1748 15.538 15.34 14.1685L12.697 11.5254C12.3227 13.671 12.0883 16.0264 12.0205 18.5H3.06527C3.44884 14.1125 5.49905 10.2028 8.57916 7.40759L6.45571 5.28414ZM40 20C40 21.1465 39.9035 22.2705 39.7182 23.3643C38.7851 21.4276 37.386 19.7577 35.6664 18.5H36.9347C36.3184 11.4501 31.399 5.63376 24.8182 3.69245C25.2651 4.5077 25.6624 5.42812 26.0114 6.4213C26.9317 9.04052 27.5774 12.3444 27.8521 16.0008C26.8257 16.0123 25.8279 16.1427 24.8718 16.3788C24.6198 12.8744 24.0114 9.77923 23.181 7.41575C22.6253 5.83407 21.9981 4.66088 21.3763 3.9123C20.7469 3.15469 20.2745 3 20 3C19.7255 3 19.2531 3.15469 18.6237 3.9123C18.0019 4.66088 17.3747 5.83407 16.819 7.41575C16.604 8.02756 16.404 8.68839 16.2211 9.39266L13.802 6.97352C13.8628 6.78626 13.9251 6.60214 13.9886 6.4213C14.3376 5.42812 14.7349 4.5077 15.1818 3.69245C14.0273 4.03301 12.924 4.49283 11.8861 5.05764L9.68822 2.85979C12.6993 1.04439 16.2277 0 20 0C31.0457 0 40 8.9543 40 20ZM12.0205 21.5H3.06527C3.68159 28.5499 8.60097 34.3662 15.1818 36.3075C14.7349 35.4923 14.3376 34.5719 13.9886 33.5787C12.8628 30.3745 12.1478 26.1456 12.0205 21.5ZM28 40C34.0751 40 39 35.0751 39 29C39 22.9249 34.0751 18 28 18C21.9249 18 17 22.9249 17 29C17 35.0751 21.9249 40 28 40ZM22.7563 29C22.7563 26.104 25.104 23.7563 28 23.7563C30.896 23.7563 33.2438 26.104 33.2438 29V32.5438C33.2438 33.096 33.6915 33.5438 34.2438 33.5438C34.796 33.5438 35.2438 33.096 35.2438 32.5438V29C35.2438 24.9994 32.0006 21.7563 28 21.7563C23.9994 21.7563 20.7563 24.9994 20.7563 29V32.5438C20.7563 33.096 21.204 33.5438 21.7563 33.5438C22.3085 33.5438 22.7563 33.096 22.7563 32.5438V29ZM23.275 31.3625C23.275 30.4305 24.0305 29.675 24.9625 29.675C25.8945 29.675 26.65 30.4305 26.65 31.3625V34.0625C26.65 34.9945 25.8945 35.75 24.9625 35.75C24.0305 35.75 23.275 34.9945 23.275 34.0625V31.3625ZM31.0375 29.675C30.1055 29.675 29.35 30.4305 29.35 31.3625V34.0625C29.35 34.9945 30.1055 35.75 31.0375 35.75C31.9695 35.75 32.725 34.9945 32.725 34.0625V31.3625C32.725 30.4305 31.9695 29.675 31.0375 29.675Z" fill="white"/>
<path fill-rule="evenodd" clip-rule="evenodd" d="M5.06066 2.93934C4.47487 2.35355 3.52513 2.35355 2.93934 2.93934C2.35355 3.52513 2.35355 4.47487 2.93934 5.06066L18.264 20.3853C18.9291 19.6341 19.6799 18.9605 20.501 18.3796L5.06066 2.93934ZM38.6204 36.499C38.0395 37.3201 37.3659 38.0709 36.6147 38.736L36.9393 39.0607C37.5251 39.6464 38.4749 39.6464 39.0607 39.0607C39.6464 38.4749 39.6464 37.5251 39.0607 36.9393L38.6204 36.499Z" fill="#E12A40"/>
</g>
</svg>
