<svg width="40" height="40" viewBox="0 0 40 40" fill="none" xmlns="http://www.w3.org/2000/svg">
<g>
<path fill-rule="evenodd" clip-rule="evenodd" d="M20 37C20.2745 37 20.7469 36.8453 21.3763 36.0877C21.9981 35.3391 22.6253 34.1659 23.181 32.5842C24.1754 29.7541 24.8514 25.8748 24.9783 21.5H15.0217C15.1486 25.8748 15.8246 29.7541 16.819 32.5842C17.3747 34.1659 18.0019 35.3391 18.6237 36.0877C19.2531 36.8453 19.7255 37 20 37ZM15.0217 18.5C15.1486 14.1252 15.8246 10.2459 16.819 7.41575C17.3747 5.83407 18.0019 4.66088 18.6237 3.9123C19.2531 3.15469 19.7255 3 20 3C20.2745 3 20.7469 3.15469 21.3763 3.9123C21.9981 4.66088 22.6253 5.83407 23.181 7.41575C24.1754 10.2459 24.8514 14.1252 24.9783 18.5H15.0217ZM27.9795 21.5C27.8522 26.1456 27.1372 30.3745 26.0114 33.5787C25.6624 34.5719 25.2651 35.4923 24.8182 36.3075C31.399 34.3662 36.3184 28.5499 36.9347 21.5H27.9795ZM36.9347 18.5H27.9795C27.8522 13.8544 27.1372 9.62554 26.0114 6.4213C25.6624 5.42812 25.2651 4.5077 24.8182 3.69245C31.399 5.63376 36.3184 11.4501 36.9347 18.5ZM12.0205 18.5H3.06527C3.68159 11.4501 8.60097 5.63376 15.1818 3.69245C14.7349 4.5077 14.3376 5.42812 13.9886 6.4213C12.8628 9.62554 12.1478 13.8544 12.0205 18.5ZM3.06527 21.5H12.0205C12.1478 26.1456 12.8628 30.3745 13.9886 33.5787C14.3376 34.5719 14.7349 35.4923 15.1818 36.3075C8.60097 34.3662 3.68159 28.5499 3.06527 21.5ZM40 20C40 8.9543 31.0457 0 20 0C8.9543 0 0 8.9543 0 20C0 31.0457 8.9543 40 20 40C31.0457 40 40 31.0457 40 20Z" fill="white"/>
</g>
</svg>
