<svg width="40" height="40" viewBox="0 0 40 40" fill="none" xmlns="http://www.w3.org/2000/svg">
    <path fill-rule="evenodd" clip-rule="evenodd"
          d="M17.3803 21.5H15.0217C15.0669 23.0595 15.1819 24.5561 15.3563 25.9646C15.1234 26.9384 15 27.9548 15 29C15 33.6142 17.4039 37.6669 21.0277 39.9741C20.6873 39.9913 20.3447 40 20 40C8.9543 40 0 31.0457 0 20C0 8.9543 8.9543 0 20 0C31.0457 0 40 8.9543 40 20C40 21.1465 39.9035 22.2705 39.7182 23.3643C38.7851 21.4276 37.386 19.7577 35.6664 18.5H36.9347C36.3184 11.4501 31.399 5.63376 24.8182 3.69245C25.2651 4.5077 25.6624 5.42812 26.0114 6.4213C26.9317 9.04052 27.5774 12.3444 27.8521 16.0008C26.8257 16.0123 25.8279 16.1427 24.8718 16.3788C24.6198 12.8744 24.0114 9.77923 23.181 7.41575C22.6253 5.83407 21.9981 4.66088 21.3763 3.9123C20.7469 3.15469 20.2745 3 20 3C19.7255 3 19.2531 3.15469 18.6237 3.9123C18.0019 4.66088 17.3747 5.83407 16.819 7.41575C15.8246 10.2459 15.1486 14.1252 15.0217 18.5H20.3336C19.1944 19.3332 18.1959 20.3473 17.3803 21.5ZM3.06527 18.5H12.0205C12.1478 13.8544 12.8628 9.62554 13.9886 6.4213C14.3376 5.42812 14.7349 4.5077 15.1818 3.69245C8.60097 5.63376 3.68159 11.4501 3.06527 18.5ZM12.0205 21.5H3.06527C3.68159 28.5499 8.60097 34.3662 15.1818 36.3075C14.7349 35.4923 14.3376 34.5719 13.9886 33.5787C12.8628 30.3745 12.1478 26.1456 12.0205 21.5Z"
          fill="white"/>
    <path fill-rule="evenodd" clip-rule="evenodd"
          d="M28 40C34.0751 40 39 35.0751 39 29C39 22.9249 34.0751 18 28 18C21.9249 18 17 22.9249 17 29C17 35.0751 21.9249 40 28 40ZM23.5806 24.5806C23.9711 24.1901 23.9711 23.5569 23.5806 23.1664C23.1901 22.7759 22.5569 22.7759 22.1664 23.1664C20.6192 24.7136 19.75 26.812 19.75 29C19.75 31.188 20.6192 33.2865 22.1664 34.8336C22.5569 35.2242 23.1901 35.2242 23.5806 34.8336C23.9711 34.4431 23.9711 33.81 23.5806 33.4194C22.4085 32.2473 21.75 30.6576 21.75 29C21.75 27.3424 22.4085 25.7527 23.5806 24.5806ZM25.7019 26.7019C26.0924 26.3114 26.0924 25.6782 25.7019 25.2877C25.3114 24.8972 24.6782 24.8972 24.2877 25.2877C23.3031 26.2723 22.75 27.6076 22.75 29C22.75 30.3924 23.3031 31.7278 24.2877 32.7123C24.6782 33.1028 25.3114 33.1028 25.7019 32.7123C26.0924 32.3218 26.0924 31.6886 25.7019 31.2981C25.0924 30.6886 24.75 29.862 24.75 29C24.75 28.1381 25.0924 27.3114 25.7019 26.7019ZM30.2981 32.7123C29.9076 32.3218 29.9076 31.6886 30.2981 31.2981C30.9076 30.6886 31.25 29.862 31.25 29C31.25 28.1381 30.9076 27.3114 30.2981 26.7019C29.9076 26.3114 29.9076 25.6782 30.2981 25.2877C30.6886 24.8972 31.3218 24.8972 31.7123 25.2877C32.6969 26.2723 33.25 27.6076 33.25 29C33.25 30.3924 32.6969 31.7278 31.7123 32.7123C31.3218 33.1028 30.6886 33.1028 30.2981 32.7123ZM32.4194 33.4194C32.0289 33.81 32.0289 34.4431 32.4194 34.8336C32.8099 35.2242 33.4431 35.2242 33.8336 34.8336C35.3808 33.2865 36.25 31.188 36.25 29C36.25 26.812 35.3808 24.7136 33.8336 23.1664C33.4431 22.7759 32.8099 22.7759 32.4194 23.1664C32.0289 23.5569 32.0289 24.1901 32.4194 24.5806C33.5915 25.7527 34.25 27.3424 34.25 29C34.25 30.6576 33.5915 32.2473 32.4194 33.4194ZM30.25 29C30.25 30.2427 29.2426 31.25 28 31.25C26.7574 31.25 25.75 30.2427 25.75 29C25.75 27.7574 26.7574 26.75 28 26.75C29.2426 26.75 30.25 27.7574 30.25 29Z"
          fill="white"/>
</svg>
