<svg width="24" height="40" viewBox="0 0 24 40" fill="none" xmlns="http://www.w3.org/2000/svg">
<path fill-rule="evenodd" clip-rule="evenodd" d="M6 6C6 2.68629 8.68629 0 12 0C15.3137 0 18 2.68629 18 6V20C18 23.3137 15.3137 26 12 26C8.68629 26 6 23.3137 6 20V6ZM15 6V20C15 21.6569 13.6569 23 12 23C10.3431 23 9 21.6569 9 20V6C9 4.34315 10.3431 3 12 3C13.6569 3 15 4.34315 15 6Z" fill="white"/>
<path d="M3 20C3 19.1716 2.32843 18.5 1.5 18.5C0.671573 18.5 0 19.1716 0 20C0 23.1826 1.26428 26.2348 3.51472 28.4853C5.40866 30.3792 7.8705 31.5747 10.5 31.9059V37H7.5C6.67157 37 6 37.6716 6 38.5C6 39.3284 6.67157 40 7.5 40H16.5C17.3284 40 18 39.3284 18 38.5C18 37.6716 17.3284 37 16.5 37H13.5V31.9059C16.1295 31.5747 18.5913 30.3792 20.4853 28.4853C22.7357 26.2348 24 23.1826 24 20C24 19.1716 23.3284 18.5 22.5 18.5C21.6716 18.5 21 19.1716 21 20C21 22.387 20.0518 24.6761 18.364 26.364C16.6761 28.0518 14.3869 29 12 29C9.61305 29 7.32387 28.0518 5.63604 26.364C3.94821 24.6761 3 22.3869 3 20Z" fill="white"/>
</svg>
