<svg width="40" height="40" viewBox="0 0 40 40" fill="none" xmlns="http://www.w3.org/2000/svg">
<g>
<path d="M13.7708 13C13.7708 12.1716 13.1273 11.5 12.3333 11.5C11.5394 11.5 10.8958 12.1716 10.8958 13V14.5H9.45834C8.66443 14.5 8.02084 15.1716 8.02084 16C8.02084 16.8284 8.66443 17.5 9.45834 17.5H10.8958V19C10.8958 19.8284 11.5394 20.5 12.3333 20.5C13.1273 20.5 13.7708 19.8284 13.7708 19V17.5H15.2083C16.0023 17.5 16.6458 16.8284 16.6458 16C16.6458 15.1716 16.0023 14.5 15.2083 14.5H13.7708V13Z" fill="white"/>
<path d="M27.6667 19C29.2545 19 30.5417 17.6569 30.5417 16C30.5417 14.3431 29.2545 13 27.6667 13C26.0789 13 24.7917 14.3431 24.7917 16C24.7917 17.6569 26.0789 19 27.6667 19Z" fill="white"/>
<path fill-rule="evenodd" clip-rule="evenodd" d="M29.8448 31.6972L25.75 26H14.25L10.1552 31.6972C9.11322 33.1468 7.47798 34 5.7414 34C2.2289 34 -0.389319 30.6205 0.346653 27.0366L4.01736 9.16189C4.39609 7.3176 5.95804 6 7.7656 6H32.2344C34.042 6 35.6039 7.3176 35.9827 9.16188L39.6534 27.0366C40.3893 30.6205 37.7711 34 34.2586 34C32.522 34 30.8868 33.1468 29.8448 31.6972ZM12.8125 23L7.85517 29.8972C7.35618 30.5914 6.57306 31 5.7414 31C4.05925 31 2.80537 29.3815 3.15783 27.6652L6.82854 9.79047C6.92323 9.3294 7.31371 9 7.7656 9H32.2344C32.6863 9 33.0768 9.3294 33.1715 9.79047L36.8422 27.6652C37.1946 29.3815 35.9408 31 34.2586 31C33.427 31 32.6438 30.5914 32.1448 29.8972L27.1875 23H12.8125Z" fill="white"/>
</g>
</svg>
