<svg width="40" height="40" viewBox="0 0 40 40" fill="none" xmlns="http://www.w3.org/2000/svg">
<path d="M14.1854 22H16.9963C17.4474 20.9182 18.0405 19.9105 18.7523 19H12.7318L7.7188 25.8972C7.2142 26.5914 6.42229 27 5.5813 27C3.88026 27 2.6123 25.3815 2.96872 23.6652L6.68064 5.79047C6.77639 5.3294 7.17126 5 7.62822 5H32.3718C32.8287 5 33.2236 5.3294 33.3194 5.79047L35.3699 15.6649C36.7409 16.437 37.9578 17.4507 38.9627 18.6482L36.1621 5.16188C35.7791 3.3176 34.1996 2 32.3718 2H7.62822C5.80037 2 4.22088 3.3176 3.8379 5.16189L0.125975 23.0366C-0.61826 26.6205 2.02935 30 5.5813 30C7.33738 30 8.99098 29.1468 10.0446 27.6972L14.1854 22Z" fill="white"/>
<path d="M29 14C29.3002 14 29.5981 14.0102 29.8932 14.0302C30.3693 13.496 30.66 12.783 30.66 12C30.66 10.3431 29.3584 9 27.7528 9C26.1471 9 24.8455 10.3431 24.8455 12C24.8455 12.9569 25.2796 13.8091 25.9557 14.3584C26.9322 14.1241 27.9516 14 29 14Z" fill="white"/>
<path d="M12.2473 7.5C13.0501 7.5 13.7009 8.17157 13.7009 9V10.5H15.1545C15.9574 10.5 16.6082 11.1716 16.6082 12C16.6082 12.8284 15.9574 13.5 15.1545 13.5H13.7009V15C13.7009 15.8284 13.0501 16.5 12.2473 16.5C11.4444 16.5 10.7936 15.8284 10.7936 15V13.5H9.33997C8.53715 13.5 7.88633 12.8284 7.88633 12C7.88633 11.1716 8.53715 10.5 9.33997 10.5H10.7936V9C10.7936 8.17157 11.4444 7.5 12.2473 7.5Z" fill="white"/>
<path fill-rule="evenodd" clip-rule="evenodd" d="M40 27C40 33.0751 35.0751 38 29 38C22.9249 38 18 33.0751 18 27C18 20.9249 22.9249 16 29 16C35.0751 16 40 20.9249 40 27ZM29 21.7563C26.104 21.7563 23.7562 24.104 23.7562 27V30.5438C23.7562 31.096 23.3085 31.5438 22.7562 31.5438C22.204 31.5438 21.7562 31.096 21.7562 30.5438V27C21.7562 22.9994 24.9994 19.7563 29 19.7563C33.0006 19.7563 36.2437 22.9994 36.2437 27V30.5438C36.2437 31.096 35.796 31.5438 35.2437 31.5438C34.6915 31.5438 34.2437 31.096 34.2437 30.5438V27C34.2437 24.104 31.896 21.7563 29 21.7563ZM25.9625 27.675C25.0305 27.675 24.275 28.4305 24.275 29.3625V32.0625C24.275 32.9945 25.0305 33.75 25.9625 33.75C26.8945 33.75 27.65 32.9945 27.65 32.0625V29.3625C27.65 28.4305 26.8945 27.675 25.9625 27.675ZM30.35 29.3625C30.35 28.4305 31.1055 27.675 32.0375 27.675C32.9695 27.675 33.725 28.4305 33.725 29.3625V32.0625C33.725 32.9945 32.9695 33.75 32.0375 33.75C31.1055 33.75 30.35 32.9945 30.35 32.0625V29.3625Z" fill="white"/>
</svg>
