<svg width="40" height="40" viewBox="0 0 40 40" fill="none" xmlns="http://www.w3.org/2000/svg">
<path d="M14.1854 22H16.9963C17.4474 20.9182 18.0405 19.9105 18.7523 19H12.7318L7.7188 25.8972C7.2142 26.5914 6.42229 27 5.5813 27C3.88026 27 2.6123 25.3815 2.96872 23.6652L6.68064 5.79047C6.77639 5.3294 7.17126 5 7.62822 5H32.3718C32.8287 5 33.2236 5.3294 33.3194 5.79047L35.3699 15.6649C36.7409 16.437 37.9578 17.4507 38.9627 18.6482L36.1621 5.16188C35.7791 3.3176 34.1996 2 32.3718 2H7.62822C5.80037 2 4.22088 3.3176 3.8379 5.16189L0.125975 23.0366C-0.61826 26.6205 2.02935 30 5.5813 30C7.33738 30 8.99098 29.1468 10.0446 27.6972L14.1854 22Z" fill="white"/>
<path d="M29 14C29.3002 14 29.5981 14.0102 29.8932 14.0302C30.3693 13.496 30.66 12.783 30.66 12C30.66 10.3431 29.3584 9 27.7528 9C26.1471 9 24.8455 10.3431 24.8455 12C24.8455 12.9569 25.2796 13.8091 25.9557 14.3584C26.9322 14.1241 27.9516 14 29 14Z" fill="white"/>
<path d="M12.2473 7.5C13.0501 7.5 13.7009 8.17157 13.7009 9V10.5H15.1545C15.9574 10.5 16.6082 11.1716 16.6082 12C16.6082 12.8284 15.9574 13.5 15.1545 13.5H13.7009V15C13.7009 15.8284 13.0501 16.5 12.2473 16.5C11.4444 16.5 10.7936 15.8284 10.7936 15V13.5H9.33997C8.53715 13.5 7.88633 12.8284 7.88633 12C7.88633 11.1716 8.53715 10.5 9.33997 10.5H10.7936V9C10.7936 8.17157 11.4444 7.5 12.2473 7.5Z" fill="white"/>
<path fill-rule="evenodd" clip-rule="evenodd" d="M40 27C40 33.0751 35.0751 38 29 38C22.9249 38 18 33.0751 18 27C18 20.9249 22.9249 16 29 16C35.0751 16 40 20.9249 40 27ZM24.5806 21.1664C24.9711 21.5569 24.9711 22.1901 24.5806 22.5806C23.4085 23.7527 22.75 25.3424 22.75 27C22.75 28.6576 23.4085 30.2473 24.5806 31.4194C24.9711 31.81 24.9711 32.4431 24.5806 32.8336C24.1901 33.2242 23.5569 33.2242 23.1664 32.8336C21.6192 31.2865 20.75 29.188 20.75 27C20.75 24.812 21.6192 22.7136 23.1664 21.1664C23.5569 20.7759 24.1901 20.7759 24.5806 21.1664ZM26.7019 23.2877C27.0924 23.6782 27.0924 24.3114 26.7019 24.7019C26.0924 25.3114 25.75 26.1381 25.75 27C25.75 27.862 26.0924 28.6886 26.7019 29.2981C27.0924 29.6886 27.0924 30.3218 26.7019 30.7123C26.3114 31.1028 25.6782 31.1028 25.2877 30.7123C24.3031 29.7278 23.75 28.3924 23.75 27C23.75 25.6076 24.3031 24.2723 25.2877 23.2877C25.6782 22.8972 26.3114 22.8972 26.7019 23.2877ZM31.2981 29.2981C30.9076 29.6886 30.9076 30.3218 31.2981 30.7123C31.6886 31.1028 32.3218 31.1028 32.7123 30.7123C33.6969 29.7278 34.25 28.3924 34.25 27C34.25 25.6076 33.6969 24.2723 32.7123 23.2877C32.3218 22.8972 31.6886 22.8972 31.2981 23.2877C30.9076 23.6782 30.9076 24.3114 31.2981 24.7019C31.9076 25.3114 32.25 26.1381 32.25 27C32.25 27.862 31.9076 28.6886 31.2981 29.2981ZM33.4194 32.8336C33.0289 32.4431 33.0289 31.81 33.4194 31.4194C34.5915 30.2473 35.25 28.6576 35.25 27C35.25 25.3424 34.5915 23.7527 33.4194 22.5806C33.0289 22.1901 33.0289 21.5569 33.4194 21.1664C33.8099 20.7759 34.4431 20.7759 34.8336 21.1664C36.3808 22.7136 37.25 24.812 37.25 27C37.25 29.188 36.3808 31.2865 34.8336 32.8336C34.4431 33.2242 33.8099 33.2242 33.4194 32.8336ZM29 29.25C30.2426 29.25 31.25 28.2427 31.25 27C31.25 25.7574 30.2426 24.75 29 24.75C27.7574 24.75 26.75 25.7574 26.75 27C26.75 28.2427 27.7574 29.25 29 29.25Z" fill="white"/>
</svg>
