<svg width="40" height="40" viewBox="0 0 40 40" fill="none" xmlns="http://www.w3.org/2000/svg">
<path fill-rule="evenodd" clip-rule="evenodd" d="M7.21307 2.04149C5.64726 2.27848 4.35685 3.50855 4.01733 5.16189L0.346622 23.0366C-0.38935 26.6205 2.22887 30 5.74137 30C7.47795 30 9.11319 29.1468 10.1551 27.6972L14.25 22H16.9963C17.4474 20.9182 18.0405 19.9105 18.7523 19H12.8125L7.85514 25.8972C7.35615 26.5914 6.57303 27 5.74137 27C4.05922 27 2.80534 25.3815 3.1578 23.6652L6.82851 5.79047C6.92319 5.3294 7.31368 5 7.76557 5H10.1716L7.21307 2.04149ZM35.9826 5.16188L38.6868 18.33C37.6894 17.2163 36.5027 16.2757 35.1774 15.5586L33.1714 5.79047C33.0768 5.3294 32.6863 5 32.2344 5H15.8284L12.8284 2H32.2344C34.0419 2 35.6039 3.3176 35.9826 5.16188ZM30.5416 12C30.5416 12.7798 30.2565 13.4901 29.7892 14.0236C29.5281 14.0079 29.265 14 29 14C27.9333 14 26.8967 14.1285 25.9047 14.3708C25.2274 13.8219 24.7916 12.9641 24.7916 12C24.7916 10.3431 26.0788 9 27.6666 9C29.2545 9 30.5416 10.3431 30.5416 12ZM12.7292 7.55759C12.6034 7.52009 12.4706 7.5 12.3333 7.5C11.5394 7.5 10.8958 8.17157 10.8958 9V10.5H9.45831C8.6644 10.5 8.02081 11.1716 8.02081 12C8.02081 12.8284 8.6644 13.5 9.45831 13.5H10.8958V15C10.8958 15.8284 11.5394 16.5 12.3333 16.5C13.1272 16.5 13.7708 15.8284 13.7708 15V13.5H15.2083C16.0022 13.5 16.6458 12.8284 16.6458 12C16.6458 11.7539 16.589 11.5217 16.4884 11.3168L15.8079 10.6363C15.6254 10.5488 15.4223 10.5 15.2083 10.5H13.7708V9C13.7708 8.83435 13.7451 8.67498 13.6976 8.52599L12.7292 7.55759ZM29 38C35.0751 38 40 33.0751 40 27C40 20.9249 35.0751 16 29 16C22.9249 16 18 20.9249 18 27C18 33.0751 22.9249 38 29 38ZM24.5806 22.5806C24.9711 22.1901 24.9711 21.5569 24.5806 21.1664C24.1901 20.7759 23.5569 20.7759 23.1664 21.1664C21.6192 22.7136 20.75 24.812 20.75 27C20.75 29.188 21.6192 31.2865 23.1664 32.8336C23.5569 33.2242 24.1901 33.2242 24.5806 32.8336C24.9711 32.4431 24.9711 31.81 24.5806 31.4194C23.4085 30.2473 22.75 28.6576 22.75 27C22.75 25.3424 23.4085 23.7527 24.5806 22.5806ZM26.7019 24.7019C27.0924 24.3114 27.0924 23.6782 26.7019 23.2877C26.3114 22.8972 25.6782 22.8972 25.2877 23.2877C24.3031 24.2723 23.75 25.6076 23.75 27C23.75 28.3924 24.3031 29.7278 25.2877 30.7123C25.6782 31.1028 26.3114 31.1028 26.7019 30.7123C27.0924 30.3218 27.0924 29.6886 26.7019 29.2981C26.0924 28.6886 25.75 27.862 25.75 27C25.75 26.1381 26.0924 25.3114 26.7019 24.7019ZM31.2981 30.7123C30.9076 30.3218 30.9076 29.6886 31.2981 29.2981C31.9076 28.6886 32.25 27.862 32.25 27C32.25 26.1381 31.9076 25.3114 31.2981 24.7019C30.9076 24.3114 30.9076 23.6782 31.2981 23.2877C31.6886 22.8972 32.3218 22.8972 32.7123 23.2877C33.6969 24.2723 34.25 25.6076 34.25 27C34.25 28.3924 33.6969 29.7278 32.7123 30.7123C32.3218 31.1028 31.6886 31.1028 31.2981 30.7123ZM33.4194 31.4194C33.0289 31.81 33.0289 32.4431 33.4194 32.8336C33.8099 33.2242 34.4431 33.2242 34.8336 32.8336C36.3808 31.2865 37.25 29.188 37.25 27C37.25 24.812 36.3808 22.7136 34.8336 21.1664C34.4431 20.7759 33.8099 20.7759 33.4194 21.1664C33.0289 21.5569 33.0289 22.1901 33.4194 22.5806C34.5915 23.7527 35.25 25.3424 35.25 27C35.25 28.6576 34.5915 30.2473 33.4194 31.4194ZM31.25 27C31.25 28.2427 30.2426 29.25 29 29.25C27.7574 29.25 26.75 28.2427 26.75 27C26.75 25.7574 27.7574 24.75 29 24.75C30.2426 24.75 31.25 25.7574 31.25 27Z" fill="white"/>
<path fill-rule="evenodd" clip-rule="evenodd" d="M7.06066 0.93934C6.47487 0.353553 5.52513 0.353553 4.93934 0.93934C4.35355 1.52513 4.35355 2.47487 4.93934 3.06066L19.7472 17.8685C20.4543 17.152 21.2441 16.5172 22.101 15.9796L7.06066 0.93934Z" fill="#E12A40"/>
</svg>
