<svg width="40" height="40" viewBox="0 0 40 40" fill="none" xmlns="http://www.w3.org/2000/svg">
<path fill-rule="evenodd" clip-rule="evenodd" d="M7.2131 2.04149C5.64729 2.27848 4.35688 3.50855 4.01736 5.16189L0.346653 23.0366C-0.389319 26.6205 2.2289 30 5.7414 30C7.47798 30 9.11322 29.1468 10.1552 27.6972L14.25 22H16.9963C17.4474 20.9182 18.0405 19.9105 18.7523 19H12.8125L7.85517 25.8972C7.35618 26.5914 6.57306 27 5.7414 27C4.05925 27 2.80537 25.3815 3.15783 23.6652L6.82854 5.79047C6.92322 5.3294 7.31371 5 7.7656 5H10.1716L7.2131 2.04149ZM35.9827 5.16188L38.6868 18.33C37.6894 17.2164 36.5028 16.2757 35.1774 15.5587L33.1715 5.79047C33.0768 5.3294 32.6863 5 32.2344 5H15.8285L12.8285 2H32.2344C34.042 2 35.6039 3.3176 35.9827 5.16188ZM30.5417 12C30.5417 12.7798 30.2566 13.4901 29.7892 14.0236C29.5281 14.0079 29.265 14 29 14C27.9334 14 26.8967 14.1285 25.9047 14.3708C25.2275 13.8219 24.7917 12.9641 24.7917 12C24.7917 10.3431 26.0789 9 27.6667 9C29.2545 9 30.5417 10.3431 30.5417 12ZM12.7292 7.55759C12.6034 7.52009 12.4706 7.5 12.3333 7.5C11.5394 7.5 10.8958 8.17157 10.8958 9V10.5H9.45834C8.66443 10.5 8.02084 11.1716 8.02084 12C8.02084 12.8284 8.66443 13.5 9.45834 13.5H10.8958V15C10.8958 15.8284 11.5394 16.5 12.3333 16.5C13.1273 16.5 13.7708 15.8284 13.7708 15V13.5H15.2083C16.0023 13.5 16.6458 12.8284 16.6458 12C16.6458 11.7539 16.5891 11.5217 16.4884 11.3168L15.8079 10.6363C15.6254 10.5488 15.4223 10.5 15.2083 10.5H13.7708V9C13.7708 8.83435 13.7451 8.67498 13.6976 8.52599L12.7292 7.55759ZM29 38C35.0751 38 40 33.0751 40 27C40 20.9249 35.0751 16 29 16C22.9249 16 18 20.9249 18 27C18 33.0751 22.9249 38 29 38ZM23.7563 27C23.7563 24.104 26.104 21.7563 29 21.7563C31.896 21.7563 34.2438 24.104 34.2438 27V30.5438C34.2438 31.096 34.6915 31.5438 35.2438 31.5438C35.796 31.5438 36.2438 31.096 36.2438 30.5438V27C36.2438 22.9994 33.0006 19.7563 29 19.7563C24.9994 19.7563 21.7563 22.9994 21.7563 27V30.5438C21.7563 31.096 22.204 31.5438 22.7563 31.5438C23.3085 31.5438 23.7563 31.096 23.7563 30.5438V27ZM24.275 29.3625C24.275 28.4305 25.0305 27.675 25.9625 27.675C26.8945 27.675 27.65 28.4305 27.65 29.3625V32.0625C27.65 32.9945 26.8945 33.75 25.9625 33.75C25.0305 33.75 24.275 32.9945 24.275 32.0625V29.3625ZM32.0375 27.675C31.1055 27.675 30.35 28.4305 30.35 29.3625V32.0625C30.35 32.9945 31.1055 33.75 32.0375 33.75C32.9695 33.75 33.725 32.9945 33.725 32.0625V29.3625C33.725 28.4305 32.9695 27.675 32.0375 27.675Z" fill="white"/>
<path fill-rule="evenodd" clip-rule="evenodd" d="M7.06066 0.93934C6.47487 0.353553 5.52513 0.353553 4.93934 0.93934C4.35355 1.52513 4.35355 2.47487 4.93934 3.06066L19.7472 17.8685C20.4543 17.152 21.2441 16.5172 22.101 15.9796L7.06066 0.93934Z" fill="#E12A40"/>
</svg>
