<svg width="40" height="40" viewBox="0 0 40 40" fill="none" xmlns="http://www.w3.org/2000/svg">
<path fill-rule="evenodd" clip-rule="evenodd" d="M13.0688 6.06358L33.0352 0.0736685C33.1147 0.0478246 33.197 0.0284328 33.2817 0.0161114C33.6841 -0.0434903 34.0828 0.0649635 34.395 0.296878C34.5688 0.425979 34.7158 0.593338 34.8217 0.791263C34.9026 0.941719 34.9585 1.10757 34.984 1.28328C34.9964 1.36767 35.0015 1.45188 34.9996 1.53517V18.0439C34.0732 17.4508 33.0665 16.972 31.9996 16.6273V3.5164L14.9998 8.61634V32.9998C14.9998 36.8658 11.8659 39.9999 7.99991 39.9999C4.13397 39.9999 1 36.8659 1 33C1 29.134 4.13397 26.0001 7.99991 26.0001C9.48714 26.0001 10.866 26.4639 11.9999 27.2548V7.5003C11.9999 6.8379 12.4344 6.25392 13.0688 6.06358ZM11.9999 33C11.9999 35.2091 10.209 36.9999 7.99991 36.9999C5.7908 36.9999 3.99996 35.2091 3.99996 33C3.99996 30.7909 5.7908 29 7.99991 29C10.209 29 11.9999 30.7909 11.9999 33Z" fill="white"/>
<path fill-rule="evenodd" clip-rule="evenodd" d="M38.9995 29.0001C38.9995 35.0752 34.0747 40 27.9997 40C21.9246 40 16.9998 35.0752 16.9998 29.0001C16.9998 22.9251 21.9246 18.0003 27.9997 18.0003C34.0747 18.0003 38.9995 22.9251 38.9995 29.0001ZM27.9997 23.7564C25.1037 23.7564 22.756 26.1041 22.756 29.0001V32.5438C22.756 33.0961 22.3083 33.5438 21.756 33.5438C21.2037 33.5438 20.756 33.0961 20.756 32.5438V29.0001C20.756 24.9996 23.9991 21.7565 27.9997 21.7565C32.0002 21.7565 35.2433 24.9996 35.2433 29.0001V32.5438C35.2433 33.0961 34.7956 33.5438 34.2433 33.5438C33.6911 33.5438 33.2434 33.0961 33.2434 32.5438V29.0001C33.2434 26.1041 30.8957 23.7564 27.9997 23.7564ZM24.9622 29.6751C24.0302 29.6751 23.2747 30.4306 23.2747 31.3626V34.0626C23.2747 34.9945 24.0302 35.75 24.9622 35.75C25.8942 35.75 26.6497 34.9945 26.6497 34.0626V31.3626C26.6497 30.4306 25.8942 29.6751 24.9622 29.6751ZM29.3497 31.3626C29.3497 30.4306 30.1052 29.6751 31.0371 29.6751C31.9691 29.6751 32.7246 30.4306 32.7246 31.3626V34.0626C32.7246 34.9945 31.9691 35.75 31.0371 35.75C30.1052 35.75 29.3497 34.9945 29.3497 34.0626V31.3626Z" fill="white"/>
</svg>
