<svg width="40" height="40" viewBox="0 0 40 40" fill="none" xmlns="http://www.w3.org/2000/svg">
<path fill-rule="evenodd" clip-rule="evenodd" d="M13.0688 6.06358L33.0352 0.0736689C33.1147 0.0478246 33.197 0.0284328 33.2817 0.0161115C33.6841 -0.0434905 34.0828 0.0649638 34.395 0.296878C34.5688 0.425979 34.7158 0.593338 34.8217 0.791264C34.9026 0.941719 34.9585 1.10757 34.984 1.28328C34.9964 1.36767 35.0015 1.45188 34.9996 1.53517V18.0439C34.0732 17.4508 33.0666 16.972 31.9996 16.6273V3.5164L14.9998 8.61634V32.9998C14.9998 36.8658 11.8659 39.9999 7.99991 39.9999C4.13397 39.9999 1 36.8659 1 33C1 29.134 4.13397 26.0001 7.99991 26.0001C9.48714 26.0001 10.866 26.4639 11.9999 27.2548V7.5003C11.9999 6.8379 12.4344 6.25392 13.0688 6.06358ZM11.9999 33C11.9999 35.2091 10.209 36.9999 7.99991 36.9999C5.7908 36.9999 3.99996 35.2091 3.99996 33C3.99996 30.7909 5.7908 29 7.99991 29C10.209 29 11.9999 30.7909 11.9999 33Z" fill="white"/>
<path fill-rule="evenodd" clip-rule="evenodd" d="M38.9995 29.0001C38.9995 35.0752 34.0747 40 27.9997 40C21.9246 40 16.9998 35.0752 16.9998 29.0001C16.9998 22.9251 21.9246 18.0003 27.9997 18.0003C34.0747 18.0003 38.9995 22.9251 38.9995 29.0001ZM23.5803 23.1666C23.9708 23.5571 23.9708 24.1903 23.5803 24.5808C22.4082 25.7529 21.7497 27.3426 21.7497 29.0001C21.7497 30.6577 22.4082 32.2474 23.5803 33.4195C23.9708 33.81 23.9708 34.4432 23.5803 34.8337C23.1898 35.2242 22.5566 35.2242 22.1661 34.8337C20.619 33.2866 19.7498 31.1882 19.7498 29.0001C19.7498 26.8121 20.619 24.7137 22.1661 23.1666C22.5566 22.7761 23.1898 22.7761 23.5803 23.1666ZM25.7016 25.2879C26.0921 25.6784 26.0921 26.3116 25.7016 26.7021C25.0921 27.3116 24.7497 28.1382 24.7497 29.0001C24.7497 29.8621 25.0921 30.6887 25.7016 31.2982C26.0921 31.6887 26.0921 32.3219 25.7016 32.7124C25.3111 33.1029 24.6779 33.1029 24.2874 32.7124C23.3029 31.7279 22.7497 30.3925 22.7497 29.0001C22.7497 27.6078 23.3029 26.2724 24.2874 25.2879C24.6779 24.8974 25.3111 24.8974 25.7016 25.2879ZM30.2977 31.2982C29.9072 31.6887 29.9072 32.3219 30.2977 32.7124C30.6883 33.1029 31.3214 33.1029 31.7119 32.7124C32.6965 31.7279 33.2496 30.3925 33.2496 29.0001C33.2496 27.6078 32.6965 26.2724 31.7119 25.2879C31.3214 24.8974 30.6883 24.8974 30.2977 25.2879C29.9072 25.6784 29.9072 26.3116 30.2977 26.7021C30.9072 27.3116 31.2496 28.1382 31.2496 29.0001C31.2496 29.8621 30.9072 30.6887 30.2977 31.2982ZM32.419 34.8337C32.0285 34.4432 32.0285 33.81 32.419 33.4195C33.5911 32.2474 34.2496 30.6577 34.2496 29.0001C34.2496 27.3426 33.5911 25.7529 32.419 24.5808C32.0285 24.1903 32.0285 23.5571 32.419 23.1666C32.8096 22.7761 33.4427 22.7761 33.8332 23.1666C35.3804 24.7137 36.2496 26.8121 36.2496 29.0001C36.2496 31.1882 35.3804 33.2865 33.8332 34.8337C33.4427 35.2242 32.8096 35.2242 32.419 34.8337ZM27.9997 31.2501C29.2423 31.2501 30.2496 30.2428 30.2496 29.0001C30.2496 27.7575 29.2423 26.7502 27.9997 26.7502C26.757 26.7502 25.7497 27.7575 25.7497 29.0001C25.7497 30.2428 26.757 31.2501 27.9997 31.2501Z" fill="white"/>
</svg>
