<svg width="40" height="40" viewBox="0 0 40 40" fill="none" xmlns="http://www.w3.org/2000/svg">
<g>
<path fill-rule="evenodd" clip-rule="evenodd" d="M33.0356 0.0731811L13.069 6.06317C12.7843 6.14856 12.54 6.31317 12.357 6.52855L15 9.17157V8.61595L32 3.51595V16.627C33.0669 16.9717 34.0736 17.4505 35 18.0436V1.5347C35.0019 1.45141 34.9969 1.3672 34.9844 1.28281C34.9589 1.10709 34.903 0.941243 34.8221 0.790784C34.7162 0.592857 34.5693 0.425496 34.3955 0.296393C34.0832 0.064476 33.6845 -0.0439791 33.2821 0.0156233C33.1974 0.0279448 33.1151 0.0473369 33.0356 0.0731811ZM15 14.8284V29V32.9997C15 36.8657 11.866 39.9999 8 39.9999C4.13401 39.9999 1 36.8659 1 32.9999C1 29.1339 4.13401 25.9999 8 25.9999C9.48725 25.9999 10.8662 26.4637 12 27.2546V11.8284L15 14.8284ZM8 36.9999C10.2091 36.9999 12 35.209 12 32.9999C12 30.7908 10.2091 28.9999 8 28.9999C5.79086 28.9999 4 30.7908 4 32.9999C4 35.209 5.79086 36.9999 8 36.9999ZM28 40C34.0751 40 39 35.0751 39 29C39 22.9249 34.0751 18 28 18C21.9249 18 17 22.9249 17 29C17 35.0751 21.9249 40 28 40ZM22.7563 29C22.7563 26.104 25.104 23.7563 28 23.7563C30.896 23.7563 33.2438 26.104 33.2438 29V32.5438C33.2438 33.096 33.6915 33.5438 34.2438 33.5438C34.796 33.5438 35.2438 33.096 35.2438 32.5438V29C35.2438 24.9994 32.0006 21.7563 28 21.7563C23.9994 21.7563 20.7563 24.9994 20.7563 29V32.5438C20.7563 33.096 21.204 33.5438 21.7563 33.5438C22.3085 33.5438 22.7563 33.096 22.7563 32.5438V29ZM23.275 31.3625C23.275 30.4305 24.0305 29.675 24.9625 29.675C25.8945 29.675 26.65 30.4305 26.65 31.3625V34.0625C26.65 34.9945 25.8945 35.75 24.9625 35.75C24.0305 35.75 23.275 34.9945 23.275 34.0625V31.3625ZM31.0375 29.675C30.1055 29.675 29.35 30.4305 29.35 31.3625V34.0625C29.35 34.9945 30.1055 35.75 31.0375 35.75C31.9695 35.75 32.725 34.9945 32.725 34.0625V31.3625C32.725 30.4305 31.9695 29.675 31.0375 29.675Z" fill="white"/>
<path fill-rule="evenodd" clip-rule="evenodd" d="M6.06066 4.93934C5.47487 4.35355 4.52513 4.35355 3.93934 4.93934C3.35355 5.52513 3.35355 6.47487 3.93934 7.06066L17.808 20.9293C18.4312 20.1434 19.1434 19.4312 19.9293 18.808L6.06066 4.93934Z" fill="#E12A40"/>
</g>
</svg>
