<svg width="40" height="40" viewBox="0 0 40 40" fill="none" xmlns="http://www.w3.org/2000/svg">
<g>
<path fill-rule="evenodd" clip-rule="evenodd" d="M33.0356 0.0731811L13.069 6.06317C12.7843 6.14856 12.54 6.31317 12.357 6.52855L15 9.17157V8.61595L32 3.51595V16.627C33.0669 16.9717 34.0736 17.4505 35 18.0436V1.5347C35.0019 1.45141 34.9969 1.3672 34.9844 1.28281C34.9589 1.10709 34.903 0.941243 34.8221 0.790784C34.7162 0.592857 34.5693 0.425496 34.3955 0.296393C34.0832 0.064476 33.6845 -0.0439791 33.2821 0.0156233C33.1974 0.0279448 33.1151 0.0473369 33.0356 0.0731811ZM15 14.8284V29V32.9997C15 36.8657 11.866 39.9999 8 39.9999C4.13401 39.9999 1 36.8659 1 32.9999C1 29.1339 4.13401 25.9999 8 25.9999C9.48725 25.9999 10.8662 26.4637 12 27.2546V11.8284L15 14.8284ZM8 36.9999C10.2091 36.9999 12 35.209 12 32.9999C12 30.7908 10.2091 28.9999 8 28.9999C5.79086 28.9999 4 30.7908 4 32.9999C4 35.209 5.79086 36.9999 8 36.9999ZM28 40C34.0751 40 39 35.0751 39 29C39 22.9249 34.0751 18 28 18C21.9249 18 17 22.9249 17 29C17 35.0751 21.9249 40 28 40ZM23.5806 24.5806C23.9711 24.1901 23.9711 23.5569 23.5806 23.1664C23.1901 22.7759 22.5569 22.7759 22.1664 23.1664C20.6192 24.7136 19.75 26.812 19.75 29C19.75 31.188 20.6192 33.2865 22.1664 34.8336C22.5569 35.2242 23.1901 35.2242 23.5806 34.8336C23.9711 34.4431 23.9711 33.81 23.5806 33.4194C22.4085 32.2473 21.75 30.6576 21.75 29C21.75 27.3424 22.4085 25.7527 23.5806 24.5806ZM25.7019 26.7019C26.0924 26.3114 26.0924 25.6782 25.7019 25.2877C25.3114 24.8972 24.6782 24.8972 24.2877 25.2877C23.3031 26.2723 22.75 27.6076 22.75 29C22.75 30.3924 23.3031 31.7278 24.2877 32.7123C24.6782 33.1028 25.3114 33.1028 25.7019 32.7123C26.0924 32.3218 26.0924 31.6886 25.7019 31.2981C25.0924 30.6886 24.75 29.862 24.75 29C24.75 28.1381 25.0924 27.3114 25.7019 26.7019ZM30.2981 32.7123C29.9076 32.3218 29.9076 31.6886 30.2981 31.2981C30.9076 30.6886 31.25 29.862 31.25 29C31.25 28.1381 30.9076 27.3114 30.2981 26.7019C29.9076 26.3114 29.9076 25.6782 30.2981 25.2877C30.6886 24.8972 31.3218 24.8972 31.7123 25.2877C32.6969 26.2723 33.25 27.6076 33.25 29C33.25 30.3924 32.6969 31.7278 31.7123 32.7123C31.3218 33.1029 30.6886 33.1029 30.2981 32.7123ZM32.4194 33.4194C32.0289 33.81 32.0289 34.4431 32.4194 34.8336C32.8099 35.2242 33.4431 35.2242 33.8336 34.8336C35.3808 33.2865 36.25 31.188 36.25 29C36.25 26.812 35.3808 24.7136 33.8336 23.1664C33.4431 22.7759 32.8099 22.7759 32.4194 23.1664C32.0289 23.5569 32.0289 24.1901 32.4194 24.5806C33.5915 25.7527 34.25 27.3424 34.25 29C34.25 30.6576 33.5915 32.2473 32.4194 33.4194ZM30.25 29C30.25 30.2427 29.2426 31.25 28 31.25C26.7574 31.25 25.75 30.2427 25.75 29C25.75 27.7574 26.7574 26.75 28 26.75C29.2426 26.75 30.25 27.7574 30.25 29Z" fill="white"/>
<path fill-rule="evenodd" clip-rule="evenodd" d="M6.06066 4.93934C5.47487 4.35355 4.52513 4.35355 3.93934 4.93934C3.35355 5.52513 3.35355 6.47487 3.93934 7.06066L17.808 20.9293C18.4312 20.1434 19.1434 19.4312 19.9293 18.808L6.06066 4.93934Z" fill="#E12A40"/>
</g>
</svg>
