<svg width="40" height="40" viewBox="0 0 40 40" fill="none" xmlns="http://www.w3.org/2000/svg">
<g>
<path fill-rule="evenodd" clip-rule="evenodd" d="M14.069 6.06317L34.0356 0.0731811C34.1151 0.0473369 34.1974 0.0279448 34.2821 0.0156233C34.6845 -0.0439791 35.0832 0.064476 35.3955 0.296393C35.5693 0.425496 35.7162 0.592857 35.8221 0.790784C35.903 0.941243 35.9589 1.10709 35.9844 1.28281C35.9969 1.3672 36.0019 1.45141 36 1.5347V26.9999C36 30.8659 32.866 33.9999 29 33.9999C25.134 33.9999 22 30.8659 22 26.9999C22 23.1339 25.134 19.9999 29 19.9999C30.4872 19.9999 31.8662 20.4637 33 21.2546V3.51595L16 8.61595V32.9997C16 36.8657 12.866 39.9999 9 39.9999C5.13401 39.9999 2 36.8659 2 32.9999C2 29.1339 5.13401 25.9999 9 25.9999C10.4872 25.9999 11.8662 26.4637 13 27.2546V7.49991C13 6.83749 13.4345 6.25351 14.069 6.06317ZM33 26.9999C33 24.7908 31.2091 22.9999 29 22.9999C26.7909 22.9999 25 24.7908 25 26.9999C25 29.209 26.7909 30.9999 29 30.9999C31.2091 30.9999 33 29.209 33 26.9999ZM13 32.9999C13 35.209 11.2091 36.9999 9 36.9999C6.79086 36.9999 5 35.209 5 32.9999C5 30.7908 6.79086 28.9999 9 28.9999C11.2091 28.9999 13 30.7908 13 32.9999Z" fill="white"/>
</g>
</svg>
