<svg width="40" height="31" viewBox="0 0 40 31" fill="none" xmlns="http://www.w3.org/2000/svg">
<path fill-rule="evenodd" clip-rule="evenodd" d="M10.1213 21.0543C9.55871 20.4917 8.79565 20.1756 8 20.1756H4C3.44772 20.1756 3 19.7279 3 19.1756V11.1756C3 10.6233 3.44772 10.1756 4 10.1756H8C8.79565 10.1756 9.55871 9.85951 10.1213 9.29691L15 4.41823V25.9329L10.1213 21.0543ZM14.5858 29.7614L8 23.1756H4C1.79086 23.1756 0 21.3847 0 19.1756V11.1756C0 8.96645 1.79086 7.17558 4 7.17558H8L14.5858 0.589795C15.8457 -0.670135 18 0.222203 18 2.00401V28.3472C18 30.129 15.8457 31.0213 14.5858 29.7614ZM24.4393 22.7362C23.8536 22.1504 23.8536 21.2007 24.4393 20.6149L29.8787 15.1755L24.4393 9.7362C23.8536 9.15041 23.8536 8.20066 24.4393 7.61488C25.0251 7.02909 25.9749 7.02909 26.5607 7.61488L32 13.0542L37.4393 7.61488C38.0251 7.02909 38.9749 7.02909 39.5607 7.61488C40.1464 8.20066 40.1464 9.15041 39.5607 9.7362L34.1213 15.1755L39.5607 20.6149C40.1464 21.2007 40.1464 22.1504 39.5607 22.7362C38.9749 23.322 38.0251 23.322 37.4393 22.7362L32 17.2969L26.5607 22.7362C25.9749 23.322 25.0251 23.322 24.4393 22.7362Z" fill="#E12A40"/>
</svg>
