<svg width="40" height="40" viewBox="0 0 40 40" fill="none" xmlns="http://www.w3.org/2000/svg">
<g>
<path d="M18.6859 4.10643C19.2954 4.37316 19.6459 5.07937 19.5202 5.78752C18.0331 14.1687 17.7505 18.9206 18.365 22.6436C18.6762 24.5293 19.2211 26.1846 20.0113 27.959C19.9182 24.7144 20.0702 22.0197 20.4726 19.5833C21.1273 15.6194 22.4289 12.4372 24.2598 8.77704C24.5661 8.16486 25.216 7.86635 25.827 8.05722C26.4381 8.24809 26.8484 8.87777 26.8165 9.57562C26.6131 14.0163 27.0976 17.882 28.0722 21.5046C28.4361 17.3245 29.2599 13.8482 31.6648 10.5599C32.0067 10.0924 32.569 9.89401 33.0944 10.0555C33.6197 10.2171 34.007 10.7074 34.079 11.3022C34.3638 13.6554 34.6013 15.0046 35.0208 16.0361C35.3692 16.8924 35.8766 17.6056 36.8475 18.5002H38.6364C39.3895 18.5002 40 19.1717 40 20.0002C40 20.8286 39.3895 21.5002 38.6364 21.5002H36.3636C36.0569 21.5002 35.7591 21.3864 35.5184 21.1773C34.1127 19.956 33.165 18.8189 32.5314 17.2613C32.3293 16.7644 32.1643 16.2358 32.0237 15.6654C30.8115 18.8202 30.6746 22.5441 30.4703 28.1033C30.4647 28.2545 30.4591 28.4071 30.4534 28.561C30.428 29.2502 29.9786 29.8314 29.3643 29.9697C28.75 30.108 28.1292 29.7677 27.8597 29.1449C26.0556 24.9762 24.7364 20.6755 24.2493 15.7708C23.7728 17.1699 23.4099 18.5822 23.156 20.1195C22.5727 23.6511 22.5496 27.9399 23.174 34.3401C23.2423 35.0398 22.8592 35.6977 22.2528 35.9219C21.6464 36.1462 20.9798 35.8767 20.6499 35.2737L20.6251 35.2284C18.1834 30.7662 16.394 27.4961 15.6816 23.1795C15.1957 20.2359 15.2173 16.8667 15.7569 12.3379C15.3286 13.1401 14.9297 13.9715 14.5591 14.8907C13.3439 17.9057 12.4686 21.8502 12.272 28.5486C12.2515 29.2469 11.7954 29.8372 11.1722 29.972C10.5489 30.1068 9.92362 29.7504 9.66429 29.1126C8.38554 25.9676 7.4563 23.6208 6.8493 21.0265C6.48983 19.4901 6.24777 17.8885 6.09776 15.9982C6.08695 16.023 6.07624 16.0479 6.06564 16.0728C5.60728 17.1482 5.30847 18.3534 4.97609 20.2799C4.85395 20.9878 4.29143 21.5002 3.63636 21.5002H1.36364C0.610521 21.5002 0 20.8286 0 20.0002C0 19.1717 0.610521 18.5002 1.36364 18.5002H2.52136C2.80309 17.0809 3.12056 15.9155 3.59628 14.7993C4.20216 13.3777 5.0295 12.1183 6.2251 10.54C6.59018 10.058 7.18935 9.87686 7.72707 10.0859C8.26478 10.2949 8.62746 10.8499 8.6362 11.4772C8.6915 15.4444 8.95379 17.9849 9.4905 20.2788C9.63727 20.9061 9.80552 21.5196 9.99853 22.144C10.436 18.6151 11.147 15.9545 12.066 13.6747C13.0385 11.2619 14.2649 9.26109 15.523 7.2084C16.0249 6.38954 16.5319 5.56242 17.0298 4.69759C17.3807 4.08805 18.0765 3.83971 18.6859 4.10643Z" fill="white"/>
</g>
</svg>
