<svg width="40" height="40" viewBox="0 0 40 40" fill="none" xmlns="http://www.w3.org/2000/svg">
<g>
<path fill-rule="evenodd" clip-rule="evenodd" d="M12.8564 8.90027C12.5789 9.47006 12.3141 10.059 12.0659 10.6747C11.147 12.9545 10.436 15.6151 9.99852 19.144C9.80551 18.5196 9.63727 17.9061 9.49049 17.2788C8.95378 14.9849 8.69149 12.4444 8.6362 8.47718C8.62745 7.84992 8.26478 7.29489 7.72706 7.08588C7.18934 6.87686 6.59017 7.05801 6.2251 7.53996C5.0295 9.11834 4.20215 10.3777 3.59628 11.7993C3.12056 12.9155 2.80309 14.0809 2.52136 15.5002H1.36364C0.61052 15.5002 0 16.1717 0 17.0002C0 17.8286 0.61052 18.5002 1.36364 18.5002H3.63636C4.29143 18.5002 4.85394 17.9878 4.97608 17.2799C5.30846 15.3534 5.60728 14.1482 6.06564 13.0728C6.07624 13.0479 6.08694 13.023 6.09775 12.9982C6.24777 14.8885 6.48982 16.4901 6.8493 18.0265C7.45629 20.6208 8.38553 22.9676 9.66428 26.1126C9.92361 26.7504 10.5489 27.1068 11.1722 26.972C11.7954 26.8372 12.2515 26.2469 12.272 25.5486C12.4686 18.8502 13.3438 14.9057 14.5591 11.8907C14.692 11.5612 14.8284 11.2429 14.9686 10.9333L12.8564 8.90027ZM15.5331 11.4766C15.2239 14.9608 15.2754 17.7189 15.6815 20.1795C15.9022 21.5168 16.2263 22.7536 16.6411 23.9566C17.0688 22.6484 17.6984 21.4317 18.4931 20.3431C18.4467 20.1131 18.404 19.8802 18.365 19.6436C18.096 18.0143 17.9989 16.188 18.0994 13.9466L15.5331 11.4766ZM25.4667 15.4859C26.0685 15.3163 26.6881 15.189 27.3219 15.1073C26.8658 12.4666 26.6752 9.6598 26.8164 6.57562C26.8484 5.87777 26.4381 5.24809 25.827 5.05722C25.216 4.86635 24.566 5.16486 24.2598 5.77704C23.2129 7.86984 22.3391 9.8064 21.6603 11.8222L23.875 13.9539C23.9909 13.5568 24.1156 13.1633 24.2493 12.7708C24.308 13.3617 24.3787 13.9437 24.4609 14.5178L25.4667 15.4859ZM29 15C29.7811 15 30.5461 15.0689 31.2892 15.2009C31.4771 14.3052 31.7157 13.4669 32.0237 12.6654C32.1642 13.2358 32.3292 13.7644 32.5314 14.2613C32.747 14.7915 32.9991 15.273 33.2933 15.7256C35.0141 16.3275 36.5699 17.2811 37.8744 18.5002H38.6363C39.3895 18.5002 40 17.8286 40 17.0002C40 16.1717 39.3895 15.5002 38.6363 15.5002H36.8475C35.8766 14.6056 35.3691 13.8924 35.0208 13.0361C34.6012 12.0046 34.3637 10.6554 34.079 8.30223C34.007 7.70744 33.6197 7.21707 33.0943 7.05554C32.569 6.89401 32.0067 7.09242 31.6648 7.55995C29.9625 9.88751 29.0524 12.3092 28.5369 15.0081C28.6906 15.0027 28.845 15 29 15ZM20.2235 18.4097C20.6554 18.0142 21.1141 17.6475 21.5966 17.3127L20.5241 16.2804C20.5065 16.3809 20.4893 16.4818 20.4726 16.5833C20.3748 17.1754 20.2918 17.7828 20.2235 18.4097ZM18.571 8.8488L14.8668 5.28344C15.0837 4.9251 15.3028 4.56765 15.5229 4.20862L15.523 4.20842L15.523 4.2084C16.0249 3.38954 16.5318 2.56242 17.0298 1.69759C17.3807 1.08805 18.0765 0.839705 18.6859 1.10643C19.2954 1.37316 19.6458 2.07937 19.5202 2.78752C19.1175 5.0568 18.8032 7.06003 18.571 8.8488ZM29 39C35.0751 39 40 34.0751 40 28C40 21.9249 35.0751 17 29 17C22.9249 17 18 21.9249 18 28C18 34.0751 22.9249 39 29 39ZM23.7563 28C23.7563 25.104 26.104 22.7563 29 22.7563C31.896 22.7563 34.2438 25.104 34.2438 28V31.5438C34.2438 32.096 34.6915 32.5438 35.2438 32.5438C35.796 32.5438 36.2438 32.096 36.2438 31.5438V28C36.2438 23.9994 33.0006 20.7563 29 20.7563C24.9994 20.7563 21.7563 23.9994 21.7563 28V31.5438C21.7563 32.096 22.204 32.5438 22.7563 32.5438C23.3085 32.5438 23.7563 32.096 23.7563 31.5438V28ZM24.275 30.3625C24.275 29.4305 25.0305 28.675 25.9625 28.675C26.8945 28.675 27.65 29.4305 27.65 30.3625V33.0625C27.65 33.9945 26.8945 34.75 25.9625 34.75C25.0305 34.75 24.275 33.9945 24.275 33.0625V30.3625ZM32.0375 28.675C31.1055 28.675 30.35 29.4305 30.35 30.3625V33.0625C30.35 33.9945 31.1055 34.75 32.0375 34.75C32.9695 34.75 33.725 33.9945 33.725 33.0625V30.3625C33.725 29.4305 32.9695 28.675 32.0375 28.675Z" fill="white"/>
<path fill-rule="evenodd" clip-rule="evenodd" d="M6.49473 1.91927C5.89786 1.34478 4.94829 1.36293 4.3738 1.9598C3.79931 2.55667 3.81746 3.50624 4.41433 4.08073L19.7623 18.8532C20.4724 18.136 21.2654 17.5012 22.1258 16.9641L6.49473 1.91927Z" fill="#E12A40"/>
</g>
</svg>
