<svg width="40" height="40" viewBox="0 0 40 40" fill="none" xmlns="http://www.w3.org/2000/svg">
<path d="M18.6859 1.10643C19.2954 1.37315 19.6459 2.07936 19.5202 2.7875C18.0331 11.1686 17.7505 15.9204 18.365 19.6435C18.404 19.8801 18.4468 20.1131 18.4932 20.3432C17.6985 21.4318 17.0689 22.6485 16.6412 23.9565C16.2264 22.7535 15.9023 21.5167 15.6816 20.1793C15.1957 17.2357 15.2173 13.8665 15.7569 9.33779C15.3286 10.1401 14.9297 10.9714 14.5591 11.8906C13.3439 14.9056 12.4686 18.85 12.272 25.5483C12.2515 26.2466 11.7954 26.8369 11.1722 26.9717C10.5489 27.1065 9.92362 26.7501 9.66429 26.1123C8.38554 22.9674 7.4563 20.6206 6.8493 18.0263C6.48983 16.49 6.24777 14.8884 6.09776 12.9981L6.06564 13.0726C5.60728 14.1481 5.30847 15.3532 4.97609 17.2797C4.85394 17.9876 4.29143 18.5 3.63636 18.5H1.36364C0.610521 18.5 0 17.8284 0 17C0 16.1716 0.610521 15.5 1.36364 15.5H2.52136C2.80309 14.0808 3.12056 12.9153 3.59628 11.7992C4.20216 10.3776 5.0295 9.11826 6.2251 7.53989C6.59018 7.05794 7.18935 6.8768 7.72707 7.08581C8.26478 7.29483 8.62746 7.84984 8.6362 8.4771C8.6915 12.4443 8.95379 14.9847 9.4905 17.2786C9.63727 17.9059 9.80552 18.5194 9.99853 19.1438C10.436 15.6149 11.147 12.9544 12.066 10.6746C13.0385 8.26181 14.2649 6.26103 15.523 4.20837C16.0248 3.38962 16.5319 2.5623 17.0298 1.69759C17.3807 1.08805 18.0765 0.839707 18.6859 1.10643Z" fill="white"/>
<path d="M23.3014 16.3126C22.1743 16.8631 21.1387 17.5719 20.2235 18.4099C20.2918 17.7829 20.3748 17.1754 20.4726 16.5831C21.1273 12.6193 22.4289 9.43707 24.2598 5.77699C24.5661 5.16482 25.216 4.86631 25.827 5.05718C26.4381 5.24804 26.8484 5.87772 26.8165 6.57556C26.6752 9.65986 26.8658 12.4668 27.3219 15.1075C26.3995 15.2264 25.5072 15.442 24.6558 15.7438C24.4867 14.7759 24.3502 13.7862 24.2493 12.7707C23.8573 13.9216 23.5422 15.0815 23.3014 16.3126Z" fill="white"/>
<path d="M29 15.0002C28.845 15.0002 28.6905 15.003 28.5368 15.0083C29.0524 12.3093 29.9625 9.88753 31.6648 7.55988C32.0067 7.09235 32.569 6.89395 33.0944 7.05548C33.6197 7.21701 34.007 7.70737 34.079 8.30216C34.3638 10.6553 34.6013 12.0045 35.0208 13.0359C35.3692 13.8923 35.8766 14.6055 36.8475 15.5H38.6364C39.3895 15.5 40 16.1716 40 17C40 17.8284 39.3895 18.5 38.6364 18.5H37.8739C36.5696 17.2812 35.0142 16.3278 33.2936 15.726C32.9993 15.2732 32.7472 14.7916 32.5314 14.2612C32.3293 13.7642 32.1643 13.2357 32.0237 12.6653C31.7157 13.4669 31.4771 14.3053 31.2892 15.2011C30.546 15.0691 29.7811 15.0002 29 15.0002Z" fill="white"/>
<path fill-rule="evenodd" clip-rule="evenodd" d="M40 28C40 34.0751 35.0751 39 29 39C22.9249 39 18 34.0751 18 28C18 21.9249 22.9249 17 29 17C35.0751 17 40 21.9249 40 28ZM24.5806 22.1664C24.9711 22.5569 24.9711 23.1901 24.5806 23.5806C23.4085 24.7527 22.75 26.3424 22.75 28C22.75 29.6576 23.4085 31.2473 24.5806 32.4194C24.9711 32.81 24.9711 33.4431 24.5806 33.8336C24.1901 34.2242 23.5569 34.2242 23.1664 33.8336C21.6192 32.2865 20.75 30.188 20.75 28C20.75 25.812 21.6192 23.7136 23.1664 22.1664C23.5569 21.7759 24.1901 21.7759 24.5806 22.1664ZM26.7019 24.2877C27.0924 24.6782 27.0924 25.3114 26.7019 25.7019C26.0924 26.3114 25.75 27.1381 25.75 28C25.75 28.862 26.0924 29.6886 26.7019 30.2981C27.0924 30.6886 27.0924 31.3218 26.7019 31.7123C26.3114 32.1028 25.6782 32.1028 25.2877 31.7123C24.3031 30.7278 23.75 29.3924 23.75 28C23.75 26.6076 24.3031 25.2723 25.2877 24.2877C25.6782 23.8972 26.3114 23.8972 26.7019 24.2877ZM31.2981 30.2981C30.9076 30.6886 30.9076 31.3218 31.2981 31.7123C31.6886 32.1028 32.3218 32.1028 32.7123 31.7123C33.6969 30.7278 34.25 29.3924 34.25 28C34.25 26.6076 33.6969 25.2723 32.7123 24.2877C32.3218 23.8972 31.6886 23.8972 31.2981 24.2877C30.9076 24.6782 30.9076 25.3114 31.2981 25.7019C31.9076 26.3114 32.25 27.1381 32.25 28C32.25 28.862 31.9076 29.6886 31.2981 30.2981ZM33.4194 33.8336C33.0289 33.4431 33.0289 32.81 33.4194 32.4194C34.5915 31.2473 35.25 29.6576 35.25 28C35.25 26.3424 34.5915 24.7527 33.4194 23.5806C33.0289 23.1901 33.0289 22.5569 33.4194 22.1664C33.8099 21.7759 34.4431 21.7759 34.8336 22.1664C36.3808 23.7136 37.25 25.812 37.25 28C37.25 30.188 36.3808 32.2865 34.8336 33.8336C34.4431 34.2242 33.8099 34.2242 33.4194 33.8336ZM29 30.25C30.2426 30.25 31.25 29.2427 31.25 28C31.25 26.7574 30.2426 25.75 29 25.75C27.7574 25.75 26.75 26.7574 26.75 28C26.75 29.2427 27.7574 30.25 29 30.25Z" fill="white"/>
</svg>
