<svg width="40" height="40" viewBox="0 0 40 40" fill="none" xmlns="http://www.w3.org/2000/svg">
<g>
<path fill-rule="evenodd" clip-rule="evenodd" d="M12.8565 8.90025C12.579 9.47005 12.3142 10.059 12.066 10.6747C11.1471 12.9545 10.4361 15.6151 9.99862 19.144C9.80561 18.5196 9.63737 17.9061 9.49059 17.2788C8.95388 14.9849 8.69159 12.4444 8.6363 8.47718C8.62755 7.84992 8.26487 7.29489 7.72716 7.08588C7.18944 6.87686 6.59027 7.05801 6.22519 7.53996C5.02959 9.11834 4.20225 10.3777 3.59637 11.7993C3.12066 12.9155 2.80318 14.0809 2.52145 15.5002H1.36373C0.610612 15.5002 9.15527e-05 16.1717 9.15527e-05 17.0002C9.15527e-05 17.8286 0.610612 18.5002 1.36373 18.5002H3.63646C4.29152 18.5002 4.85404 17.9878 4.97618 17.2799C5.30856 15.3534 5.60737 14.1482 6.06574 13.0728C6.07633 13.0479 6.08704 13.023 6.09785 12.9982C6.24786 14.8885 6.48992 16.4901 6.84939 18.0265C7.45639 20.6208 8.38563 22.9676 9.66438 26.1126C9.92371 26.7504 10.549 27.1068 11.1723 26.972C11.7955 26.8372 12.2516 26.2469 12.2721 25.5486C12.4687 18.8502 13.3439 14.9057 14.5592 11.8907C14.6921 11.5612 14.8286 11.2429 14.9687 10.9332L12.8565 8.90025ZM15.5332 11.4766C15.224 14.9608 15.2755 17.7189 15.6816 20.1795C15.9023 21.5167 16.2264 22.7535 16.6412 23.9564C17.0689 22.6483 17.6985 21.4315 18.4932 20.343C18.4468 20.113 18.4041 19.8801 18.3651 19.6436C18.0961 18.0143 17.999 16.188 18.0995 13.9466L15.5332 11.4766ZM25.4669 15.4859C26.0687 15.3163 26.6882 15.189 27.322 15.1073C26.8659 12.4666 26.6753 9.65979 26.8165 6.57562C26.8485 5.87777 26.4382 5.24809 25.8271 5.05722C25.2161 4.86635 24.5662 5.16486 24.2599 5.77704C23.213 7.86983 22.3392 9.80638 21.6604 11.8222L23.8751 13.9538C23.991 13.5568 24.1157 13.1633 24.2494 12.7708C24.3081 13.3616 24.3788 13.9437 24.4611 14.5178L25.4669 15.4859ZM29 15C29.7811 15 30.5461 15.0689 31.2893 15.2009C31.4772 14.3052 31.7158 13.4669 32.0238 12.6654C32.1644 13.2358 32.3294 13.7644 32.5315 14.2613C32.7472 14.7915 32.9992 15.273 33.2934 15.7257C35.0142 16.3276 36.57 17.2811 37.8744 18.5002H38.6365C39.3896 18.5002 40.0001 17.8286 40.0001 17.0002C40.0001 16.1717 39.3896 15.5002 38.6365 15.5002H36.8476C35.8767 14.6056 35.3693 13.8924 35.0209 13.0361C34.6014 12.0046 34.3639 10.6554 34.0791 8.30223C34.0071 7.70744 33.6198 7.21707 33.0945 7.05554C32.5691 6.89401 32.0068 7.09242 31.6649 7.55995C29.9626 9.88751 29.0525 12.3092 28.537 15.0081C28.6907 15.0027 28.845 15 29 15ZM20.2236 18.4096C20.6555 18.0141 21.1142 17.6474 21.5966 17.3126L20.5242 16.2804C20.5066 16.3809 20.4894 16.4818 20.4727 16.5833C20.3749 17.1754 20.2919 17.7827 20.2236 18.4096ZM18.5712 8.84877L14.8669 5.28342C15.0839 4.92501 15.303 4.5675 15.5231 4.2084L15.5231 4.20836C16.025 3.38951 16.532 2.56241 17.0299 1.69759C17.3808 1.08805 18.0766 0.839705 18.686 1.10643C19.2955 1.37316 19.6459 2.07937 19.5203 2.78752C19.1176 5.05679 18.8033 7.06001 18.5712 8.84877ZM29 39C35.0751 39 40 34.0751 40 28C40 21.9249 35.0751 17 29 17C22.9249 17 18 21.9249 18 28C18 34.0751 22.9249 39 29 39ZM24.5806 23.5806C24.9711 23.1901 24.9711 22.5569 24.5806 22.1664C24.1901 21.7759 23.5569 21.7759 23.1664 22.1664C21.6192 23.7136 20.75 25.812 20.75 28C20.75 30.188 21.6192 32.2865 23.1664 33.8336C23.5569 34.2242 24.1901 34.2242 24.5806 33.8336C24.9711 33.4431 24.9711 32.81 24.5806 32.4194C23.4085 31.2473 22.75 29.6576 22.75 28C22.75 26.3424 23.4085 24.7527 24.5806 23.5806ZM26.7019 25.7019C27.0924 25.3114 27.0924 24.6782 26.7019 24.2877C26.3114 23.8972 25.6782 23.8972 25.2877 24.2877C24.3031 25.2723 23.75 26.6076 23.75 28C23.75 29.3924 24.3031 30.7278 25.2877 31.7123C25.6782 32.1028 26.3114 32.1028 26.7019 31.7123C27.0924 31.3218 27.0924 30.6886 26.7019 30.2981C26.0924 29.6886 25.75 28.862 25.75 28C25.75 27.1381 26.0924 26.3114 26.7019 25.7019ZM31.2981 31.7123C30.9076 31.3218 30.9076 30.6886 31.2981 30.2981C31.9076 29.6886 32.25 28.862 32.25 28C32.25 27.1381 31.9076 26.3114 31.2981 25.7019C30.9076 25.3114 30.9076 24.6782 31.2981 24.2877C31.6886 23.8972 32.3218 23.8972 32.7123 24.2877C33.6969 25.2723 34.25 26.6076 34.25 28C34.25 29.3924 33.6969 30.7278 32.7123 31.7123C32.3218 32.1028 31.6886 32.1028 31.2981 31.7123ZM33.4194 32.4194C33.0289 32.81 33.0289 33.4431 33.4194 33.8336C33.81 34.2242 34.4431 34.2242 34.8336 33.8336C36.3808 32.2865 37.25 30.188 37.25 28C37.25 25.812 36.3808 23.7136 34.8336 22.1664C34.4431 21.7759 33.81 21.7759 33.4194 22.1664C33.0289 22.5569 33.0289 23.1901 33.4194 23.5806C34.5915 24.7527 35.25 26.3424 35.25 28C35.25 29.6576 34.5915 31.2473 33.4194 32.4194ZM31.25 28C31.25 29.2427 30.2427 30.25 29 30.25C27.7574 30.25 26.75 29.2427 26.75 28C26.75 26.7574 27.7574 25.75 29 25.75C30.2427 25.75 31.25 26.7574 31.25 28Z" fill="white"/>
<path fill-rule="evenodd" clip-rule="evenodd" d="M6.49479 1.91927C5.89792 1.34478 4.94835 1.36293 4.37386 1.9598C3.79937 2.55667 3.81752 3.50624 4.41439 4.08073L19.7623 18.8531C20.4724 18.136 21.2654 17.5012 22.1258 16.9641L6.49479 1.91927Z" fill="#E12A40"/>
</g>
</svg>
