<svg width="40" height="40" viewBox="0 0 40 40" fill="none" xmlns="http://www.w3.org/2000/svg">
<g>
<path fill-rule="evenodd" clip-rule="evenodd" d="M4 4C1.79086 4 0 5.79086 0 8V26C0 28.2091 1.79086 30 4 30H18.5V35H11.5C10.6716 35 10 35.6716 10 36.5C10 37.3284 10.6716 38 11.5 38H28.5C29.3284 38 30 37.3284 30 36.5C30 35.6716 29.3284 35 28.5 35H21.5V30H36C38.2091 30 40 28.2091 40 26V8C40 5.79086 38.2091 4 36 4H4ZM36 7H4C3.44772 7 3 7.44772 3 8V26C3 26.5523 3.44772 27 4 27H36C36.5523 27 37 26.5523 37 26V8C37 7.44772 36.5523 7 36 7Z" fill="white"/>
</g>
</svg>
