<svg width="40" height="40" viewBox="0 0 40 40" fill="none" xmlns="http://www.w3.org/2000/svg">
<path d="M4 1C1.79086 1 0 2.79086 0 5V23C0 25.2091 1.79086 27 4 27H16.0379C16.1169 25.9611 16.3181 24.9563 16.627 24H4C3.44772 24 3 23.5523 3 23V5C3 4.44772 3.44771 4 4 4H36C36.5523 4 37 4.44772 37 5V17.7523C38.1804 18.6751 39.1973 19.7975 40 21.0686V5C40 2.79086 38.2091 1 36 1H4Z" fill="white"/>
<path d="M11.5 32H16.627C16.9717 33.0669 17.4505 34.0736 18.0436 35H11.5C10.6716 35 10 34.3284 10 33.5C10 32.6716 10.6716 32 11.5 32Z" fill="white"/>
<path fill-rule="evenodd" clip-rule="evenodd" d="M40 28C40 34.0751 35.0751 39 29 39C22.9249 39 18 34.0751 18 28C18 21.9249 22.9249 17 29 17C35.0751 17 40 21.9249 40 28ZM24.5806 22.1664C24.9711 22.5569 24.9711 23.1901 24.5806 23.5806C23.4085 24.7527 22.75 26.3424 22.75 28C22.75 29.6576 23.4085 31.2473 24.5806 32.4194C24.9711 32.81 24.9711 33.4431 24.5806 33.8336C24.1901 34.2242 23.5569 34.2242 23.1664 33.8336C21.6192 32.2865 20.75 30.188 20.75 28C20.75 25.812 21.6192 23.7136 23.1664 22.1664C23.5569 21.7759 24.1901 21.7759 24.5806 22.1664ZM26.7019 24.2877C27.0924 24.6782 27.0924 25.3114 26.7019 25.7019C26.0924 26.3114 25.75 27.1381 25.75 28C25.75 28.862 26.0924 29.6886 26.7019 30.2981C27.0924 30.6886 27.0924 31.3218 26.7019 31.7123C26.3114 32.1028 25.6782 32.1028 25.2877 31.7123C24.3031 30.7278 23.75 29.3924 23.75 28C23.75 26.6076 24.3031 25.2723 25.2877 24.2877C25.6782 23.8972 26.3114 23.8972 26.7019 24.2877ZM31.2981 30.2981C30.9076 30.6886 30.9076 31.3218 31.2981 31.7123C31.6886 32.1028 32.3218 32.1028 32.7123 31.7123C33.6969 30.7278 34.25 29.3924 34.25 28C34.25 26.6076 33.6969 25.2723 32.7123 24.2877C32.3218 23.8972 31.6886 23.8972 31.2981 24.2877C30.9076 24.6782 30.9076 25.3114 31.2981 25.7019C31.9076 26.3114 32.25 27.1381 32.25 28C32.25 28.862 31.9076 29.6886 31.2981 30.2981ZM33.4194 33.8336C33.0289 33.4431 33.0289 32.81 33.4194 32.4194C34.5915 31.2473 35.25 29.6576 35.25 28C35.25 26.3424 34.5915 24.7527 33.4194 23.5806C33.0289 23.1901 33.0289 22.5569 33.4194 22.1664C33.8099 21.7759 34.4431 21.7759 34.8336 22.1664C36.3808 23.7136 37.25 25.812 37.25 28C37.25 30.188 36.3808 32.2865 34.8336 33.8336C34.4431 34.2242 33.8099 34.2242 33.4194 33.8336ZM29 30.25C30.2426 30.25 31.25 29.2427 31.25 28C31.25 26.7574 30.2426 25.75 29 25.75C27.7574 25.75 26.75 26.7574 26.75 28C26.75 29.2427 27.7574 30.25 29 30.25Z" fill="white"/>
</svg>
