<svg width="40" height="40" viewBox="0 0 40 40" fill="none" xmlns="http://www.w3.org/2000/svg">
<path fill-rule="evenodd" clip-rule="evenodd" d="M5.03447 1H4C1.79086 1 0 2.79086 0 5V23C0 25.2091 1.79086 27 4 27H16.0379C16.1169 25.9611 16.3181 24.9563 16.627 24H4C3.44772 24 3 23.5523 3 23V5C3 4.44772 3.44772 4 4 4H7.87658L5.03447 1ZM11.5 32H16.627C16.9717 33.0669 17.4505 34.0736 18.0436 35H11.5C10.6716 35 10 34.3284 10 33.5C10 32.6716 10.6716 32 11.5 32ZM40 5V21.0686C39.1973 19.7975 38.1804 18.6751 37 17.7523V5C37 4.44772 36.5523 4 36 4H13.3866L10.5445 1H36C38.2091 1 40 2.79086 40 5ZM29 39C35.0751 39 40 34.0751 40 28C40 21.9249 35.0751 17 29 17C22.9249 17 18 21.9249 18 28C18 34.0751 22.9249 39 29 39ZM24.5806 23.5806C24.9711 23.1901 24.9711 22.5569 24.5806 22.1664C24.1901 21.7759 23.5569 21.7759 23.1664 22.1664C21.6192 23.7136 20.75 25.812 20.75 28C20.75 30.188 21.6192 32.2865 23.1664 33.8336C23.5569 34.2242 24.1901 34.2242 24.5806 33.8336C24.9711 33.4431 24.9711 32.81 24.5806 32.4194C23.4085 31.2473 22.75 29.6576 22.75 28C22.75 26.3424 23.4085 24.7527 24.5806 23.5806ZM26.7019 25.7019C27.0924 25.3114 27.0924 24.6782 26.7019 24.2877C26.3114 23.8972 25.6782 23.8972 25.2877 24.2877C24.3031 25.2723 23.75 26.6076 23.75 28C23.75 29.3924 24.3031 30.7278 25.2877 31.7123C25.6782 32.1028 26.3114 32.1028 26.7019 31.7123C27.0924 31.3218 27.0924 30.6886 26.7019 30.2981C26.0924 29.6886 25.75 28.862 25.75 28C25.75 27.1381 26.0924 26.3114 26.7019 25.7019ZM31.2981 31.7123C30.9076 31.3218 30.9076 30.6886 31.2981 30.2981C31.9076 29.6886 32.25 28.862 32.25 28C32.25 27.1381 31.9076 26.3114 31.2981 25.7019C30.9076 25.3114 30.9076 24.6782 31.2981 24.2877C31.6886 23.8972 32.3218 23.8972 32.7123 24.2877C33.6969 25.2723 34.25 26.6076 34.25 28C34.25 29.3924 33.6969 30.7278 32.7123 31.7123C32.3218 32.1028 31.6886 32.1028 31.2981 31.7123ZM33.4194 32.4194C33.0289 32.81 33.0289 33.4431 33.4194 33.8336C33.8099 34.2242 34.4431 34.2242 34.8336 33.8336C36.3808 32.2865 37.25 30.188 37.25 28C37.25 25.812 36.3808 23.7136 34.8336 22.1664C34.4431 21.7759 33.8099 21.7759 33.4194 22.1664C33.0289 22.5569 33.0289 23.1901 33.4194 23.5806C34.5915 24.7527 35.25 26.3424 35.25 28C35.25 29.6576 34.5915 31.2473 33.4194 32.4194ZM31.25 28C31.25 29.2427 30.2426 30.25 29 30.25C27.7574 30.25 26.75 29.2427 26.75 28C26.75 26.7574 27.7574 25.75 29 25.75C30.2426 25.75 31.25 26.7574 31.25 28Z" fill="white"/>
<path fill-rule="evenodd" clip-rule="evenodd" d="M4.79504 0.673715C4.20925 0.0879284 3.2595 0.0879284 2.67371 0.673715C2.08793 1.2595 2.08793 2.20925 2.67371 2.79504L19.264 19.3853C19.9291 18.6341 20.6799 17.9605 21.501 17.3796L4.79504 0.673715Z" fill="#E12A40"/>
</svg>
