<svg width="40" height="40" viewBox="0 0 40 40" fill="none" xmlns="http://www.w3.org/2000/svg">
<path d="M4 1C1.79086 1 0 2.79086 0 5V23C0 25.2091 1.79086 27 4 27H16.0379C16.1169 25.9611 16.3181 24.9563 16.627 24H4C3.44772 24 3 23.5523 3 23V5C3 4.44772 3.44772 4 4 4H36C36.5523 4 37 4.44772 37 5V17.7523C38.1804 18.6751 39.1973 19.7975 40 21.0686V5C40 2.79086 38.2091 1 36 1H4Z" fill="white"/>
<path d="M11.5 32H16.627C16.9717 33.0669 17.4505 34.0736 18.0436 35H11.5C10.6716 35 10 34.3284 10 33.5C10 32.6716 10.6716 32 11.5 32Z" fill="white"/>
<path fill-rule="evenodd" clip-rule="evenodd" d="M40 28C40 34.0751 35.0751 39 29 39C22.9249 39 18 34.0751 18 28C18 21.9249 22.9249 17 29 17C35.0751 17 40 21.9249 40 28ZM29 22.7563C26.104 22.7563 23.7563 25.104 23.7563 28V31.5438C23.7563 32.096 23.3085 32.5438 22.7563 32.5438C22.204 32.5438 21.7563 32.096 21.7563 31.5438V28C21.7563 23.9994 24.9994 20.7563 29 20.7563C33.0006 20.7563 36.2438 23.9994 36.2438 28V31.5438C36.2438 32.096 35.796 32.5438 35.2438 32.5438C34.6915 32.5438 34.2438 32.096 34.2438 31.5438V28C34.2438 25.104 31.896 22.7563 29 22.7563ZM25.9625 28.675C25.0305 28.675 24.275 29.4305 24.275 30.3625V33.0625C24.275 33.9945 25.0305 34.75 25.9625 34.75C26.8945 34.75 27.65 33.9945 27.65 33.0625V30.3625C27.65 29.4305 26.8945 28.675 25.9625 28.675ZM30.35 30.3625C30.35 29.4305 31.1055 28.675 32.0375 28.675C32.9695 28.675 33.725 29.4305 33.725 30.3625V33.0625C33.725 33.9945 32.9695 34.75 32.0375 34.75C31.1055 34.75 30.35 33.9945 30.35 33.0625V30.3625Z" fill="white"/>
</svg>
