<svg width="40" height="40" viewBox="0 0 40 40" fill="none" xmlns="http://www.w3.org/2000/svg">
<path fill-rule="evenodd" clip-rule="evenodd" d="M5.03447 1H4C1.79086 1 0 2.79086 0 5V23C0 25.2091 1.79086 27 4 27H16.0379C16.1169 25.9611 16.3181 24.9563 16.627 24H4C3.44772 24 3 23.5523 3 23V5C3 4.44772 3.44772 4 4 4H7.87658L5.03447 1ZM11.5 32H16.627C16.9717 33.0669 17.4505 34.0736 18.0436 35H11.5C10.6716 35 10 34.3284 10 33.5C10 32.6716 10.6716 32 11.5 32ZM40 5V21.0686C39.1973 19.7975 38.1804 18.6751 37 17.7523V5C37 4.44772 36.5523 4 36 4H13.3866L10.5445 1H36C38.2091 1 40 2.79086 40 5ZM29 39C35.0751 39 40 34.0751 40 28C40 21.9249 35.0751 17 29 17C22.9249 17 18 21.9249 18 28C18 34.0751 22.9249 39 29 39ZM23.7563 28C23.7563 25.104 26.104 22.7563 29 22.7563C31.896 22.7563 34.2438 25.104 34.2438 28V31.5438C34.2438 32.096 34.6915 32.5438 35.2438 32.5438C35.796 32.5438 36.2438 32.096 36.2438 31.5438V28C36.2438 23.9994 33.0006 20.7563 29 20.7563C24.9994 20.7563 21.7563 23.9994 21.7563 28V31.5438C21.7563 32.096 22.204 32.5438 22.7563 32.5438C23.3085 32.5438 23.7563 32.096 23.7563 31.5438V28ZM24.275 30.3625C24.275 29.4305 25.0305 28.675 25.9625 28.675C26.8945 28.675 27.65 29.4305 27.65 30.3625V33.0625C27.65 33.9945 26.8945 34.75 25.9625 34.75C25.0305 34.75 24.275 33.9945 24.275 33.0625V30.3625ZM32.0375 28.675C31.1055 28.675 30.35 29.4305 30.35 30.3625V33.0625C30.35 33.9945 31.1055 34.75 32.0375 34.75C32.9695 34.75 33.725 33.9945 33.725 33.0625V30.3625C33.725 29.4305 32.9695 28.675 32.0375 28.675Z" fill="white"/>
<path fill-rule="evenodd" clip-rule="evenodd" d="M4.79504 0.673715C4.20925 0.0879284 3.2595 0.0879284 2.67371 0.673715C2.08793 1.2595 2.08793 2.20925 2.67371 2.79504L19.264 19.3853C19.9291 18.6341 20.6799 17.9605 21.501 17.3796L4.79504 0.673715Z" fill="#E12A40"/>
</svg>
