<svg width="40" height="40" viewBox="0 0 40 40" fill="none" xmlns="http://www.w3.org/2000/svg">
    <g>
        <path fill-rule="evenodd" clip-rule="evenodd"
              d="M18 40C15.0533 40 12.2719 39.2919 9.81684 38.0366L2.94174 39.4117C1.5423 39.6915 0.30846 38.4577 0.588348 37.0583L1.96337 30.1832C0.708076 27.7281 0 24.9467 0 22C0 12.0589 8.05887 4 18 4C26.4714 4 33.576 9.85216 35.4915 17.7343C34.3833 17.0943 33.1717 16.6131 31.8881 16.322C29.6497 10.8529 24.2748 7 18 7C9.71573 7 3 13.7157 3 22C3 24.461 3.59033 26.7753 4.63447 28.8174C4.94238 29.4196 5.03776 30.1083 4.90511 30.7715L3.82426 36.1757L9.2285 35.0949C9.89174 34.9622 10.5804 35.0576 11.1826 35.3655C13.2247 36.4097 15.539 37 18 37C18.2476 37 18.4937 36.994 18.7384 36.9821C19.5352 38.005 20.4815 38.9056 21.5446 39.6511C20.3986 39.88 19.2133 40 18 40ZM18 19C18.7308 19 19.4006 19.2613 19.921 19.6956C18.4977 21.0847 17.3919 22.7976 16.7227 24.7153C15.7046 24.2355 15 23.2 15 22C15 20.3431 16.3431 19 18 19ZM6 22C6 20.3431 7.34315 19 9 19C10.6569 19 12 20.3431 12 22C12 23.6569 10.6569 25 9 25C7.34315 25 6 23.6569 6 22ZM29 40C35.0751 40 40 35.0751 40 29C40 22.9249 35.0751 18 29 18C22.9249 18 18 22.9249 18 29C18 35.0751 22.9249 40 29 40ZM23.7563 29C23.7563 26.104 26.104 23.7563 29 23.7563C31.896 23.7563 34.2438 26.104 34.2438 29V32.5438C34.2438 33.096 34.6915 33.5438 35.2438 33.5438C35.796 33.5438 36.2438 33.096 36.2438 32.5438V29C36.2438 24.9994 33.0006 21.7563 29 21.7563C24.9994 21.7563 21.7563 24.9994 21.7563 29V32.5438C21.7563 33.096 22.204 33.5438 22.7563 33.5438C23.3085 33.5438 23.7563 33.096 23.7563 32.5438V29ZM24.275 31.3625C24.275 30.4305 25.0305 29.675 25.9625 29.675C26.8945 29.675 27.65 30.4305 27.65 31.3625V34.0625C27.65 34.9945 26.8945 35.75 25.9625 35.75C25.0305 35.75 24.275 34.9945 24.275 34.0625V31.3625ZM32.0375 29.675C31.1055 29.675 30.35 30.4305 30.35 31.3625V34.0625C30.35 34.9945 31.1055 35.75 32.0375 35.75C32.9695 35.75 33.725 34.9945 33.725 34.0625V31.3625C33.725 30.4305 32.9695 29.675 32.0375 29.675Z"
              fill="white"/>
    </g>
</svg>
