<svg width="40" height="40" viewBox="0 0 40 40" fill="none" xmlns="http://www.w3.org/2000/svg">
    <g>
        <path d="M8 20C8 18.3431 9.34315 17 11 17C12.6569 17 14 18.3431 14 20C14 21.6569 12.6569 23 11 23C9.34315 23 8 21.6569 8 20Z"
              fill="white"/>
        <path d="M20 17C18.3431 17 17 18.3431 17 20C17 21.6569 18.3431 23 20 23C21.6569 23 23 21.6569 23 20C23 18.3431 21.6569 17 20 17Z"
              fill="white"/>
        <path d="M26 20C26 18.3431 27.3431 17 29 17C30.6569 17 32 18.3431 32 20C32 21.6569 30.6569 23 29 23C27.3431 23 26 21.6569 26 20Z"
              fill="white"/>
        <path fill-rule="evenodd" clip-rule="evenodd"
              d="M20 38C17.0533 38 14.2719 37.2919 11.8168 36.0366L4.94174 37.4117C3.5423 37.6915 2.30846 36.4577 2.58835 35.0583L3.96337 28.1832C2.70808 25.7281 2 22.9467 2 20C2 10.0589 10.0589 2 20 2C29.9411 2 38 10.0589 38 20C38 29.9411 29.9411 38 20 38ZM6.63447 26.8174C6.94238 27.4196 7.03776 28.1083 6.90511 28.7715L5.82426 34.1757L11.2285 33.0949C11.8917 32.9622 12.5804 33.0576 13.1826 33.3655C15.2247 34.4097 17.539 35 20 35C28.2843 35 35 28.2843 35 20C35 11.7157 28.2843 5 20 5C11.7157 5 5 11.7157 5 20C5 22.461 5.59033 24.7753 6.63447 26.8174Z"
              fill="white"/>
    </g>
</svg>
