<svg width="40" height="40" viewBox="0 0 40 40" fill="none" xmlns="http://www.w3.org/2000/svg">
    <g>
        <path fill-rule="evenodd" clip-rule="evenodd"
              d="M5.87127 8.69969C2.26358 11.9915 0 16.7314 0 22C0 24.9467 0.708076 27.7281 1.96337 30.1832L0.588348 37.0583C0.30846 38.4577 1.5423 39.6915 2.94174 39.4117L9.81684 38.0366C12.2719 39.2919 15.0533 40 18 40C19.2133 40 20.3986 39.88 21.5446 39.6511C20.4815 38.9056 19.5352 38.005 18.7384 36.9821C18.4937 36.994 18.2476 37 18 37C15.539 37 13.2247 36.4097 11.1826 35.3655C10.5804 35.0576 9.89174 34.9622 9.2285 35.0949L3.82426 36.1757L4.90511 30.7715C5.03776 30.1083 4.94238 29.4196 4.63447 28.8174C3.59033 26.7753 3 24.461 3 22C3 17.5598 4.92927 13.5702 7.99527 10.8237L5.87127 8.69969ZM18 4C26.4714 4 33.576 9.85216 35.4915 17.7343C34.3833 17.0943 33.1717 16.6131 31.8881 16.322C29.6497 10.8529 24.2748 7 18 7C15.6197 7 13.3689 7.55444 11.3696 8.54122L9.15044 6.32202C11.7637 4.84376 14.7833 4 18 4ZM16.5465 19.375L18.5022 21.3306C17.7524 22.3552 17.1489 23.4937 16.7227 24.7153C15.7046 24.2355 15 23.2 15 22C15 20.8705 15.6242 19.8867 16.5465 19.375ZM9 19C7.34315 19 6 20.3431 6 22C6 23.6569 7.34315 25 9 25C10.6569 25 12 23.6569 12 22C12 20.3431 10.6569 19 9 19ZM29 40C35.0751 40 40 35.0751 40 29C40 22.9249 35.0751 18 29 18C22.9249 18 18 22.9249 18 29C18 35.0751 22.9249 40 29 40ZM24.5806 24.5806C24.9711 24.1901 24.9711 23.5569 24.5806 23.1664C24.1901 22.7759 23.5569 22.7759 23.1664 23.1664C21.6192 24.7136 20.75 26.812 20.75 29C20.75 31.188 21.6192 33.2865 23.1664 34.8336C23.5569 35.2242 24.1901 35.2242 24.5806 34.8336C24.9711 34.4431 24.9711 33.81 24.5806 33.4194C23.4085 32.2473 22.75 30.6576 22.75 29C22.75 27.3424 23.4085 25.7527 24.5806 24.5806ZM26.7019 26.7019C27.0924 26.3114 27.0924 25.6782 26.7019 25.2877C26.3114 24.8972 25.6782 24.8972 25.2877 25.2877C24.3031 26.2723 23.75 27.6076 23.75 29C23.75 30.3924 24.3031 31.7278 25.2877 32.7123C25.6782 33.1028 26.3114 33.1028 26.7019 32.7123C27.0924 32.3218 27.0924 31.6886 26.7019 31.2981C26.0924 30.6886 25.75 29.862 25.75 29C25.75 28.1381 26.0924 27.3114 26.7019 26.7019ZM31.2981 32.7123C30.9076 32.3218 30.9076 31.6886 31.2981 31.2981C31.9076 30.6886 32.25 29.862 32.25 29C32.25 28.1381 31.9076 27.3114 31.2981 26.7019C30.9076 26.3114 30.9076 25.6782 31.2981 25.2877C31.6886 24.8972 32.3218 24.8972 32.7123 25.2877C33.6969 26.2723 34.25 27.6076 34.25 29C34.25 30.3924 33.6969 31.7278 32.7123 32.7123C32.3218 33.1028 31.6886 33.1028 31.2981 32.7123ZM33.4194 33.4194C33.0289 33.81 33.0289 34.4431 33.4194 34.8336C33.8099 35.2242 34.4431 35.2242 34.8336 34.8336C36.3808 33.2865 37.25 31.188 37.25 29C37.25 26.812 36.3808 24.7136 34.8336 23.1664C34.4431 22.7759 33.8099 22.7759 33.4194 23.1664C33.0289 23.5569 33.0289 24.1901 33.4194 24.5806C34.5915 25.7527 35.25 27.3424 35.25 29C35.25 30.6576 34.5915 32.2473 33.4194 33.4194ZM31.25 29C31.25 30.2427 30.2426 31.25 29 31.25C27.7574 31.25 26.75 30.2427 26.75 29C26.75 27.7574 27.7574 26.75 29 26.75C30.2426 26.75 31.25 27.7574 31.25 29Z"
              fill="white"/>
        <path fill-rule="evenodd" clip-rule="evenodd"
              d="M3.06066 4.93934C2.47487 4.35355 1.52513 4.35355 0.93934 4.93934C0.353553 5.52513 0.353553 6.47487 0.93934 7.06066L17.2692 23.3905C17.7157 22.4584 18.2701 21.5878 18.9161 20.7948L3.06066 4.93934Z"
              fill="#E12A40"/>
    </g>
</svg>
