<svg width="40" height="40" viewBox="0 0 40 40" fill="none" xmlns="http://www.w3.org/2000/svg">
<g>
<path fill-rule="evenodd" clip-rule="evenodd" d="M8 4C8 1.79086 9.79086 0 12 0H20C22.2091 0 24 1.79086 24 4V16.3479C22.9445 16.5972 21.9386 16.9752 21 17.4644V4C21 3.44772 20.5523 3 20 3H12C11.4477 3 11 3.44772 11 4V8.17157L8 5.17157V4ZM28.1228 16.0478C28.4977 16.0799 28.868 16.1279 29.2332 16.1911C29.0164 16.0694 28.7663 16 28.5 16C28.3697 16 28.2433 16.0166 28.1228 16.0478ZM11 21L16.7523 21C16.9593 20.7353 17.1762 20.4788 17.4027 20.2311L15.1716 18H11V13.8284L8 10.8284V28C8 30.2091 9.79086 32 12 32H14.3479C14.1204 31.037 14 30.0325 14 29H12C11.4477 29 11 28.5523 11 28V21ZM20.0686 40C17.4005 38.3152 15.3879 35.6865 14.5 32.5829V37H7.5C6.67157 37 6 37.6716 6 38.5C6 39.3284 6.67157 40 7.5 40L20.0686 40ZM3.5 16C4.32843 16 5 16.6716 5 17.5V22.5C5 23.3284 4.32843 24 3.5 24C2.67157 24 2 23.3284 2 22.5V17.5C2 16.6716 2.67157 16 3.5 16ZM27 40C33.0751 40 38 35.0751 38 29C38 22.9249 33.0751 18 27 18C20.9249 18 16 22.9249 16 29C16 35.0751 20.9249 40 27 40ZM21.7563 29C21.7563 26.104 24.104 23.7563 27 23.7563C29.896 23.7563 32.2438 26.104 32.2438 29V32.5438C32.2438 33.096 32.6915 33.5438 33.2438 33.5438C33.796 33.5438 34.2438 33.096 34.2438 32.5438V29C34.2438 24.9994 31.0006 21.7563 27 21.7563C22.9994 21.7563 19.7563 24.9994 19.7563 29V32.5438C19.7563 33.096 20.204 33.5438 20.7563 33.5438C21.3085 33.5438 21.7563 33.096 21.7563 32.5438V29ZM22.275 31.3625C22.275 30.4305 23.0305 29.675 23.9625 29.675C24.8945 29.675 25.65 30.4305 25.65 31.3625V34.0625C25.65 34.9945 24.8945 35.75 23.9625 35.75C23.0305 35.75 22.275 34.9945 22.275 34.0625V31.3625ZM30.0375 29.675C29.1055 29.675 28.35 30.4305 28.35 31.3625V34.0625C28.35 34.9945 29.1055 35.75 30.0375 35.75C30.9695 35.75 31.725 34.9945 31.725 34.0625V31.3625C31.725 30.4305 30.9695 29.675 30.0375 29.675Z" fill="white"/>
<path fill-rule="evenodd" clip-rule="evenodd" d="M3.06066 4.93934C2.47487 4.35355 1.52513 4.35355 0.93934 4.93934C0.353553 5.52513 0.353553 6.47487 0.93934 7.06066L15.9796 22.101C16.5172 21.2441 17.152 20.4543 17.8685 19.7472L3.06066 4.93934Z" fill="#E12A40"/>
</g>
</svg>
