<svg width="40" height="40" viewBox="0 0 40 40" fill="none" xmlns="http://www.w3.org/2000/svg">
<g>
<path fill-rule="evenodd" clip-rule="evenodd" d="M8 4C8 1.79086 9.79086 0 12 0H20C22.2091 0 24 1.79086 24 4V16.3479C22.9445 16.5972 21.9386 16.9752 21 17.4644V4C21 3.44772 20.5523 3 20 3H12C11.4477 3 11 3.44772 11 4V8.17157L8 5.17157V4ZM28.1228 16.0478C28.4977 16.0799 28.868 16.1279 29.2332 16.1911C29.0164 16.0694 28.7663 16 28.5 16C28.3697 16 28.2433 16.0166 28.1228 16.0478ZM11 21L16.7523 21C16.9593 20.7353 17.1762 20.4788 17.4027 20.2311L15.1716 18H11V13.8284L8 10.8284V28C8 30.2091 9.79086 32 12 32H14.3479C14.1204 31.037 14 30.0325 14 29H12C11.4477 29 11 28.5523 11 28V21ZM20.0686 40C17.4005 38.3152 15.3879 35.6865 14.5 32.5829V37H7.5C6.67157 37 6 37.6716 6 38.5C6 39.3284 6.67157 40 7.5 40L20.0686 40ZM3.5 16C4.32843 16 5 16.6716 5 17.5V22.5C5 23.3284 4.32843 24 3.5 24C2.67157 24 2 23.3284 2 22.5V17.5C2 16.6716 2.67157 16 3.5 16ZM27 40C33.0751 40 38 35.0751 38 29C38 22.9249 33.0751 18 27 18C20.9249 18 16 22.9249 16 29C16 35.0751 20.9249 40 27 40ZM22.5806 24.5806C22.9711 24.1901 22.9711 23.5569 22.5806 23.1664C22.1901 22.7759 21.5569 22.7759 21.1664 23.1664C19.6192 24.7136 18.75 26.812 18.75 29C18.75 31.188 19.6192 33.2865 21.1664 34.8336C21.5569 35.2242 22.1901 35.2242 22.5806 34.8336C22.9711 34.4431 22.9711 33.81 22.5806 33.4194C21.4085 32.2473 20.75 30.6576 20.75 29C20.75 27.3424 21.4085 25.7527 22.5806 24.5806ZM24.7019 26.7019C25.0924 26.3114 25.0924 25.6782 24.7019 25.2877C24.3114 24.8972 23.6782 24.8972 23.2877 25.2877C22.3031 26.2723 21.75 27.6076 21.75 29C21.75 30.3924 22.3031 31.7278 23.2877 32.7123C23.6782 33.1028 24.3114 33.1028 24.7019 32.7123C25.0924 32.3218 25.0924 31.6886 24.7019 31.2981C24.0924 30.6886 23.75 29.862 23.75 29C23.75 28.1381 24.0924 27.3114 24.7019 26.7019ZM29.2981 32.7123C28.9076 32.3218 28.9076 31.6886 29.2981 31.2981C29.9076 30.6886 30.25 29.862 30.25 29C30.25 28.1381 29.9076 27.3114 29.2981 26.7019C28.9076 26.3114 28.9076 25.6782 29.2981 25.2877C29.6886 24.8972 30.3218 24.8972 30.7123 25.2877C31.6969 26.2723 32.25 27.6076 32.25 29C32.25 30.3924 31.6969 31.7278 30.7123 32.7123C30.3218 33.1029 29.6886 33.1029 29.2981 32.7123ZM31.4194 33.4194C31.0289 33.81 31.0289 34.4431 31.4194 34.8336C31.8099 35.2242 32.4431 35.2242 32.8336 34.8336C34.3808 33.2865 35.25 31.188 35.25 29C35.25 26.812 34.3808 24.7136 32.8336 23.1664C32.4431 22.7759 31.8099 22.7759 31.4194 23.1664C31.0289 23.5569 31.0289 24.1901 31.4194 24.5806C32.5915 25.7527 33.25 27.3424 33.25 29C33.25 30.6576 32.5915 32.2473 31.4194 33.4194ZM29.25 29C29.25 30.2427 28.2426 31.25 27 31.25C25.7574 31.25 24.75 30.2427 24.75 29C24.75 27.7574 25.7574 26.75 27 26.75C28.2426 26.75 29.25 27.7574 29.25 29Z" fill="white"/>
<path fill-rule="evenodd" clip-rule="evenodd" d="M3.06066 4.93934C2.47487 4.35355 1.52513 4.35355 0.93934 4.93934C0.353553 5.52513 0.353553 6.47487 0.93934 7.06066L15.9796 22.101C16.5172 21.2441 17.152 20.4543 17.8685 19.7472L3.06066 4.93934Z" fill="#E12A40"/>
</g>
</svg>
