<svg width="40" height="40" viewBox="0 0 40 40" fill="none" xmlns="http://www.w3.org/2000/svg">
<path d="M12 0C9.79086 0 8 1.79086 8 4V28C8 30.2091 9.79086 32 12 32H14.3479C14.1204 31.037 14 30.0325 14 29H12C11.4477 29 11 28.5523 11 28V21H16.7523C17.6751 19.8196 18.7975 18.8027 20.0686 18L11 18V4C11 3.44772 11.4477 3 12 3H20C20.5523 3 21 3.44772 21 4V17.4644C21.9386 16.9752 22.9445 16.5972 24 16.3479V4C24 1.79086 22.2091 0 20 0H12Z" fill="white"/>
<path d="M14.5 37V32.5829C15.3879 35.6865 17.4005 38.3152 20.0686 40H7.5C6.67157 40 6 39.3284 6 38.5C6 37.6716 6.67157 37 7.5 37H14.5Z" fill="white"/>
<path d="M28.5 16C28.7663 16 29.0164 16.0694 29.2332 16.1911C28.868 16.1279 28.4977 16.0799 28.1228 16.0478C28.2433 16.0166 28.3697 16 28.5 16Z" fill="white"/>
<path d="M5 17.5C5 16.6716 4.32843 16 3.5 16C2.67157 16 2 16.6716 2 17.5V22.5C2 23.3284 2.67157 24 3.5 24C4.32843 24 5 23.3284 5 22.5V17.5Z" fill="white"/>
<path fill-rule="evenodd" clip-rule="evenodd" d="M38 29C38 35.0751 33.0751 40 27 40C20.9249 40 16 35.0751 16 29C16 22.9249 20.9249 18 27 18C33.0751 18 38 22.9249 38 29ZM22.5806 23.1664C22.9711 23.5569 22.9711 24.1901 22.5806 24.5806C21.4085 25.7527 20.75 27.3424 20.75 29C20.75 30.6576 21.4085 32.2473 22.5806 33.4194C22.9711 33.81 22.9711 34.4431 22.5806 34.8336C22.1901 35.2242 21.5569 35.2242 21.1664 34.8336C19.6192 33.2865 18.75 31.188 18.75 29C18.75 26.812 19.6192 24.7136 21.1664 23.1664C21.5569 22.7759 22.1901 22.7759 22.5806 23.1664ZM24.7019 25.2877C25.0924 25.6782 25.0924 26.3114 24.7019 26.7019C24.0924 27.3114 23.75 28.1381 23.75 29C23.75 29.862 24.0924 30.6886 24.7019 31.2981C25.0924 31.6886 25.0924 32.3218 24.7019 32.7123C24.3114 33.1029 23.6782 33.1029 23.2877 32.7123C22.3031 31.7278 21.75 30.3924 21.75 29C21.75 27.6076 22.3031 26.2723 23.2877 25.2877C23.6782 24.8972 24.3114 24.8972 24.7019 25.2877ZM29.2981 31.2981C28.9076 31.6886 28.9076 32.3218 29.2981 32.7123C29.6886 33.1029 30.3218 33.1029 30.7123 32.7123C31.6969 31.7278 32.25 30.3924 32.25 29C32.25 27.6076 31.6969 26.2723 30.7123 25.2877C30.3218 24.8972 29.6886 24.8972 29.2981 25.2877C28.9076 25.6782 28.9076 26.3114 29.2981 26.7019C29.9076 27.3114 30.25 28.1381 30.25 29C30.25 29.862 29.9076 30.6886 29.2981 31.2981ZM31.4194 34.8336C31.0289 34.4431 31.0289 33.81 31.4194 33.4194C32.5915 32.2473 33.25 30.6576 33.25 29C33.25 27.3424 32.5915 25.7527 31.4194 24.5806C31.0289 24.1901 31.0289 23.5569 31.4194 23.1664C31.8099 22.7759 32.4431 22.7759 32.8336 23.1664C34.3808 24.7136 35.25 26.812 35.25 29C35.25 31.188 34.3808 33.2865 32.8336 34.8336C32.4431 35.2242 31.8099 35.2242 31.4194 34.8336ZM27 31.25C28.2426 31.25 29.25 30.2427 29.25 29C29.25 27.7574 28.2426 26.75 27 26.75C25.7574 26.75 24.75 27.7574 24.75 29C24.75 30.2427 25.7574 31.25 27 31.25Z" fill="white"/>
</svg>
