<svg width="40" height="40" viewBox="0 0 40 40" fill="none" xmlns="http://www.w3.org/2000/svg">
<path d="M12 0C9.79086 0 8 1.79086 8 4V28C8 30.2091 9.79086 32 12 32H14.3479C14.1204 31.037 14 30.0325 14 29H12C11.4477 29 11 28.5523 11 28V21L16.7523 21C17.6751 19.8196 18.7975 18.8027 20.0686 18L11 18V4C11 3.44771 11.4477 3 12 3H20C20.5523 3 21 3.44771 21 4V17.4644C21.9386 16.9752 22.9445 16.5972 24 16.3479V4C24 1.79086 22.2091 0 20 0H12Z" fill="white"/>
<path d="M14.5 37V32.5829C15.3879 35.6865 17.4005 38.3152 20.0686 40L7.5 40C6.67157 40 6 39.3284 6 38.5C6 37.6716 6.67157 37 7.5 37H14.5Z" fill="white"/>
<path d="M28.5 16C28.7663 16 29.0164 16.0694 29.2332 16.1911C28.868 16.1279 28.4977 16.0799 28.1228 16.0478C28.2433 16.0166 28.3697 16 28.5 16Z" fill="white"/>
<path d="M5 17.5C5 16.6716 4.32843 16 3.5 16C2.67157 16 2 16.6716 2 17.5V22.5C2 23.3284 2.67157 24 3.5 24C4.32843 24 5 23.3284 5 22.5L5 17.5Z" fill="white"/>
<path fill-rule="evenodd" clip-rule="evenodd" d="M38 29C38 35.0751 33.0751 40 27 40C20.9249 40 16 35.0751 16 29C16 22.9249 20.9249 18 27 18C33.0751 18 38 22.9249 38 29ZM27 23.7562C24.104 23.7562 21.7562 26.104 21.7562 29V32.5437C21.7562 33.096 21.3085 33.5437 20.7562 33.5437C20.204 33.5437 19.7562 33.096 19.7562 32.5437V29C19.7562 24.9994 22.9994 21.7562 27 21.7562C31.0006 21.7562 34.2437 24.9994 34.2437 29V32.5437C34.2437 33.096 33.796 33.5437 33.2437 33.5437C32.6915 33.5437 32.2437 33.096 32.2437 32.5437V29C32.2437 26.104 29.896 23.7562 27 23.7562ZM23.9625 29.675C23.0305 29.675 22.275 30.4305 22.275 31.3625V34.0625C22.275 34.9945 23.0305 35.75 23.9625 35.75C24.8945 35.75 25.65 34.9945 25.65 34.0625V31.3625C25.65 30.4305 24.8945 29.675 23.9625 29.675ZM28.35 31.3625C28.35 30.4305 29.1055 29.675 30.0375 29.675C30.9695 29.675 31.725 30.4305 31.725 31.3625V34.0625C31.725 34.9945 30.9695 35.75 30.0375 35.75C29.1055 35.75 28.35 34.9945 28.35 34.0625V31.3625Z" fill="white"/>
</svg>
