<svg width="144" height="144" viewBox="0 0 144 144" fill="none" xmlns="http://www.w3.org/2000/svg">
<path fill-rule="evenodd" clip-rule="evenodd" d="M70.214 50.1357C71.2204 50.5349 71.7999 51.5941 71.5931 52.6569C69.3707 64.0821 68.955 70.5311 69.8666 75.5695C70.2697 77.7973 70.9367 79.7875 71.8827 81.86C71.8054 77.8652 72.0422 74.4813 72.6008 71.3962C73.5849 65.9608 75.542 61.5997 78.2839 56.5999C78.7881 55.6805 79.8606 55.2312 80.8696 55.5169C81.8786 55.8025 82.5564 56.7473 82.5039 57.7946C82.2228 63.3948 82.8242 68.3212 84.0737 72.9368C84.6752 67.6959 85.9799 63.2342 89.3734 59.0016C89.9369 58.2987 90.8654 57.9998 91.7332 58.2418C92.601 58.4838 93.2408 59.2201 93.3593 60.1131C93.7854 63.3246 94.1379 65.1369 94.7517 66.5134C95.2493 67.6291 95.9712 68.5673 97.3675 69.75H99.9625C101.205 69.75 102.212 70.7573 102.212 72C102.212 73.2426 101.205 74.25 99.9625 74.25H96.5649C96.0576 74.25 95.5651 74.0785 95.1674 73.7634C93.0507 72.0859 91.607 70.5105 90.6419 68.3462C90.4138 67.8347 90.2171 67.2995 90.0438 66.7354C88.457 70.8835 88.2578 75.8225 87.9642 83.1051C87.9565 83.2957 87.9488 83.4879 87.9409 83.6818C87.8991 84.7162 87.1569 85.5885 86.1426 85.7955C85.1283 86.0024 84.1037 85.4906 83.66 84.5553C81.0757 79.1083 79.1537 73.4925 78.3499 67.1477C77.7889 68.7715 77.3501 70.4235 77.0288 72.198C76.1617 76.9869 76.1252 82.8139 77.0579 91.5334C77.1702 92.5835 76.5371 93.5704 75.5357 93.906C74.5344 94.2417 73.4344 93.8358 72.8912 92.9301L72.8437 92.851C69.2018 86.7801 66.51 82.2929 65.4385 76.3707C64.7496 72.563 64.7401 68.2431 65.4179 62.5785C64.9776 63.381 64.5598 64.2157 64.1634 65.1129C62.36 69.1939 61.0545 74.5457 60.7612 83.6632C60.7275 84.7113 59.9742 85.5971 58.9452 85.7989C57.9162 86.0006 56.8842 85.4647 56.4573 84.5069C54.5464 80.22 53.1503 77.0051 52.2381 73.4487C51.7548 71.5646 51.4131 69.6104 51.1853 67.3692C50.6607 68.6631 50.2752 70.1755 49.851 72.4181C49.6501 73.4807 48.7216 74.25 47.6402 74.25H44.2427C43 74.25 41.9927 73.2426 41.9927 72C41.9927 70.7573 43 69.75 44.2427 69.75H45.8021C46.2164 67.879 46.6882 66.3206 47.3876 64.8237C48.3043 62.8618 49.5541 61.1287 51.3453 58.9716C51.9469 58.2472 52.9361 57.974 53.8242 58.287C54.7124 58.6001 55.3117 59.4331 55.326 60.3747C55.4086 65.7766 55.8 69.2236 56.597 72.3307C56.7406 72.8905 56.898 73.4423 57.0707 73.9958C57.7337 69.6107 58.7521 66.2252 60.0473 63.294C61.5089 59.9865 63.3574 57.2354 65.2421 54.4305C65.9903 53.317 66.7442 52.195 67.4819 51.0263C68.0597 50.1108 69.2077 49.7366 70.214 50.1357Z" fill="white"/>
</svg>
