<svg width="144" height="144" viewBox="0 0 144 144" fill="none" xmlns="http://www.w3.org/2000/svg">
<path fill-rule="evenodd" clip-rule="evenodd" d="M70.214 50.1356C71.2204 50.5347 71.7999 51.594 71.5931 52.6567C69.3707 64.0819 68.955 70.5309 69.8666 75.5693C70.2697 77.7971 70.9367 79.7873 71.8827 81.8599C71.8054 77.865 72.0422 74.4811 72.6008 71.3961C73.5849 65.9606 75.542 61.5995 78.2839 56.5997C78.7881 55.6803 79.8606 55.2311 80.8696 55.5167C81.8785 55.8023 82.5564 56.7471 82.5039 57.7944C82.2228 63.3946 82.8242 68.321 84.0737 72.9366C84.6752 67.6957 85.9799 63.234 89.3734 59.0014C89.9369 58.2986 90.8654 57.9996 91.7332 58.2416C92.601 58.4836 93.2408 59.2199 93.3593 60.113C93.7854 63.3244 94.1379 65.1367 94.7517 66.5132C95.2493 67.6289 95.9712 68.5671 97.3675 69.7498H99.9625C101.205 69.7498 102.212 70.7571 102.212 71.9998C102.212 73.2424 101.205 74.2498 99.9625 74.2498H96.5649C96.0576 74.2498 95.5651 74.0783 95.1674 73.7632C93.0507 72.0857 91.607 70.5103 90.6419 68.346C90.4138 67.8345 90.2171 67.2994 90.0438 66.7352C88.457 70.8833 88.2578 75.8223 87.9642 83.1049C87.9565 83.2955 87.9488 83.4878 87.9409 83.6816C87.8991 84.716 87.1569 85.5883 86.1426 85.7953C85.1283 86.0022 84.1037 85.4904 83.6599 84.5551C81.0757 79.1081 79.1537 73.4923 78.3499 67.1475C77.7889 68.7713 77.3501 70.4233 77.0288 72.1978C76.1617 76.9867 76.1252 82.8137 77.0579 91.5332C77.1702 92.5833 76.5371 93.5702 75.5357 93.9058C74.5344 94.2415 73.4344 93.8356 72.8911 92.93L72.8437 92.8509C69.2018 86.7799 66.51 82.2927 65.4385 76.3705C64.7496 72.5628 64.7401 68.2429 65.4178 62.5783C64.9776 63.3808 64.5598 64.2155 64.1634 65.1127C62.36 69.1937 61.0545 74.5456 60.7612 83.663C60.7275 84.7111 59.9742 85.597 58.9452 85.7987C57.9162 86.0004 56.8842 85.4645 56.4573 84.5067C54.5464 80.2198 53.1503 77.0049 52.2381 73.4486C51.7548 71.5644 51.4131 69.6103 51.1853 67.3691C50.6607 68.6629 50.2752 70.1753 49.851 72.4179C49.6501 73.4805 48.7216 74.2498 47.6402 74.2498H44.2427C43 74.2498 41.9927 73.2424 41.9927 71.9998C41.9927 70.7571 43 69.7498 44.2427 69.7498H45.8021C46.2164 67.8788 46.6882 66.3204 47.3876 64.8235C48.3043 62.8616 49.5541 61.1285 51.3453 58.9715C51.9469 58.247 52.9361 57.9738 53.8242 58.2868C54.7124 58.5999 55.3117 59.4329 55.326 60.3745C55.4086 65.7764 55.8 69.2235 56.597 72.3305C56.7406 72.8904 56.898 73.4422 57.0707 73.9956C57.7337 69.6106 58.7521 66.225 60.0473 63.2938C61.5089 59.9863 63.3574 57.2352 65.2421 54.4303C65.9903 53.3168 66.7442 52.1948 67.4818 51.0261C68.0597 50.1106 69.2077 49.7364 70.214 50.1356Z" fill="white"/>
</g>
</svg>
