<svg width="144" height="144" viewBox="0 0 144 144" fill="none" xmlns="http://www.w3.org/2000/svg">
<path fill-rule="evenodd" clip-rule="evenodd" d="M61.7264 59.9687C61.1287 61.0255 60.5639 62.1249 60.0473 63.2938C58.7521 66.225 57.7337 69.6106 57.0707 73.9956C56.898 73.4422 56.7406 72.8904 56.597 72.3305C55.8 69.2235 55.4086 65.7764 55.326 60.3745C55.3117 59.4329 54.7124 58.5999 53.8242 58.2868C52.9361 57.9738 51.9469 58.247 51.3453 58.9715C49.5541 61.1285 48.3043 62.8616 47.3876 64.8235C46.6882 66.3204 46.2164 67.8788 45.8021 69.7498H44.2427C43 69.7498 41.9927 70.7571 41.9927 71.9998C41.9927 73.2424 43 74.2498 44.2427 74.2498H47.6402C48.7216 74.2498 49.6501 73.4805 49.851 72.4179C50.2752 70.1753 50.6607 68.6629 51.1853 67.3691C51.4131 69.6103 51.7548 71.5644 52.2381 73.4486C53.1503 77.0049 54.5464 80.2198 56.4573 84.5067C56.8842 85.4645 57.9162 86.0004 58.9452 85.7987C59.9742 85.597 60.7275 84.7111 60.7612 83.663C61.0545 74.5456 62.36 69.1937 64.1634 65.1127C64.4451 64.4751 64.7377 63.869 65.0414 63.2837L61.7264 59.9687ZM65.307 63.5493C64.7434 68.7417 64.7895 72.7834 65.4385 76.3705C66.51 82.2927 69.2018 86.7799 72.8437 92.8509L72.8911 92.93C73.4344 93.8356 74.5344 94.2415 75.5357 93.9058C76.5371 93.5702 77.1702 92.5833 77.0579 91.5332C76.2925 84.3776 76.1798 79.17 76.6432 74.8855L72.688 70.9303C72.6581 71.0847 72.629 71.2399 72.6008 71.3961C72.0422 74.4811 71.8054 77.865 71.8827 81.8599C70.9367 79.7873 70.2697 77.7971 69.8666 75.5693C69.4623 73.3345 69.3191 70.8222 69.4788 67.7211L65.307 63.5493ZM74.5846 64.3416L78.11 67.867C78.1873 67.6263 78.2673 67.3866 78.3499 67.1475C78.3972 67.5209 78.4484 67.8918 78.5033 68.2603L88.1957 77.9527C88.4504 73.3485 88.8627 69.8227 90.0438 66.7352C90.2171 67.2994 90.4138 67.8345 90.6419 68.346C91.607 70.5103 93.0507 72.0857 95.1674 73.7632C95.5651 74.0783 96.0576 74.2498 96.5649 74.2498H99.9625C101.205 74.2498 102.212 73.2424 102.212 71.9998C102.212 70.7571 101.205 69.7498 99.9625 69.7498H97.3675C95.9712 68.5671 95.2493 67.6289 94.7517 66.5132C94.1379 65.1367 93.7854 63.3244 93.3593 60.113C93.2408 59.2199 92.601 58.4836 91.7332 58.2416C90.8654 57.9996 89.9369 58.2986 89.3734 59.0014C85.9799 63.234 84.6752 67.6957 84.0737 72.9366C82.8242 68.321 82.2228 63.3946 82.5039 57.7944C82.5564 56.7471 81.8785 55.8023 80.8696 55.5167C79.8606 55.2311 78.7881 55.6803 78.2839 56.5997C76.8164 59.2758 75.5736 61.7688 74.5846 64.3416ZM87.1023 85.3446L81.6355 79.8778C82.2504 81.4589 82.9287 83.0138 83.6599 84.5551C84.1037 85.4904 85.1283 86.0022 86.1426 85.7953C86.5033 85.7217 86.8297 85.5639 87.1023 85.3446ZM70.3007 60.0577L65.0135 54.7705C65.0896 54.6572 65.1658 54.5438 65.2421 54.4303C65.9903 53.3168 66.7442 52.1948 67.4818 51.0261C68.0597 50.1106 69.2077 49.7364 70.214 50.1356C71.2204 50.5347 71.7999 51.594 71.5931 52.6567C71.0609 55.3928 70.6323 57.8435 70.3007 60.0577Z" fill="white"/>
<path d="M51 51L94.5 94.5" stroke="#E12A40" stroke-width="4.5" stroke-linecap="round" stroke-linejoin="round"/>
</g>
</svg>
