<svg width="144" height="144" viewBox="0 0 144 144" fill="none" xmlns="http://www.w3.org/2000/svg">
<path fill-rule="evenodd" clip-rule="evenodd" d="M70.1547 42.1663C71.1495 42.5793 71.7121 43.6394 71.4965 44.6948C69.2829 55.529 68.8769 61.6106 69.7768 66.3459C70.1749 68.4406 70.8336 70.3127 71.7711 72.2678C71.6994 68.5055 71.9367 65.3077 72.4921 62.3873C73.4787 57.1995 75.4404 53.0425 78.1748 48.2953C78.6944 47.3934 79.7647 46.9655 80.7628 47.2608C81.7609 47.5561 82.4262 48.4974 82.3714 49.5368C82.0929 54.8184 82.6875 59.4656 83.9257 63.8231C84.53 58.8463 85.8404 54.5881 89.236 50.556C89.8082 49.8765 90.7267 49.5973 91.5803 49.8434C92.434 50.0896 93.0628 50.8149 93.1854 51.6948C93.6101 54.7419 93.9583 56.4329 94.5568 57.7106C95.0411 58.7446 95.7488 59.6253 97.1452 60.7501H99.7584C101.001 60.7501 102.008 61.7574 102.008 63.0001C102.008 64.2427 101.001 65.2501 99.7584 65.2501H96.3732C95.8842 65.2501 95.4085 65.0907 95.0181 64.7962C92.9116 63.2069 91.4574 61.7026 90.4817 59.6193C90.2505 59.1259 90.0514 58.6098 89.8764 58.0665C88.3021 61.9729 88.1046 66.6337 87.8109 73.5666C87.8036 73.7398 87.7962 73.9143 87.7887 74.0903C87.7452 75.1156 87.0133 75.9815 86.0096 76.1954C85.0059 76.4092 83.9847 75.9168 83.5269 74.9983C80.9509 69.8289 79.0303 64.4923 78.2231 58.4617C77.6661 59.9956 77.2311 61.5543 76.9128 63.228C76.0547 67.7403 76.016 73.2428 76.9442 81.5045C77.0613 82.5471 76.4424 83.5322 75.4524 83.8791C74.4623 84.2261 73.3639 83.8428 72.8046 82.9552L72.7444 82.8596C69.1273 77.1192 66.4303 72.8389 65.356 67.1861C64.6701 63.5771 64.6563 59.4939 65.3162 54.173C64.8827 54.9263 64.4712 55.7097 64.0803 56.5518C62.2965 60.3951 60.9998 65.4432 60.7083 74.0708C60.6732 75.1103 59.9301 75.9903 58.9111 76.199C57.8921 76.4077 56.8629 75.8908 56.4219 74.9488C54.5191 70.8848 53.121 67.8214 52.2071 64.4294C51.7257 62.6427 51.3849 60.7915 51.157 58.675C50.6389 59.8879 50.2568 61.31 49.834 63.4385C49.6248 64.4915 48.7007 65.2501 47.6271 65.2501H44.2419C42.9993 65.2501 41.9919 64.2427 41.9919 63.0001C41.9919 61.7574 42.9993 60.7501 44.2419 60.7501H45.8087C46.2198 58.996 46.6909 57.5225 47.3865 56.1051C48.3085 54.2265 49.5626 52.5729 51.3477 50.5264C51.96 49.8244 52.9414 49.5723 53.8161 49.8922C54.6909 50.2121 55.2781 51.038 55.293 51.9692C55.3751 57.0836 55.7642 60.3341 56.5522 63.2587C56.6946 63.7872 56.8507 64.3082 57.0221 64.831C57.6853 60.6693 58.703 57.4486 59.9986 54.6573C61.4609 51.5066 63.3139 48.8811 65.1946 46.2164C65.9384 45.1624 66.6867 44.1023 67.4167 43.0011C68.0119 42.1033 69.1599 41.7533 70.1547 42.1663Z" fill="white"/>
<path fill-rule="evenodd" clip-rule="evenodd" d="M91.1481 98.7716C90.5999 98.9987 89.9967 99.0581 89.4147 98.9424C88.8328 98.8266 88.2982 98.5409 87.8787 98.1213C87.2929 97.5355 86.3431 97.5355 85.7574 98.1213C85.1716 98.7071 85.1716 99.6569 85.7574 100.243C86.5965 101.082 87.6656 101.653 88.8295 101.885C89.9933 102.116 91.1997 101.997 92.2961 101.543C93.3925 101.089 94.3295 100.32 94.9888 99.3334C95.6481 98.3467 96 97.1867 96 96C96 94.8133 95.6481 93.6533 94.9888 92.6666C94.3295 91.6799 93.3925 90.9109 92.2961 90.4567C91.1997 90.0026 89.9933 89.8838 88.8295 90.1153C87.6656 90.3468 86.5965 90.9182 85.7574 91.7574C85.1716 92.3431 85.1716 93.2929 85.7574 93.8787C86.3431 94.4645 87.2929 94.4645 87.8787 93.8787C88.2982 93.4591 88.8328 93.1734 89.4147 93.0576C89.9967 92.9419 90.5999 93.0013 91.148 93.2284C91.6962 93.4554 92.1648 93.8399 92.4944 94.3333C92.8241 94.8266 93 95.4067 93 96C93 96.5933 92.8241 97.1734 92.4944 97.6667C92.1648 98.1601 91.6962 98.5446 91.1481 98.7716ZM54 102C57.3137 102 60 99.3137 60 96C60 92.6863 57.3137 90 54 90C50.6863 90 48 92.6863 48 96C48 99.3137 50.6863 102 54 102ZM77.4147 98.9424C77.9967 99.0581 78.5999 98.9987 79.1481 98.7716C79.6962 98.5446 80.1648 98.1601 80.4944 97.6667C80.8241 97.1734 81 96.5933 81 96C81 95.4067 80.8241 94.8266 80.4944 94.3333C80.1648 93.8399 79.6962 93.4554 79.1481 93.2284C78.5999 93.0013 77.9967 92.9419 77.4147 93.0576C76.8328 93.1734 76.2982 93.4591 75.8787 93.8787C75.2929 94.4645 74.3431 94.4645 73.7574 93.8787C73.1716 93.2929 73.1716 92.3431 73.7574 91.7574C74.5965 90.9182 75.6656 90.3468 76.8295 90.1153C77.9933 89.8838 79.1997 90.0026 80.2961 90.4567C81.3925 90.9109 82.3295 91.6799 82.9888 92.6666C83.6481 93.6533 84 94.8133 84 96C84 97.1867 83.6481 98.3467 82.9888 99.3334C82.3295 100.32 81.3925 101.089 80.2961 101.543C79.1997 101.997 77.9933 102.116 76.8295 101.885C75.6656 101.653 74.5965 101.082 73.7574 100.243C73.1716 99.6569 73.1716 98.7071 73.7574 98.1213C74.3431 97.5355 75.2929 97.5355 75.8787 98.1213C76.2982 98.5409 76.8328 98.8266 77.4147 98.9424ZM67.1481 98.7716C66.5999 98.9987 65.9967 99.0581 65.4147 98.9424C64.8328 98.8266 64.2982 98.5409 63.8787 98.1213C63.2929 97.5355 62.3431 97.5355 61.7574 98.1213C61.1716 98.7071 61.1716 99.6569 61.7574 100.243C62.5965 101.082 63.6656 101.653 64.8295 101.885C65.9933 102.116 67.1997 101.997 68.2961 101.543C69.3925 101.089 70.3295 100.32 70.9888 99.3334C71.6481 98.3467 72 97.1867 72 96C72 94.8133 71.6481 93.6533 70.9888 92.6666C70.3295 91.6799 69.3925 90.9109 68.2961 90.4567C67.1997 90.0026 65.9933 89.8838 64.8295 90.1153C63.6656 90.3468 62.5965 90.9182 61.7574 91.7574C61.1716 92.3431 61.1716 93.2929 61.7574 93.8787C62.3431 94.4645 63.2929 94.4645 63.8787 93.8787C64.2982 93.4591 64.8328 93.1734 65.4147 93.0576C65.9967 92.9419 66.5999 93.0013 67.1481 93.2284C67.6962 93.4554 68.1648 93.8399 68.4944 94.3333C68.8241 94.8266 69 95.4067 69 96C69 96.5933 68.8241 97.1734 68.4944 97.6667C68.1648 98.1601 67.6962 98.5446 67.1481 98.7716Z" fill="#3BB455"/>
</svg>
