<svg width="144" height="144" viewBox="0 0 144 144" fill="none" xmlns="http://www.w3.org/2000/svg">
<path d="M70.982 58.5C68.1283 58.5 65.6125 60.3718 64.7925 63.1052L64.4051 64.3965C64.048 65.5868 62.7937 66.2622 61.6035 65.9051C60.4132 65.548 59.7378 64.2937 60.0949 63.1035L60.4823 61.8121C61.8733 57.1753 66.1411 54 70.982 54H72.1677C75.6131 54 78.8464 55.6639 80.849 58.4676C84.3173 63.3232 83.1288 70.0794 78.2117 73.4599L75.7383 75.1604C74.8066 75.8009 74.25 76.859 74.25 77.9896V78.75C74.25 79.9926 73.2426 81 72 81C70.7574 81 69.75 79.9926 69.75 78.75V77.9896C69.75 75.3772 71.0361 72.9322 73.1889 71.4522L75.6623 69.7517C78.5054 67.7971 79.1926 63.8907 77.1872 61.0832C76.0293 59.4621 74.1598 58.5 72.1677 58.5H70.982Z" fill="white"/>
<path d="M72 90C73.6569 90 75 88.6569 75 87C75 85.3431 73.6569 84 72 84C70.3431 84 69 85.3431 69 87C69 88.6569 70.3431 90 72 90Z" fill="white"/>
<path fill-rule="evenodd" clip-rule="evenodd" d="M72 102C88.5685 102 102 88.5685 102 72C102 55.4315 88.5685 42 72 42C55.4315 42 42 55.4315 42 72C42 88.5685 55.4315 102 72 102ZM72 97.5C86.0833 97.5 97.5 86.0833 97.5 72C97.5 57.9167 86.0833 46.5 72 46.5C57.9167 46.5 46.5 57.9167 46.5 72C46.5 86.0833 57.9167 97.5 72 97.5Z" fill="white"/>
</svg>
