<svg width="144" height="144" viewBox="0 0 144 144" fill="none" xmlns="http://www.w3.org/2000/svg">
<path fill-rule="evenodd" clip-rule="evenodd" d="M67.5 93.0001C67.5 96.3138 64.8137 99.0001 61.5 99.0001H51C47.6863 99.0001 45 96.3138 45 93.0001V62.9346C45 61.083 45.8548 59.3352 47.3164 58.1985L68.3164 41.8651C70.483 40.18 73.517 40.18 75.6836 41.8651L96.6836 58.1985C98.1452 59.3352 99 61.083 99 62.9346V93.0001C99 96.3138 96.3137 99.0001 93 99.0001H82.5C79.1863 99.0001 76.5 96.3138 76.5 93.0001V75.0001H67.5V93.0001ZM63 75.0001C63 72.5148 65.0147 70.5001 67.5 70.5001H76.5C78.9853 70.5001 81 72.5148 81 75.0001V93.0001C81 93.8285 81.6716 94.5001 82.5 94.5001H93C93.8284 94.5001 94.5 93.8285 94.5 93.0001V62.9346C94.5 62.4717 94.2863 62.0347 93.9209 61.7506L72.9209 45.4172C72.3792 44.9959 71.6208 44.9959 71.0791 45.4172L50.0791 61.7506C49.7137 62.0347 49.5 62.4717 49.5 62.9346V93.0001C49.5 93.8285 50.1716 94.5001 51 94.5001H61.5C62.3284 94.5001 63 93.8285 63 93.0001V75.0001Z" fill="white"/>
</svg>
