<svg width="144" height="144" viewBox="0 0 144 144" fill="none" xmlns="http://www.w3.org/2000/svg">
<path d="M72 46.5C57.9167 46.5 46.5 57.9167 46.5 72V87.75C46.5 88.9926 45.4926 90 44.25 90C43.0074 90 42 88.9926 42 87.75V72C42 55.4315 55.4315 42 72 42C88.5685 42 102 55.4315 102 72V87.75C102 88.9926 100.993 90 99.75 90C98.5074 90 97.5 88.9926 97.5 87.75V72C97.5 57.9167 86.0833 46.5 72 46.5Z" fill="white"/>
<path fill-rule="evenodd" clip-rule="evenodd" d="M57 75C53.6863 75 51 77.6863 51 81V96C51 99.3137 53.6863 102 57 102H60C63.3137 102 66 99.3137 66 96V81C66 77.6863 63.3137 75 60 75H57ZM60 79.5H57C56.1716 79.5 55.5 80.1716 55.5 81V96C55.5 96.8284 56.1716 97.5 57 97.5H60C60.8284 97.5 61.5 96.8284 61.5 96V81C61.5 80.1716 60.8284 79.5 60 79.5Z" fill="white"/>
<path fill-rule="evenodd" clip-rule="evenodd" d="M78 81C78 77.6863 80.6863 75 84 75H87C90.3137 75 93 77.6863 93 81V96C93 99.3137 90.3137 102 87 102H84C80.6863 102 78 99.3137 78 96V81ZM84 79.5H87C87.8284 79.5 88.5 80.1716 88.5 81V96C88.5 96.8284 87.8284 97.5 87 97.5H84C83.1716 97.5 82.5 96.8284 82.5 96V81C82.5 80.1716 83.1716 79.5 84 79.5Z" fill="white"/>
</svg>
