<svg width="40" height="40" viewBox="0 0 40 40" fill="none" xmlns="http://www.w3.org/2000/svg">
<path d="M20.0778 13.1055C20.9062 13.1055 21.5778 13.777 21.5778 14.6055V23.6055C21.5778 24.4339 20.9062 25.1055 20.0778 25.1055C19.2493 25.1055 18.5778 24.4339 18.5778 23.6055V14.6055C18.5778 13.777 19.2493 13.1055 20.0778 13.1055Z" fill="white"/>
<path d="M20.0778 31.1055C21.1823 31.1055 22.0778 30.21 22.0778 29.1055C22.0778 28.0009 21.1823 27.1055 20.0778 27.1055C18.9732 27.1055 18.0778 28.0009 18.0778 29.1055C18.0778 30.21 18.9732 31.1055 20.0778 31.1055Z" fill="white"/>
<path fill-rule="evenodd" clip-rule="evenodd" d="M23.5419 5C22.0023 2.33333 18.1533 2.33333 16.6137 5L1.54187 31.1051C0.0022651 33.7718 1.92677 37.1051 5.00597 37.1051H35.1496C38.2288 37.1051 40.1533 33.7718 38.6137 31.1051L23.5419 5ZM36.0156 32.6051L20.9438 6.5C20.5589 5.83333 19.5966 5.83333 19.2117 6.5L4.13994 32.6051C3.75504 33.2718 4.23617 34.1051 5.00597 34.1051H35.1496C35.9194 34.1051 36.4005 33.2718 36.0156 32.6051Z" fill="white"/>
</svg>
