<svg width="40" height="40" viewBox="0 0 40 40" fill="none" xmlns="http://www.w3.org/2000/svg">
<path d="M18.6859 4.10643C19.2954 4.37315 19.6459 5.07936 19.5202 5.7875C18.0331 14.1686 17.7505 18.9204 18.365 22.6435C18.6762 24.5291 19.2211 26.1844 20.0113 27.9587C19.9182 24.7142 20.0702 22.0195 20.4726 19.5831C21.1273 15.6193 22.4289 12.4371 24.2598 8.77699C24.5661 8.16482 25.216 7.86631 25.827 8.05718C26.4381 8.24804 26.8484 8.87772 26.8165 9.57556C26.6131 14.0162 27.0976 17.8818 28.0722 21.5045C28.4361 17.3243 29.2599 13.8481 31.6648 10.5599C32.0067 10.0924 32.569 9.89395 33.0944 10.0555C33.6197 10.217 34.007 10.7074 34.079 11.3022C34.3638 13.6553 34.6013 15.0045 35.0208 16.0359C35.3692 16.8923 35.8766 17.6055 36.8475 18.5H38.6364C39.3895 18.5 40 19.1716 40 20C40 20.8284 39.3895 21.5 38.6364 21.5H36.3636C36.0569 21.5 35.7591 21.3862 35.5184 21.1771C34.1127 19.9558 33.165 18.8187 32.5314 17.2612C32.3293 16.7642 32.1643 16.2357 32.0237 15.6653C30.8115 18.82 30.6746 22.5439 30.4703 28.103C30.4647 28.2542 30.4591 28.4068 30.4534 28.5607C30.428 29.2499 29.9786 29.8312 29.3643 29.9694C28.75 30.1077 28.1292 29.7674 27.8597 29.1446C26.0556 24.976 24.7364 20.6753 24.2493 15.7707C23.7728 17.1697 23.4099 18.582 23.156 20.1193C22.5727 23.6509 22.5496 27.9397 23.174 34.3398C23.2423 35.0395 22.8592 35.6973 22.2528 35.9216C21.6464 36.1459 20.9798 35.8763 20.6499 35.2734L20.6251 35.2281C18.1834 30.7659 16.394 27.4958 15.6816 23.1793C15.1957 20.2357 15.2173 16.8665 15.7569 12.3378C15.3286 13.1401 14.9297 13.9714 14.5591 14.8906C13.3439 17.9056 12.4686 21.85 12.272 28.5483C12.2515 29.2466 11.7954 29.8369 11.1722 29.9717C10.5489 30.1065 9.92362 29.7501 9.66429 29.1123C8.38554 25.9674 7.4563 23.6206 6.8493 21.0263C6.48983 19.49 6.24777 17.8884 6.09776 15.9981C6.08695 16.0229 6.07624 16.0478 6.06564 16.0726C5.60728 17.1481 5.30847 18.3532 4.97609 20.2797C4.85394 20.9876 4.29143 21.5 3.63636 21.5H1.36364C0.610521 21.5 0 20.8284 0 20C0 19.1716 0.610521 18.5 1.36364 18.5H2.52136C2.80309 17.0808 3.12056 15.9153 3.59628 14.7992C4.20216 13.3776 5.0295 12.1183 6.2251 10.5399C6.59018 10.0579 7.18935 9.8768 7.72707 10.0858C8.26478 10.2948 8.62746 10.8498 8.6362 11.4771C8.6915 15.4443 8.95379 17.9847 9.4905 20.2786C9.63727 20.9059 9.80552 21.5194 9.99853 22.1438C10.436 18.6149 11.147 15.9544 12.066 13.6746C13.0385 11.2618 14.2649 9.26103 15.523 7.20837C16.0249 6.38952 16.5319 5.56241 17.0298 4.69759C17.3807 4.08805 18.0765 3.83971 18.6859 4.10643Z" fill="white"/>
</svg>
