<svg width="40" height="40" viewBox="0 0 40 40" fill="none" xmlns="http://www.w3.org/2000/svg">
<path fill-rule="evenodd" clip-rule="evenodd" d="M14 6C14 2.68629 16.6863 0 20 0C23.3137 0 26 2.68629 26 6V20C26 23.3137 23.3137 26 20 26C16.6863 26 14 23.3137 14 20V6ZM23 6V20C23 21.6569 21.6569 23 20 23C18.3431 23 17 21.6569 17 20V6C17 4.34315 18.3431 3 20 3C21.6569 3 23 4.34315 23 6Z" fill="white"/>
<path d="M11 20C11 19.1716 10.3284 18.5 9.5 18.5C8.67157 18.5 8 19.1716 8 20C8 23.1826 9.26428 26.2348 11.5147 28.4853C13.4087 30.3792 15.8705 31.5747 18.5 31.9059V37H15.5C14.6716 37 14 37.6716 14 38.5C14 39.3284 14.6716 40 15.5 40H24.5C25.3284 40 26 39.3284 26 38.5C26 37.6716 25.3284 37 24.5 37H21.5V31.9059C24.1295 31.5747 26.5913 30.3792 28.4853 28.4853C30.7357 26.2348 32 23.1826 32 20C32 19.1716 31.3284 18.5 30.5 18.5C29.6716 18.5 29 19.1716 29 20C29 22.387 28.0518 24.6761 26.364 26.364C24.6761 28.0518 22.3869 29 20 29C17.6131 29 15.3239 28.0518 13.636 26.364C11.9482 24.6761 11 22.3869 11 20Z" fill="white"/>
</svg>
