<svg width="40" height="40" viewBox="0 0 40 40" fill="none" xmlns="http://www.w3.org/2000/svg">
<path fill-rule="evenodd" clip-rule="evenodd" d="M20 16C22.7614 16 25 13.7614 25 11C25 8.23858 22.7614 6 20 6C17.2386 6 15 8.23858 15 11C15 13.7614 17.2386 16 20 16ZM20 13C21.1046 13 22 12.1046 22 11C22 9.89543 21.1046 9 20 9C18.8954 9 18 9.89543 18 11C18 12.1046 18.8954 13 20 13Z" fill="white"/>
<path fill-rule="evenodd" clip-rule="evenodd" d="M28 26C28 30.4183 24.4183 34 20 34C15.5817 34 12 30.4183 12 26C12 21.5817 15.5817 18 20 18C24.4183 18 28 21.5817 28 26ZM25 26C25 28.7614 22.7614 31 20 31C17.2386 31 15 28.7614 15 26C15 23.2386 17.2386 21 20 21C22.7614 21 25 23.2386 25 26Z" fill="white"/>
<path fill-rule="evenodd" clip-rule="evenodd" d="M8 0C5.79086 0 4 1.79086 4 4V36C4 38.2091 5.79086 40 8 40H32C34.2091 40 36 38.2091 36 36V4C36 1.79086 34.2091 0 32 0H8ZM32 3H8C7.44772 3 7 3.44772 7 4V36C7 36.5523 7.44772 37 8 37H32C32.5523 37 33 36.5523 33 36V4C33 3.44772 32.5523 3 32 3Z" fill="white"/>
</svg>
