<svg width="40" height="40" viewBox="0 0 40 40" fill="none" xmlns="http://www.w3.org/2000/svg">
<path fill-rule="evenodd" clip-rule="evenodd" d="M20.0011 2.39826C20.8295 2.39826 21.5011 3.06984 21.5011 3.89826V36.9587C21.5011 37.7871 20.8295 38.4587 20.0011 38.4587C19.1726 38.4587 18.5011 37.7871 18.5011 36.9587V3.89826C18.5011 3.06984 19.1726 2.39826 20.0011 2.39826ZM25.9894 8.40949C26.8179 8.40949 27.4894 9.08107 27.4894 9.90949V30.948C27.4894 31.7764 26.8179 32.448 25.9894 32.448C25.161 32.448 24.4894 31.7764 24.4894 30.948V9.90949C24.4894 9.08107 25.161 8.40949 25.9894 8.40949ZM33.4779 15.9205C33.4779 15.0921 32.8063 14.4205 31.9779 14.4205C31.1495 14.4205 30.4779 15.0921 30.4779 15.9205V24.937C30.4779 25.7654 31.1495 26.437 31.9779 26.437C32.8063 26.437 33.4779 25.7654 33.4779 24.937V15.9205ZM8.02419 11.4149C8.85262 11.4149 9.52419 12.0864 9.52419 12.9149L9.52419 27.9423C9.52419 28.7708 8.85262 29.4423 8.02419 29.4423C7.19576 29.4423 6.52419 28.7708 6.52419 27.9423L6.52419 12.9149C6.52419 12.0864 7.19576 11.4149 8.02419 11.4149ZM39.4663 19.6771C39.4663 18.8486 38.7948 18.1771 37.9663 18.1771C37.1379 18.1771 36.4663 18.8486 36.4663 19.6771V21.1798C36.4663 22.0082 37.1379 22.6798 37.9663 22.6798C38.7948 22.6798 39.4663 22.0082 39.4663 21.1798V19.6771ZM2.03571 18.1771C2.86414 18.1771 3.53571 18.8486 3.53571 19.6771V21.1798C3.53571 22.0082 2.86414 22.6798 2.03571 22.6798C1.20729 22.6798 0.535715 22.0082 0.535714 21.1798L0.535714 19.6771C0.535714 18.8486 1.20729 18.1771 2.03571 18.1771ZM15.5126 17.4232C15.5126 16.5947 14.841 15.9232 14.0126 15.9232C13.1841 15.9232 12.5126 16.5947 12.5126 17.4232V23.4342C12.5126 24.2626 13.1842 24.9342 14.0126 24.9342C14.841 24.9342 15.5126 24.2626 15.5126 23.4342V17.4232Z" fill="white"/>
</svg>
