<svg width="144" height="144" viewBox="0 0 144 144" fill="none" xmlns="http://www.w3.org/2000/svg">
<path fill-rule="evenodd" clip-rule="evenodd" d="M97.5 72C97.5 86.0833 86.0833 97.5 72 97.5C57.9167 97.5 46.5 86.0833 46.5 72C46.5 57.9167 57.9167 46.5 72 46.5C86.0833 46.5 97.5 57.9167 97.5 72ZM102 72C102 88.5685 88.5685 102 72 102C55.4315 102 42 88.5685 42 72C42 55.4315 55.4315 42 72 42C88.5685 42 102 55.4315 102 72ZM72 87C80.2843 87 87 80.2843 87 72C87 63.7157 80.2843 57 72 57C63.7157 57 57 63.7157 57 72C57 80.2843 63.7157 87 72 87Z" fill="white"/>
</svg>
