<svg width="144" height="144" viewBox="0 0 144 144" fill="none" xmlns="http://www.w3.org/2000/svg">
<path fill-rule="evenodd" clip-rule="evenodd" d="M86.7161 69.0805C85.3575 62.1937 79.2853 57 72 57C70.553 57 69.1538 57.2049 67.8299 57.5873L80.8153 70.5726C82.6537 69.7836 84.6378 69.269 86.7161 69.0805ZM72 46.5C67.5924 46.5 63.4461 47.6182 59.8291 49.5865L56.5323 46.2897C61.049 43.5666 66.3415 42 72 42C88.5685 42 102 55.4315 102 72C102 72.7884 101.97 73.5697 101.91 74.3428C100.596 73.0975 99.1082 72.0333 97.4874 71.1901C97.0597 57.4816 85.8123 46.5 72 46.5ZM51.8787 50.1213C51.813 50.0557 51.7511 49.9877 51.6928 49.9178C45.7339 55.4005 42 63.2642 42 72C42 88.5685 55.4315 102 72 102C72.7884 102 73.5697 101.97 74.3428 101.91C73.0975 100.596 72.0333 99.1082 71.1901 97.4874C57.4816 97.0597 46.5 85.8123 46.5 72C46.5 64.5113 49.7281 57.7765 54.8687 53.1114L51.8787 50.1213ZM75.618 73.8606L62.3083 60.551C59.0612 63.3024 57 67.4105 57 72C57 79.2853 62.1937 85.3575 69.0805 86.7161C69.5439 81.6062 71.9786 77.0655 75.618 73.8606ZM105 88.5C105 97.6127 97.6127 105 88.5 105C79.3873 105 72 97.6127 72 88.5C72 79.3873 79.3873 72 88.5 72C97.6127 72 105 79.3873 105 88.5ZM95.1291 97.2505C94.5433 96.6647 94.5433 95.715 95.1291 95.1292C96.8873 93.3711 97.875 90.9865 97.875 88.5001C97.875 86.0137 96.8873 83.6291 95.1291 81.871C94.5433 81.2852 94.5433 80.3354 95.1291 79.7496C95.7149 79.1639 96.6647 79.1639 97.2504 79.7496C99.5712 82.0704 100.875 85.218 100.875 88.5001C100.875 91.7821 99.5712 94.9298 97.2504 97.2505C96.6647 97.8363 95.7149 97.8363 95.1291 97.2505ZM81.8709 79.7496C82.4567 80.3354 82.4567 81.2852 81.8709 81.871C80.1127 83.6291 79.125 86.0137 79.125 88.5001C79.125 90.9865 80.1127 93.3711 81.8709 95.1292C82.4567 95.715 82.4567 96.6647 81.8709 97.2505C81.2851 97.8363 80.3353 97.8363 79.7496 97.2505C77.4288 94.9298 76.125 91.7821 76.125 88.5001C76.125 85.218 77.4288 82.0704 79.7496 79.7496C80.3353 79.1639 81.2851 79.1639 81.8709 79.7496ZM85.0529 82.9316C85.6386 83.5174 85.6386 84.4672 85.0529 85.0529C84.1386 85.9672 83.625 87.2072 83.625 88.5001C83.625 89.793 84.1386 91.033 85.0529 91.9472C85.6386 92.533 85.6386 93.4828 85.0529 94.0686C84.4671 94.6543 83.5173 94.6543 82.9315 94.0686C81.4547 92.5917 80.625 90.5887 80.625 88.5001C80.625 86.4115 81.4547 84.4085 82.9315 82.9316C83.5173 82.3458 84.4671 82.3458 85.0529 82.9316ZM91.9471 91.9472C91.3614 92.533 91.3614 93.4828 91.9471 94.0686C92.5329 94.6543 93.4827 94.6543 94.0685 94.0686C95.5453 92.5917 96.375 90.5887 96.375 88.5001C96.375 86.4115 95.5453 84.4085 94.0685 82.9316C93.4827 82.3458 92.5329 82.3458 91.9471 82.9316C91.3614 83.5174 91.3614 84.4672 91.9471 85.0529C92.8614 85.9672 93.375 87.2072 93.375 88.5001C93.375 89.793 92.8614 91.033 91.9471 91.9472ZM88.5 91.8751C90.364 91.8751 91.875 90.3641 91.875 88.5001C91.875 86.6361 90.364 85.1251 88.5 85.1251C86.636 85.1251 85.125 86.6361 85.125 88.5001C85.125 90.3641 86.636 91.8751 88.5 91.8751Z" fill="white"/>
<path fill-rule="evenodd" clip-rule="evenodd" d="M52.591 49.409C51.7123 48.5303 50.2877 48.5303 49.409 49.409C48.5303 50.2877 48.5303 51.7123 49.409 52.591L73.212 76.394C74.1468 75.215 75.215 74.1468 76.394 73.212L52.591 49.409Z" fill="#E12A40"/>
</svg>
