<svg width="144" height="144" viewBox="0 0 144 144" fill="none" xmlns="http://www.w3.org/2000/svg">
<path fill-rule="evenodd" clip-rule="evenodd" d="M72 57C79.2853 57 85.3575 62.1937 86.7161 69.0805C77.3701 69.9281 69.9281 77.3701 69.0805 86.7161C62.1937 85.3575 57 79.2853 57 72C57 63.7157 63.7157 57 72 57ZM46.5 72C46.5 85.8123 57.4816 97.0597 71.1901 97.4874C72.0333 99.1082 73.0975 100.596 74.3428 101.91C73.5697 101.97 72.7884 102 72 102C55.4315 102 42 88.5685 42 72C42 55.4315 55.4315 42 72 42C88.5685 42 102 55.4315 102 72C102 72.7884 101.97 73.5697 101.91 74.3428C100.596 73.0975 99.1082 72.0333 97.4874 71.1901C97.0597 57.4816 85.8123 46.5 72 46.5C57.9167 46.5 46.5 57.9167 46.5 72ZM105 88.5C105 97.6127 97.6127 105 88.5 105C79.3873 105 72 97.6127 72 88.5C72 79.3873 79.3873 72 88.5 72C97.6127 72 105 79.3873 105 88.5ZM81.75 82.5C81.75 81.2574 82.7574 80.25 84 80.25H94.5C95.7426 80.25 96.75 81.2574 96.75 82.5V93C96.75 94.2426 95.7426 95.25 94.5 95.25C93.2574 95.25 92.25 94.2426 92.25 93V87.932L84.091 96.091C83.2123 96.9697 81.7877 96.9697 80.909 96.091C80.0303 95.2123 80.0303 93.7877 80.909 92.909L89.068 84.75H84C82.7574 84.75 81.75 83.7426 81.75 82.5Z" fill="white"/>
</svg>
