<svg width="144" height="144" viewBox="0 0 144 144" fill="none" xmlns="http://www.w3.org/2000/svg">
    <path fill-rule="evenodd" clip-rule="evenodd"
          d="M72 97.5C72.4117 97.5 73.1204 97.268 74.0644 96.1316C74.9971 95.0087 75.9379 93.2489 76.7715 90.8764C78.2631 86.6312 79.2771 80.8122 79.4675 74.25H64.5325C64.7229 80.8122 65.7369 86.6312 67.2285 90.8764C68.0621 93.2489 69.0029 95.0087 69.9356 96.1316C70.8796 97.268 71.5883 97.5 72 97.5ZM64.5325 69.75C64.7229 63.1878 65.7369 57.3688 67.2285 53.1236C68.0621 50.7511 69.0029 48.9913 69.9356 47.8684C70.8796 46.732 71.5883 46.5 72 46.5C72.4117 46.5 73.1204 46.732 74.0644 47.8684C74.9971 48.9913 75.9379 50.7511 76.7715 53.1236C78.2631 57.3688 79.2771 63.1878 79.4675 69.75H64.5325ZM83.9693 74.25C83.7782 81.2184 82.7058 87.5617 81.0171 92.3681C80.4936 93.8578 79.8977 95.2384 79.2273 96.4613C89.0985 93.5494 96.4776 84.8248 97.4021 74.25H83.9693ZM97.4021 69.75H83.9693C83.7782 62.7816 82.7058 56.4383 81.0171 51.6319C80.4936 50.1422 79.8977 48.7615 79.2273 47.5387C89.0985 50.4506 96.4776 59.1752 97.4021 69.75ZM60.0307 69.75H46.5979C47.5224 59.1752 54.9015 50.4506 64.7727 47.5387C64.1023 48.7615 63.5064 50.1422 62.9829 51.6319C61.2942 56.4383 60.2218 62.7816 60.0307 69.75ZM46.5979 74.25H60.0307C60.2218 81.2184 61.2942 87.5617 62.9829 92.3681C63.5064 93.8578 64.1023 95.2384 64.7727 96.4613C54.9015 93.5494 47.5224 84.8248 46.5979 74.25ZM102 72C102 55.4315 88.5685 42 72 42C55.4315 42 42 55.4315 42 72C42 88.5685 55.4315 102 72 102C88.5685 102 102 88.5685 102 72Z"
          fill="#B521FF"/>
</svg>
