<svg width="144" height="144" viewBox="0 0 144 144" fill="none" xmlns="http://www.w3.org/2000/svg">
    <path fill-rule="evenodd" clip-rule="evenodd"
          d="M64.5325 74.25H75.1887C77.6158 71.9819 80.6227 70.3265 83.963 69.5306C83.7556 62.6485 82.6881 56.3878 81.0171 51.6319C80.4936 50.1422 79.8977 48.7615 79.2273 47.5387C89.0985 50.4506 96.4776 59.1752 97.4021 69.75H93.8743C96.9246 70.6227 99.6691 72.2196 101.91 74.3428C101.97 73.5697 102 72.7884 102 72C102 55.4315 88.5685 42 72 42C55.4315 42 42 55.4315 42 72C42 88.5685 55.4315 102 72 102C72.7884 102 73.5697 101.97 74.3428 101.91C73.0115 100.505 71.8872 98.902 71.0186 97.1497C70.7044 96.9421 70.3418 96.6205 69.9356 96.1316C69.0029 95.0087 68.0621 93.2489 67.2285 90.8764C65.7369 86.6312 64.7229 80.8122 64.5325 74.25ZM64.5325 69.75C64.7229 63.1878 65.7369 57.3688 67.2285 53.1236C68.0621 50.7511 69.0029 48.9913 69.9356 47.8684C70.8796 46.732 71.5883 46.5 72 46.5C72.4117 46.5 73.1204 46.732 74.0644 47.8684C74.9971 48.9913 75.9379 50.7511 76.7715 53.1236C78.2631 57.3688 79.2771 63.1878 79.4675 69.75H64.5325ZM60.0307 69.75H46.5979C47.5224 59.1752 54.9015 50.4506 64.7727 47.5387C64.1023 48.7615 63.5064 50.1422 62.9829 51.6319C61.2942 56.4383 60.2218 62.7816 60.0307 69.75ZM46.5979 74.25H60.0307C60.2218 81.2184 61.2942 87.5617 62.9829 92.3681C63.5064 93.8578 64.1023 95.2384 64.7727 96.4613C54.9015 93.5494 47.5224 84.8248 46.5979 74.25ZM105 88.5C105 97.6127 97.6127 105 88.5 105C79.3873 105 72 97.6127 72 88.5C72 79.3873 79.3873 72 88.5 72C97.6127 72 105 79.3873 105 88.5ZM81.75 82.5C81.75 81.2574 82.7574 80.25 84 80.25H94.5C95.7426 80.25 96.75 81.2574 96.75 82.5V93C96.75 94.2426 95.7426 95.25 94.5 95.25C93.2574 95.25 92.25 94.2426 92.25 93V87.932L84.091 96.091C83.2123 96.9697 81.7877 96.9697 80.909 96.091C80.0303 95.2123 80.0303 93.7877 80.909 92.909L89.068 84.75H84C82.7574 84.75 81.75 83.7426 81.75 82.5Z"
          fill="#B521FF"/>
</svg>
