<svg width="144" height="144" viewBox="0 0 144 144" fill="none" xmlns="http://www.w3.org/2000/svg">
<path fill-rule="evenodd" clip-rule="evenodd" d="M75.1887 74.25H64.5325C64.7229 80.8122 65.7369 86.6312 67.2285 90.8764C68.0621 93.2489 69.0029 95.0087 69.9356 96.1316C70.3418 96.6205 70.7044 96.9421 71.0186 97.1497C71.8872 98.902 73.0115 100.505 74.3428 101.91C73.5697 101.97 72.7884 102 72 102C55.4315 102 42 88.5685 42 72C42 63.2642 45.7339 55.4005 51.6928 49.9178C51.7511 49.9877 51.813 50.0557 51.8787 50.1213L54.8687 53.1114C50.2486 57.3042 47.1733 63.1688 46.5979 69.75H60.0307C60.1324 66.0396 60.4841 62.5065 61.0455 59.2882L65.01 63.2527C64.7622 65.3071 64.5982 67.4842 64.5325 69.75H71.5074L75.618 73.8606C75.4729 73.9883 75.3298 74.1181 75.1887 74.25ZM72 42C66.3415 42 61.049 43.5666 56.5323 46.2897L59.8291 49.5865C61.386 48.7392 63.041 48.0495 64.7727 47.5387C64.1023 48.7615 63.5064 50.1422 62.9829 51.6319C62.8876 51.9032 62.7943 52.1794 62.7029 52.4603L66.3316 56.089C66.6059 55.0326 66.9061 54.0413 67.2285 53.1236C68.0621 50.7511 69.0029 48.9913 69.9356 47.8684C70.8796 46.732 71.5883 46.5 72 46.5C72.4117 46.5 73.1204 46.732 74.0644 47.8684C74.9971 48.9913 75.9379 50.7511 76.7715 53.1236C78.2218 57.2514 79.2206 62.8671 79.4498 69.2072L80.8153 70.5726C81.8235 70.1399 82.8756 69.7897 83.963 69.5306C83.7556 62.6485 82.6881 56.3878 81.0171 51.6319C80.4936 50.1422 79.8977 48.7615 79.2273 47.5387C89.0985 50.4506 96.4776 59.1752 97.4021 69.75H93.8743C96.9246 70.6227 99.6691 72.2196 101.91 74.3428C101.97 73.5697 102 72.7884 102 72C102 55.4315 88.5685 42 72 42ZM60.0307 74.25H46.5979C47.5224 84.8248 54.9015 93.5494 64.7727 96.4613C64.1023 95.2384 63.5064 93.8578 62.9829 92.3681C61.2942 87.5617 60.2218 81.2184 60.0307 74.25ZM105 88.5C105 97.6127 97.6127 105 88.5 105C79.3873 105 72 97.6127 72 88.5C72 79.3873 79.3873 72 88.5 72C97.6127 72 105 79.3873 105 88.5ZM95.1291 97.2505C94.5433 96.6647 94.5433 95.715 95.1291 95.1292C96.8873 93.3711 97.875 90.9865 97.875 88.5001C97.875 86.0137 96.8873 83.6291 95.1291 81.871C94.5433 81.2852 94.5433 80.3354 95.1291 79.7496C95.7149 79.1639 96.6647 79.1639 97.2504 79.7496C99.5712 82.0704 100.875 85.218 100.875 88.5001C100.875 91.7821 99.5712 94.9298 97.2504 97.2505C96.6647 97.8363 95.7149 97.8363 95.1291 97.2505ZM81.8709 79.7496C82.4567 80.3354 82.4567 81.2852 81.8709 81.871C80.1127 83.6291 79.125 86.0137 79.125 88.5001C79.125 90.9865 80.1127 93.3711 81.8709 95.1292C82.4567 95.715 82.4567 96.6647 81.8709 97.2505C81.2851 97.8363 80.3353 97.8363 79.7496 97.2505C77.4288 94.9298 76.125 91.7821 76.125 88.5001C76.125 85.218 77.4288 82.0704 79.7496 79.7496C80.3353 79.1639 81.2851 79.1639 81.8709 79.7496ZM85.0529 82.9316C85.6386 83.5174 85.6386 84.4672 85.0529 85.0529C84.1386 85.9672 83.625 87.2072 83.625 88.5001C83.625 89.793 84.1386 91.033 85.0529 91.9472C85.6386 92.533 85.6386 93.4828 85.0529 94.0686C84.4671 94.6543 83.5173 94.6543 82.9315 94.0686C81.4547 92.5917 80.625 90.5887 80.625 88.5001C80.625 86.4115 81.4547 84.4085 82.9315 82.9316C83.5173 82.3458 84.4671 82.3458 85.0529 82.9316ZM91.9471 91.9472C91.3614 92.533 91.3614 93.4828 91.9471 94.0686C92.5329 94.6543 93.4827 94.6543 94.0685 94.0686C95.5453 92.5917 96.375 90.5887 96.375 88.5001C96.375 86.4115 95.5453 84.4085 94.0685 82.9316C93.4827 82.3458 92.5329 82.3458 91.9471 82.9316C91.3614 83.5174 91.3614 84.4672 91.9471 85.0529C92.8614 85.9672 93.375 87.2072 93.375 88.5001C93.375 89.793 92.8614 91.033 91.9471 91.9472ZM88.5 91.8751C90.364 91.8751 91.875 90.3641 91.875 88.5001C91.875 86.6361 90.364 85.1251 88.5 85.1251C86.636 85.1251 85.125 86.6361 85.125 88.5001C85.125 90.3641 86.636 91.8751 88.5 91.8751Z" fill="#B521FF"/>
<path fill-rule="evenodd" clip-rule="evenodd" d="M49.591 46.409C48.7123 45.5303 47.2877 45.5303 46.409 46.409C45.5303 47.2877 45.5303 48.7123 46.409 49.591L73.212 76.394C74.1468 75.215 75.215 74.1468 76.394 73.212L49.591 46.409Z" fill="#E12A40"/>
</svg>
