<svg width="144" height="144" viewBox="0 0 144 144" fill="none" xmlns="http://www.w3.org/2000/svg">
<path fill-rule="evenodd" clip-rule="evenodd" d="M64.5325 74.25H75.1887C77.6158 71.9819 80.6227 70.3265 83.963 69.5306C83.7556 62.6485 82.6881 56.3878 81.0171 51.6319C80.4936 50.1422 79.8977 48.7615 79.2273 47.5387C89.0985 50.4506 96.4776 59.1752 97.4021 69.75H93.8743C96.9246 70.6227 99.6691 72.2196 101.91 74.3428C101.97 73.5697 102 72.7884 102 72C102 55.4315 88.5685 42 72 42C55.4315 42 42 55.4315 42 72C42 88.5685 55.4315 102 72 102C72.7884 102 73.5697 101.97 74.3428 101.91C73.0115 100.505 71.8872 98.902 71.0186 97.1497C70.7044 96.9421 70.3418 96.6205 69.9356 96.1316C69.0029 95.0087 68.0621 93.2489 67.2285 90.8764C65.7369 86.6312 64.7229 80.8122 64.5325 74.25ZM64.5325 69.75C64.7229 63.1878 65.7369 57.3688 67.2285 53.1236C68.0621 50.7511 69.0029 48.9913 69.9356 47.8684C70.8796 46.732 71.5883 46.5 72 46.5C72.4117 46.5 73.1204 46.732 74.0644 47.8684C74.9971 48.9913 75.9379 50.7511 76.7715 53.1236C78.2631 57.3688 79.2771 63.1878 79.4675 69.75H64.5325ZM60.0307 69.75H46.5979C47.5224 59.1752 54.9015 50.4506 64.7727 47.5387C64.1023 48.7615 63.5064 50.1422 62.9829 51.6319C61.2942 56.4383 60.2218 62.7816 60.0307 69.75ZM46.5979 74.25H60.0307C60.2218 81.2184 61.2942 87.5617 62.9829 92.3681C63.5064 93.8578 64.1023 95.2384 64.7727 96.4613C54.9015 93.5494 47.5224 84.8248 46.5979 74.25ZM105 88.5C105 97.6127 97.6127 105 88.5 105C79.3873 105 72 97.6127 72 88.5C72 79.3873 79.3873 72 88.5 72C97.6127 72 105 79.3873 105 88.5ZM95.1291 97.2505C94.5433 96.6647 94.5433 95.715 95.1291 95.1292C96.8873 93.3711 97.875 90.9865 97.875 88.5001C97.875 86.0137 96.8873 83.6291 95.1291 81.871C94.5433 81.2852 94.5433 80.3354 95.1291 79.7496C95.7149 79.1639 96.6647 79.1639 97.2504 79.7496C99.5712 82.0704 100.875 85.218 100.875 88.5001C100.875 91.7821 99.5712 94.9298 97.2504 97.2505C96.6647 97.8363 95.7149 97.8363 95.1291 97.2505ZM81.8709 79.7496C82.4567 80.3354 82.4567 81.2852 81.8709 81.871C80.1127 83.6291 79.125 86.0137 79.125 88.5001C79.125 90.9865 80.1127 93.3711 81.8709 95.1292C82.4567 95.715 82.4567 96.6647 81.8709 97.2505C81.2851 97.8363 80.3353 97.8363 79.7496 97.2505C77.4288 94.9298 76.125 91.7821 76.125 88.5001C76.125 85.218 77.4288 82.0704 79.7496 79.7496C80.3353 79.1639 81.2851 79.1639 81.8709 79.7496ZM85.0529 82.9316C85.6386 83.5174 85.6386 84.4672 85.0529 85.0529C84.1386 85.9672 83.625 87.2072 83.625 88.5001C83.625 89.793 84.1386 91.033 85.0529 91.9472C85.6386 92.533 85.6386 93.4828 85.0529 94.0686C84.4671 94.6543 83.5173 94.6543 82.9315 94.0686C81.4547 92.5917 80.625 90.5887 80.625 88.5001C80.625 86.4115 81.4547 84.4085 82.9315 82.9316C83.5173 82.3458 84.4671 82.3458 85.0529 82.9316ZM91.9471 91.9472C91.3614 92.533 91.3614 93.4828 91.9471 94.0686C92.5329 94.6543 93.4827 94.6543 94.0685 94.0686C95.5453 92.5917 96.375 90.5887 96.375 88.5001C96.375 86.4115 95.5453 84.4085 94.0685 82.9316C93.4827 82.3458 92.5329 82.3458 91.9471 82.9316C91.3614 83.5174 91.3614 84.4672 91.9471 85.0529C92.8614 85.9672 93.375 87.2072 93.375 88.5001C93.375 89.793 92.8614 91.033 91.9471 91.9472ZM88.5 91.8751C90.364 91.8751 91.875 90.3641 91.875 88.5001C91.875 86.6361 90.364 85.1251 88.5 85.1251C86.636 85.1251 85.125 86.6361 85.125 88.5001C85.125 90.3641 86.636 91.8751 88.5 91.8751Z" fill="white"/>
</svg>
