<svg width="144" height="144" viewBox="0 0 144 144" fill="none" xmlns="http://www.w3.org/2000/svg">
    <path fill-rule="evenodd" clip-rule="evenodd"
          d="M75.1887 74.25H64.5325C64.7229 80.8122 65.7369 86.6312 67.2285 90.8764C68.0621 93.2489 69.0029 95.0087 69.9356 96.1316C70.3418 96.6205 70.7044 96.9421 71.0186 97.1497C71.8872 98.902 73.0115 100.505 74.3428 101.91C73.5697 101.97 72.7884 102 72 102C55.4315 102 42 88.5685 42 72C42 63.2642 45.7339 55.4005 51.6928 49.9178C51.7511 49.9877 51.813 50.0557 51.8787 50.1213L54.8687 53.1114C50.2486 57.3042 47.1733 63.1688 46.5979 69.75H60.0307C60.1324 66.0396 60.4841 62.5065 61.0455 59.2882L65.01 63.2527C64.7622 65.3071 64.5982 67.4842 64.5325 69.75H71.5074L75.618 73.8606C75.4729 73.9883 75.3298 74.1181 75.1887 74.25ZM72 42C66.3415 42 61.049 43.5666 56.5323 46.2897L59.8291 49.5865C61.386 48.7392 63.041 48.0495 64.7727 47.5387C64.1023 48.7615 63.5064 50.1422 62.9829 51.6319C62.8876 51.9032 62.7943 52.1794 62.7029 52.4603L66.3316 56.089C66.6059 55.0326 66.9061 54.0413 67.2285 53.1236C68.0621 50.7511 69.0029 48.9913 69.9356 47.8684C70.8796 46.732 71.5883 46.5 72 46.5C72.4117 46.5 73.1204 46.732 74.0644 47.8684C74.9971 48.9913 75.9379 50.7511 76.7715 53.1236C78.2218 57.2514 79.2206 62.8671 79.4498 69.2072L80.8153 70.5726C81.8235 70.1399 82.8756 69.7897 83.963 69.5306C83.7556 62.6485 82.6881 56.3878 81.0171 51.6319C80.4936 50.1422 79.8977 48.7615 79.2273 47.5387C89.0985 50.4506 96.4776 59.1752 97.4021 69.75H93.8743C96.9246 70.6227 99.6691 72.2196 101.91 74.3428C101.97 73.5697 102 72.7884 102 72C102 55.4315 88.5685 42 72 42ZM60.0307 74.25H46.5979C47.5224 84.8248 54.9015 93.5494 64.7727 96.4613C64.1023 95.2384 63.5064 93.8578 62.9829 92.3681C61.2942 87.5617 60.2218 81.2184 60.0307 74.25ZM105 88.5C105 97.6127 97.6127 105 88.5 105C79.3873 105 72 97.6127 72 88.5C72 79.3873 79.3873 72 88.5 72C97.6127 72 105 79.3873 105 88.5ZM88.5 80.6343C84.1559 80.6343 80.6343 84.1559 80.6343 88.5V93.8156C80.6343 94.644 79.9628 95.3156 79.1343 95.3156C78.3059 95.3156 77.6343 94.644 77.6343 93.8156V88.5C77.6343 82.4991 82.499 77.6343 88.5 77.6343C94.5009 77.6343 99.3656 82.4991 99.3656 88.5V93.8156C99.3656 94.644 98.694 95.3156 97.8656 95.3156C97.0372 95.3156 96.3656 94.644 96.3656 93.8156V88.5C96.3656 84.1559 92.844 80.6343 88.5 80.6343ZM83.9438 89.5124C82.5458 89.5124 81.4125 90.6457 81.4125 92.0436V96.0936C81.4125 97.4916 82.5458 98.6249 83.9438 98.6249C85.3418 98.6249 86.475 97.4916 86.475 96.0936V92.0436C86.475 90.6457 85.3418 89.5124 83.9438 89.5124ZM90.525 92.0436C90.525 90.6457 91.6582 89.5124 93.0562 89.5124C94.4542 89.5124 95.5875 90.6457 95.5875 92.0436V96.0936C95.5875 97.4916 94.4542 98.6249 93.0562 98.6249C91.6582 98.6249 90.525 97.4916 90.525 96.0936V92.0436Z"
          fill="#B521FF"/>
    <path fill-rule="evenodd" clip-rule="evenodd"
          d="M49.591 46.409C48.7123 45.5303 47.2877 45.5303 46.409 46.409C45.5303 47.2877 45.5303 48.7123 46.409 49.591L73.212 76.394C74.1468 75.215 75.215 74.1468 76.394 73.212L49.591 46.409Z"
          fill="#E12A40"/>
</svg>
