<svg width="144" height="144" viewBox="0 0 144 144" fill="none" xmlns="http://www.w3.org/2000/svg">
<path fill-rule="evenodd" clip-rule="evenodd" d="M76.5 51V72C76.5 74.4853 74.4853 76.5 72 76.5C69.5147 76.5 67.5 74.4853 67.5 72V51C67.5 48.5147 69.5147 46.5 72 46.5C74.4853 46.5 76.5 48.5147 76.5 51ZM63 51C63 46.0294 67.0294 42 72 42C76.9706 42 81 46.0294 81 51V72C81 76.9706 76.9706 81 72 81C67.0294 81 63 76.9706 63 72V51ZM58.5 72C58.5 70.7574 57.4926 69.75 56.25 69.75C55.0074 69.75 54 70.7574 54 72C54 76.7739 55.8964 81.3523 59.2721 84.7279C62.113 87.5688 65.8057 89.362 69.75 89.8589V97.5H65.25C64.0074 97.5 63 98.5074 63 99.75C63 100.993 64.0074 102 65.25 102H78.75C79.9926 102 81 100.993 81 99.75C81 98.5074 79.9926 97.5 78.75 97.5H74.25V89.8589C78.1943 89.362 81.887 87.5688 84.7279 84.7279C88.1036 81.3523 90 76.7739 90 72C90 70.7574 88.9926 69.75 87.75 69.75C86.5074 69.75 85.5 70.7574 85.5 72C85.5 75.5804 84.0777 79.0142 81.5459 81.5459C79.0142 84.0777 75.5804 85.5 72 85.5C68.4196 85.5 64.9858 84.0777 62.4541 81.5459C59.9223 79.0142 58.5 75.5804 58.5 72Z" fill="white"/>
</svg>
