<svg width="144" height="144" viewBox="0 0 144 144" fill="none" xmlns="http://www.w3.org/2000/svg">
<path fill-rule="evenodd" clip-rule="evenodd" d="M46.9837 55.7428C47.5701 53.0066 49.9682 51.0432 52.7581 51.0007L57.2574 55.5H52.8505C52.1432 55.5 51.532 55.9941 51.3838 56.6857L45.6384 83.4978C45.0867 86.0723 47.0493 88.5 49.6822 88.5C50.9839 88.5 52.2097 87.8871 52.9907 86.8457L60.75 76.5H73.1285C72.0608 77.8657 71.1712 79.3773 70.4945 81H63L56.5907 89.5457C54.9599 91.7202 52.4003 93 49.6822 93C44.1844 93 40.0863 87.9307 41.2383 82.5549L46.9837 55.7428ZM91.1495 55.5H65.7426L61.2426 51H91.1495C93.9788 51 96.4236 52.9764 97.0164 55.7428L100.792 73.361C99.2231 72.0859 97.4524 71.0496 95.5352 70.3077L92.6162 56.6857C92.468 55.9941 91.8568 55.5 91.1495 55.5ZM87.3226 69.035C85.5007 69.1435 83.7461 69.5021 82.0928 70.077C80.561 69.3592 79.5 67.8035 79.5 66C79.5 63.5147 81.5148 61.5 84 61.5C86.4853 61.5 88.5 63.5147 88.5 66C88.5 67.1695 88.0539 68.2348 87.3226 69.035ZM62.25 61.5C62.25 60.2574 61.2427 59.25 60 59.25C58.7574 59.25 57.75 60.2574 57.75 61.5V63.75H55.5C54.2574 63.75 53.25 64.7574 53.25 66C53.25 67.2426 54.2574 68.25 55.5 68.25H57.75V70.5C57.75 71.7426 58.7574 72.75 60 72.75C61.2427 72.75 62.25 71.7426 62.25 70.5V68.25H64.5C65.7427 68.25 66.75 67.2426 66.75 66C66.75 64.7574 65.7427 63.75 64.5 63.75H62.25V61.5ZM105 88.5C105 97.6127 97.6127 105 88.5 105C79.3873 105 72 97.6127 72 88.5C72 79.3873 79.3873 72 88.5 72C97.6127 72 105 79.3873 105 88.5ZM95.1291 97.2505C94.5433 96.6647 94.5433 95.715 95.1291 95.1292C96.8873 93.3711 97.875 90.9865 97.875 88.5001C97.875 86.0137 96.8873 83.6291 95.1291 81.871C94.5433 81.2852 94.5433 80.3354 95.1291 79.7496C95.7149 79.1639 96.6647 79.1639 97.2504 79.7496C99.5712 82.0704 100.875 85.218 100.875 88.5001C100.875 91.7821 99.5712 94.9298 97.2504 97.2505C96.6647 97.8363 95.7149 97.8363 95.1291 97.2505ZM81.8709 79.7496C82.4567 80.3354 82.4567 81.2852 81.8709 81.871C80.1127 83.6291 79.125 86.0137 79.125 88.5001C79.125 90.9865 80.1127 93.3711 81.8709 95.1292C82.4567 95.715 82.4567 96.6647 81.8709 97.2505C81.2851 97.8363 80.3353 97.8363 79.7496 97.2505C77.4288 94.9298 76.125 91.7821 76.125 88.5001C76.125 85.218 77.4288 82.0704 79.7496 79.7496C80.3353 79.1639 81.2851 79.1639 81.8709 79.7496ZM85.0529 82.9316C85.6386 83.5174 85.6386 84.4672 85.0529 85.0529C84.1386 85.9672 83.625 87.2072 83.625 88.5001C83.625 89.793 84.1386 91.033 85.0529 91.9472C85.6386 92.533 85.6386 93.4828 85.0529 94.0686C84.4671 94.6543 83.5173 94.6543 82.9315 94.0686C81.4547 92.5917 80.625 90.5887 80.625 88.5001C80.625 86.4115 81.4547 84.4085 82.9315 82.9316C83.5173 82.3458 84.4671 82.3458 85.0529 82.9316ZM91.9471 91.9472C91.3614 92.533 91.3614 93.4828 91.9471 94.0686C92.5329 94.6543 93.4827 94.6543 94.0685 94.0686C95.5453 92.5917 96.375 90.5887 96.375 88.5001C96.375 86.4115 95.5453 84.4085 94.0685 82.9316C93.4827 82.3458 92.5329 82.3458 91.9471 82.9316C91.3614 83.5174 91.3614 84.4672 91.9471 85.0529C92.8614 85.9672 93.375 87.2072 93.375 88.5001C93.375 89.793 92.8614 91.033 91.9471 91.9472ZM88.5 91.8751C90.364 91.8751 91.875 90.3641 91.875 88.5001C91.875 86.6361 90.364 85.1251 88.5 85.1251C86.636 85.1251 85.125 86.6361 85.125 88.5001C85.125 90.3641 86.636 91.8751 88.5 91.8751Z" fill="white"/>
<path fill-rule="evenodd" clip-rule="evenodd" d="M52.591 49.409C51.7123 48.5303 50.2877 48.5303 49.409 49.409C48.5303 50.2877 48.5303 51.7123 49.409 52.591L73.212 76.394C74.1468 75.215 75.215 74.1468 76.394 73.212L52.591 49.409Z" fill="#E12A40"/>
</svg>
