<svg width="144" height="144" viewBox="0 0 144 144" fill="none" xmlns="http://www.w3.org/2000/svg">
<path d="M62.25 61.5C62.25 60.2574 61.2427 59.25 60 59.25C58.7574 59.25 57.75 60.2574 57.75 61.5V63.75H55.5C54.2574 63.75 53.25 64.7574 53.25 66C53.25 67.2426 54.2574 68.25 55.5 68.25H57.75V70.5C57.75 71.7426 58.7574 72.75 60 72.75C61.2427 72.75 62.25 71.7426 62.25 70.5V68.25H64.5C65.7427 68.25 66.75 67.2426 66.75 66C66.75 64.7574 65.7427 63.75 64.5 63.75H62.25V61.5Z" fill="white"/>
<path d="M84 70.5C86.4853 70.5 88.5 68.4853 88.5 66C88.5 63.5147 86.4853 61.5 84 61.5C81.5148 61.5 79.5 63.5147 79.5 66C79.5 68.4853 81.5148 70.5 84 70.5Z" fill="white"/>
<path fill-rule="evenodd" clip-rule="evenodd" d="M87.4093 89.5457L81 81H63L56.5907 89.5457C54.9599 91.7202 52.4003 93 49.6822 93C44.1844 93 40.0863 87.9307 41.2383 82.5549L46.9837 55.7428C47.5765 52.9764 50.0213 51 52.8505 51H91.1495C93.9788 51 96.4235 52.9764 97.0164 55.7428L102.762 82.5549C103.914 87.9307 99.8157 93 94.3179 93C91.5997 93 89.0402 91.7202 87.4093 89.5457ZM60.75 76.5L52.9907 86.8457C52.2097 87.8871 50.9839 88.5 49.6822 88.5C47.0493 88.5 45.0867 86.0723 45.6384 83.4978L51.3838 56.6857C51.532 55.9941 52.1432 55.5 52.8505 55.5H91.1495C91.8568 55.5 92.468 55.9941 92.6162 56.6857L98.3617 83.4978C98.9134 86.0723 96.9508 88.5 94.3179 88.5C93.0161 88.5 91.7904 87.8871 91.0093 86.8457L83.25 76.5H60.75Z" fill="white"/>
</svg>
