<svg width="144" height="144" viewBox="0 0 144 144" fill="none" xmlns="http://www.w3.org/2000/svg">
<path fill-rule="evenodd" clip-rule="evenodd" d="M76.5 72V51C76.5 48.5147 74.4853 46.5 72 46.5C69.5147 46.5 67.5 48.5147 67.5 51V72C67.5 74.4853 69.5147 76.5 72 76.5C72.4421 76.5 72.8693 76.4362 73.273 76.3174C72.167 77.6979 71.2449 79.2321 70.5438 80.8828C66.2657 80.1868 63 76.4748 63 72V51C63 46.0294 67.0294 42 72 42C76.9706 42 81 46.0294 81 51V70.4945C79.3047 71.2015 77.7306 72.1409 76.3174 73.273C76.4362 72.8693 76.5 72.4421 76.5 72ZM69.2743 85.222C66.7098 84.6933 64.3334 83.4253 62.4541 81.5459C59.9223 79.0142 58.5 75.5804 58.5 72C58.5 70.7574 57.4926 69.75 56.25 69.75C55.0074 69.75 54 70.7574 54 72C54 76.7739 55.8964 81.3523 59.2721 84.7279C61.9418 87.3976 65.3637 89.1421 69.0397 89.755C69.0134 89.3401 69 88.9216 69 88.5C69 87.3829 69.0939 86.2878 69.2743 85.222ZM69.75 93.8743C70.6344 96.9656 72.2627 99.7429 74.4287 102H65.25C64.0074 102 63 100.993 63 99.75C63 98.5074 64.0074 97.5 65.25 97.5H69.75V93.8743Z" fill="white"/>
<path fill-rule="evenodd" clip-rule="evenodd" d="M88.5 105C97.6127 105 105 97.6127 105 88.5C105 79.3873 97.6127 72 88.5 72C79.3873 72 72 79.3873 72 88.5C72 97.6127 79.3873 105 88.5 105ZM84 80.25C82.7574 80.25 81.75 81.2574 81.75 82.5C81.75 83.7426 82.7574 84.75 84 84.75H89.068L80.909 92.909C80.0303 93.7877 80.0303 95.2123 80.909 96.091C81.7877 96.9697 83.2123 96.9697 84.091 96.091L92.25 87.932V93C92.25 94.2426 93.2574 95.25 94.5 95.25C95.7426 95.25 96.75 94.2426 96.75 93V82.5C96.75 81.2574 95.7426 80.25 94.5 80.25H84Z" fill="white"/>
</svg>
