<svg width="144" height="144" viewBox="0 0 144 144" fill="none" xmlns="http://www.w3.org/2000/svg">
<path fill-rule="evenodd" clip-rule="evenodd" d="M63.1035 51.0948L93.0534 42.1098C93.1726 42.071 93.2961 42.0419 93.4231 42.0234C94.0268 41.934 94.6249 42.0967 95.0932 42.4446C95.3539 42.6382 95.5744 42.8893 95.7332 43.1862C95.8545 43.4119 95.9384 43.6606 95.9766 43.9242C95.9953 44.0508 96.0029 44.1771 96 44.3021V70.4945C94.5775 69.9013 93.0696 69.4717 91.5 69.2293V47.2739L66 54.9239V91.4996C66 97.2986 61.299 102 55.5 102C49.701 102 45 97.2988 45 91.4999C45 85.7009 49.701 80.9999 55.5 80.9999C57.7309 80.9999 59.7992 81.6956 61.5 82.8819V53.2499C61.5 52.2562 62.1518 51.3803 63.1035 51.0948ZM61.5 91.4999C61.5 94.8136 58.8137 97.4999 55.5 97.4999C52.1863 97.4999 49.5 94.8136 49.5 91.4999C49.5 88.1861 52.1863 85.4999 55.5 85.4999C58.8137 85.4999 61.5 88.1861 61.5 91.4999ZM105 88.5C105 97.6127 97.6127 105 88.5 105C79.3873 105 72 97.6127 72 88.5C72 79.3873 79.3873 72 88.5 72C97.6127 72 105 79.3873 105 88.5ZM81.75 82.5C81.75 81.2574 82.7574 80.25 84 80.25H94.5C95.7426 80.25 96.75 81.2574 96.75 82.5V93C96.75 94.2426 95.7426 95.25 94.5 95.25C93.2574 95.25 92.25 94.2426 92.25 93V87.932L84.091 96.091C83.2123 96.9697 81.7877 96.9697 80.909 96.091C80.0303 95.2123 80.0303 93.7877 80.909 92.909L89.068 84.75H84C82.7574 84.75 81.75 83.7426 81.75 82.5Z" fill="white"/>
</svg>
