<svg width="144" height="144" viewBox="0 0 144 144" fill="none" xmlns="http://www.w3.org/2000/svg">
<path fill-rule="evenodd" clip-rule="evenodd" d="M63.1035 51.0948L93.0534 42.1098C93.1726 42.071 93.2961 42.0419 93.4231 42.0234C94.0268 41.934 94.6249 42.0967 95.0932 42.4446C95.3539 42.6382 95.5744 42.8893 95.7332 43.1862C95.8545 43.4119 95.9384 43.6606 95.9766 43.9242C95.9953 44.0508 96.0029 44.1771 96 44.3021V82.4999C96 88.2989 91.299 92.9999 85.5 92.9999C79.701 92.9999 75 88.2989 75 82.4999C75 76.7009 79.701 71.9999 85.5 71.9999C87.7309 71.9999 89.7993 72.6956 91.5 73.8819V47.2739L66 54.9239V91.4996C66 97.2986 61.299 102 55.5 102C49.701 102 45 97.2988 45 91.4999C45 85.7009 49.701 80.9999 55.5 80.9999C57.7309 80.9999 59.7992 81.6956 61.5 82.8819V53.2499C61.5 52.2562 62.1518 51.3803 63.1035 51.0948ZM91.5 82.4999C91.5 79.1861 88.8137 76.4999 85.5 76.4999C82.1863 76.4999 79.5 79.1861 79.5 82.4999C79.5 85.8136 82.1863 88.4999 85.5 88.4999C88.8137 88.4999 91.5 85.8136 91.5 82.4999ZM61.5 91.4999C61.5 94.8136 58.8137 97.4999 55.5 97.4999C52.1863 97.4999 49.5 94.8136 49.5 91.4999C49.5 88.1861 52.1863 85.4999 55.5 85.4999C58.8137 85.4999 61.5 88.1861 61.5 91.4999Z" fill="white"/>
</svg>
