<svg width="144" height="144" viewBox="0 0 144 144" fill="none" xmlns="http://www.w3.org/2000/svg">
<path fill-rule="evenodd" clip-rule="evenodd" d="M54 79.5001C55.1935 79.5001 56.3381 79.9742 57.182 80.8181L64.5 88.1361V55.864L57.182 63.182C56.3381 64.026 55.1935 64.5001 54 64.5001H48C47.1716 64.5001 46.5 65.1716 46.5 66.0001V78.0001C46.5 78.8285 47.1716 79.5001 48 79.5001H54ZM54 84.0001L63.8787 93.8787C65.7686 95.7686 69 94.4301 69 91.7574V52.2427C69 49.57 65.7686 48.2315 63.8787 50.1214L54 60.0001H48C44.6863 60.0001 42 62.6864 42 66.0001V78.0001C42 81.3138 44.6863 84.0001 48 84.0001H54Z" fill="#E12A40"/>
<path fill-rule="evenodd" clip-rule="evenodd" d="M78.659 80.159C77.7803 81.0377 77.7803 82.4623 78.659 83.341C79.5377 84.2197 80.9623 84.2197 81.841 83.341L90 75.182L98.159 83.341C99.0377 84.2197 100.462 84.2197 101.341 83.341C102.22 82.4623 102.22 81.0377 101.341 80.159L93.182 72L101.341 63.841C102.22 62.9623 102.22 61.5377 101.341 60.659C100.462 59.7803 99.0377 59.7803 98.159 60.659L90 68.818L81.841 60.659C80.9623 59.7803 79.5377 59.7803 78.659 60.659C77.7803 61.5377 77.7803 62.9623 78.659 63.841L86.818 72L78.659 80.159Z" fill="#E12A40"/>
</svg>
