<svg width="144" height="144" viewBox="0 0 144 144" fill="none" xmlns="http://www.w3.org/2000/svg">
<path d="M69.8318 48.1593C70.8374 48.5594 71.4157 49.6187 71.2083 50.6809C68.7546 63.2527 68.2883 70.3805 69.3022 75.9651C69.8157 78.7936 70.7148 81.2766 72.0187 83.9381C71.865 79.0713 72.1158 75.0292 72.7798 71.3745C73.86 65.4287 76.0077 60.6554 79.0287 55.1652C79.534 54.2469 80.6064 53.7992 81.6146 54.0855C82.6228 54.3718 83.2999 55.3163 83.2472 56.3631C82.9117 63.0241 83.711 68.8226 85.3191 74.2566C85.9195 67.9864 87.2789 62.772 91.2469 57.8396C91.811 57.1383 92.7389 56.8407 93.6057 57.0829C94.4725 57.3252 95.1116 58.0608 95.2303 58.953C95.7002 62.4827 96.0921 64.5065 96.7844 66.0537C97.3591 67.3382 98.1965 68.4081 99.7984 69.7499H102.75C103.993 69.7499 105 70.7572 105 71.9999C105 73.2425 103.993 74.2499 102.75 74.2499H99C98.4939 74.2499 98.0026 74.0793 97.6054 73.7656C95.286 71.9336 93.7222 70.2279 92.6768 67.8917C92.3433 67.1462 92.071 66.3533 91.8391 65.4978C89.8389 70.2299 89.6131 75.8157 89.2759 84.1546C89.2668 84.3814 89.2575 84.6102 89.2481 84.8411C89.2062 85.8749 88.4647 86.7468 87.4511 86.9542C86.4375 87.1616 85.4131 86.6511 84.9684 85.717C81.9917 79.4639 79.8151 73.0128 79.0114 65.6559C78.2252 67.7544 77.6263 69.8729 77.2073 72.1789C76.2449 77.4763 76.2068 83.9095 77.2372 93.5098C77.3498 94.5594 76.7177 95.5461 75.7171 95.8826C74.7166 96.219 73.6166 95.8146 73.0723 94.9102L73.0313 94.8422C69.0026 88.1489 66.0501 83.2438 64.8746 76.7689C64.073 72.3535 64.1086 67.2996 64.9989 60.5064C64.2922 61.7099 63.6339 62.9569 63.0226 64.3357C61.0174 68.8582 59.5732 74.7749 59.2488 84.8225C59.215 85.87 58.4625 86.7554 57.4341 86.9576C56.4057 87.1598 55.374 86.6252 54.9461 85.6685C52.8361 80.951 51.3029 77.4309 50.3013 73.5394C49.7082 71.2348 49.3088 68.8324 49.0613 65.997C49.0435 66.0342 49.0258 66.0715 49.0083 66.1088C48.252 67.722 47.759 69.5297 47.2105 72.4194C47.009 73.4813 46.0809 74.2499 45 74.2499H41.25C40.0074 74.2499 39 73.2425 39 71.9999C39 70.7572 40.0074 69.7499 41.25 69.7499H43.1602C43.6251 67.621 44.1489 65.8728 44.9339 64.1986C45.9336 62.0662 47.2987 60.1771 49.2714 57.8096C49.8738 57.0866 50.8624 56.8149 51.7497 57.1284C52.6369 57.442 53.2353 58.2745 53.2497 59.2154C53.341 65.1663 53.7737 68.9769 54.6593 72.4178C54.9015 73.3588 55.1791 74.279 55.4976 75.2156C56.2195 69.9223 57.3925 65.9314 58.9088 62.5117C60.5136 58.8925 62.537 55.8913 64.6129 52.8122C65.4411 51.5839 66.2776 50.3433 67.0992 49.046C67.6782 48.1317 68.8262 47.7592 69.8318 48.1593Z" fill="white"/>
</svg>
