<svg width="144" height="144" viewBox="0 0 144 144" fill="none" xmlns="http://www.w3.org/2000/svg">
<path fill-rule="evenodd" clip-rule="evenodd" d="M58.9088 62.5117C59.4636 61.2605 60.0684 60.0831 60.7082 58.9508L64.0221 62.2648C63.6759 62.9274 63.3428 63.6135 63.0226 64.3357C61.0174 68.8582 59.5732 74.7749 59.2488 84.8225C59.215 85.87 58.4625 86.7554 57.4341 86.9576C56.4057 87.1598 55.374 86.6252 54.9461 85.6685C52.8361 80.951 51.3029 77.4309 50.3013 73.5394C49.7082 71.2348 49.3088 68.8324 49.0613 65.997C49.0435 66.0342 49.0258 66.0715 49.0083 66.1088C48.252 67.722 47.759 69.5297 47.2105 72.4194C47.009 73.4813 46.0809 74.2499 45 74.2499H41.25C40.0074 74.2499 39 73.2425 39 71.9999C39 70.7572 40.0074 69.7499 41.25 69.7499H43.1602C43.6251 67.621 44.1489 65.8728 44.9339 64.1986C45.9336 62.0662 47.2987 60.1771 49.2714 57.8096C49.8738 57.0866 50.8624 56.8149 51.7497 57.1284C52.6369 57.442 53.2353 58.2745 53.2497 59.2154C53.341 65.1663 53.7737 68.9769 54.6593 72.4178C54.9015 73.3588 55.1791 74.279 55.4976 75.2156C56.2195 69.9223 57.3925 65.9314 58.9088 62.5117ZM64.8746 76.7689C64.1721 72.8998 64.1126 68.5405 64.7077 62.9503L68.8795 67.1221C68.6891 70.6206 68.8455 73.4494 69.3022 75.9651C69.6049 77.6325 70.0416 79.1799 70.6162 80.7145C69.649 82.9332 69.0825 85.3668 69.0084 87.9238C67.047 84.2709 65.6115 80.8284 64.8746 76.7689ZM72.7798 71.3745C72.7978 71.2752 72.8162 71.1762 72.8348 71.0775L75.618 73.8606C74.242 75.0723 73.0382 76.475 72.0481 78.0272C72.1609 75.6329 72.4042 73.4417 72.7798 71.3745ZM74.6685 64.4258L78.2221 67.9794C78.4603 67.1967 78.7232 66.425 79.0114 65.6559C79.1463 66.8906 79.3198 68.0997 79.5293 69.2867L80.8153 70.5726C81.8795 70.1159 82.9926 69.7511 84.1445 69.4883C83.3463 65.4318 83.0077 61.1171 83.2472 56.3631C83.2999 55.3163 82.6228 54.3718 81.6146 54.0855C80.6064 53.7992 79.534 54.2469 79.0287 55.1652C77.2647 58.3711 75.7983 61.3326 74.6685 64.4258ZM63.986 53.7434L69.6893 59.4466C70.0674 56.8466 70.5707 53.9476 71.2083 50.6809C71.4157 49.6187 70.8374 48.5594 69.8318 48.1593C68.8262 47.7592 67.6782 48.1317 67.0992 49.046C66.2776 50.3432 65.4411 51.5839 64.613 52.8121L64.613 52.8122L64.6129 52.8122L64.6129 52.8123L64.6123 52.8132C64.4029 53.1238 64.194 53.4336 63.986 53.7434ZM86.0568 69.1516C86.8571 69.0515 87.6725 69 88.5 69C89.2334 69 89.9574 69.0405 90.6698 69.1194C90.9731 67.8439 91.3539 66.6457 91.8391 65.4978C92.071 66.3533 92.3433 67.1462 92.6768 67.8917C92.964 68.5335 93.2904 69.1278 93.6608 69.6902C96.7517 70.5363 99.5362 72.1239 101.811 74.2499H102.75C103.993 74.2499 105 73.2425 105 71.9999C105 70.7572 103.993 69.7499 102.75 69.7499H99.7984C98.1965 68.4081 97.3591 67.3382 96.7844 66.0537C96.0921 64.5065 95.7002 62.4827 95.2303 58.953C95.1116 58.0608 94.4725 57.3252 93.6057 57.0829C92.7389 56.8407 91.811 57.1383 91.2469 57.8396C88.4059 61.371 86.9022 65.047 86.0568 69.1516ZM105 88.5C105 97.6127 97.6127 105 88.5 105C79.3873 105 72 97.6127 72 88.5C72 79.3873 79.3873 72 88.5 72C97.6127 72 105 79.3873 105 88.5ZM95.1291 97.2505C94.5433 96.6647 94.5433 95.715 95.1291 95.1292C96.8873 93.3711 97.875 90.9865 97.875 88.5001C97.875 86.0137 96.8873 83.6291 95.1291 81.871C94.5433 81.2852 94.5433 80.3354 95.1291 79.7496C95.7149 79.1639 96.6647 79.1639 97.2504 79.7496C99.5712 82.0704 100.875 85.218 100.875 88.5001C100.875 91.7821 99.5712 94.9298 97.2504 97.2505C96.6647 97.8363 95.7149 97.8363 95.1291 97.2505ZM81.8709 79.7496C82.4567 80.3354 82.4567 81.2852 81.8709 81.871C80.1127 83.6291 79.125 86.0137 79.125 88.5001C79.125 90.9865 80.1127 93.3711 81.8709 95.1292C82.4567 95.715 82.4567 96.6647 81.8709 97.2505C81.2851 97.8363 80.3353 97.8363 79.7496 97.2505C77.4288 94.9298 76.125 91.7821 76.125 88.5001C76.125 85.218 77.4288 82.0704 79.7496 79.7496C80.3353 79.1639 81.2851 79.1639 81.8709 79.7496ZM85.0529 82.9316C85.6386 83.5174 85.6386 84.4672 85.0529 85.0529C84.1386 85.9672 83.625 87.2072 83.625 88.5001C83.625 89.793 84.1386 91.033 85.0529 91.9472C85.6386 92.533 85.6386 93.4828 85.0529 94.0686C84.4671 94.6543 83.5173 94.6543 82.9315 94.0686C81.4547 92.5917 80.625 90.5887 80.625 88.5001C80.625 86.4115 81.4547 84.4085 82.9315 82.9316C83.5173 82.3458 84.4671 82.3458 85.0529 82.9316ZM91.9471 91.9472C91.3614 92.533 91.3614 93.4828 91.9471 94.0686C92.5329 94.6543 93.4827 94.6543 94.0685 94.0686C95.5453 92.5917 96.375 90.5887 96.375 88.5001C96.375 86.4115 95.5453 84.4085 94.0685 82.9316C93.4827 82.3458 92.5329 82.3458 91.9471 82.9316C91.3614 83.5174 91.3614 84.4672 91.9471 85.0529C92.8614 85.9672 93.375 87.2072 93.375 88.5001C93.375 89.793 92.8614 91.033 91.9471 91.9472ZM88.5 91.8751C90.364 91.8751 91.875 90.3641 91.875 88.5001C91.875 86.6361 90.364 85.1251 88.5 85.1251C86.636 85.1251 85.125 86.6361 85.125 88.5001C85.125 90.3641 86.636 91.8751 88.5 91.8751Z" fill="white"/>
<path fill-rule="evenodd" clip-rule="evenodd" d="M52.591 49.409C51.7123 48.5303 50.2877 48.5303 49.409 49.409C48.5303 50.2877 48.5303 51.7123 49.409 52.591L73.212 76.394C74.1468 75.215 75.215 74.1468 76.394 73.212L52.591 49.409Z" fill="#E12A40"/>
</svg>
