<svg width="144" height="144" viewBox="0 0 144 144" fill="none" xmlns="http://www.w3.org/2000/svg">
<path fill-rule="evenodd" clip-rule="evenodd" d="M48 48C44.6863 48 42 50.6863 42 54V81C42 84.3137 44.6863 87 48 87H69.75V94.5H59.25C58.0074 94.5 57 95.5074 57 96.75C57 97.9926 58.0074 99 59.25 99H84.75C85.9926 99 87 97.9926 87 96.75C87 95.5074 85.9926 94.5 84.75 94.5H74.25V87H96C99.3137 87 102 84.3137 102 81V54C102 50.6863 99.3137 48 96 48H48ZM96 52.5H48C47.1716 52.5 46.5 53.1716 46.5 54V81C46.5 81.8284 47.1716 82.5 48 82.5H96C96.8284 82.5 97.5 81.8284 97.5 81V54C97.5 53.1716 96.8284 52.5 96 52.5Z" fill="white"/>
</svg>
