<svg width="144" height="144" viewBox="0 0 144 144" fill="none" xmlns="http://www.w3.org/2000/svg">
<path fill-rule="evenodd" clip-rule="evenodd" d="M48 48H51C51 48.7678 51.2929 49.5355 51.8787 50.1213L54.2574 52.5H48C47.1716 52.5 46.5 53.1716 46.5 54V81C46.5 81.8284 47.1716 82.5 48 82.5H69.9405C69.4771 83.9345 69.1754 85.4416 69.0568 87H48C44.6863 87 42 84.3137 42 81V54C42 50.6863 44.6863 48 48 48ZM96 52.5H62.7426L58.2426 48H96C99.3137 48 102 50.6863 102 54V74.4287C100.667 73.1497 99.1531 72.0582 97.5 71.1966V54C97.5 53.1716 96.8284 52.5 96 52.5ZM69.75 93.8743V94.5H59.25C58.0074 94.5 57 95.5074 57 96.75C57 97.9926 58.0074 99 59.25 99H72.0655C71.0607 97.4306 70.2745 95.7077 69.75 93.8743ZM105 88.5C105 97.6127 97.6127 105 88.5 105C79.3873 105 72 97.6127 72 88.5C72 79.3873 79.3873 72 88.5 72C97.6127 72 105 79.3873 105 88.5ZM95.1291 97.2505C94.5433 96.6647 94.5433 95.715 95.1291 95.1292C96.8873 93.3711 97.875 90.9865 97.875 88.5001C97.875 86.0137 96.8873 83.6291 95.1291 81.871C94.5433 81.2852 94.5433 80.3354 95.1291 79.7496C95.7149 79.1639 96.6647 79.1639 97.2504 79.7496C99.5712 82.0704 100.875 85.218 100.875 88.5001C100.875 91.7821 99.5712 94.9298 97.2504 97.2505C96.6647 97.8363 95.7149 97.8363 95.1291 97.2505ZM81.8709 79.7496C82.4567 80.3354 82.4567 81.2852 81.8709 81.871C80.1127 83.6291 79.125 86.0137 79.125 88.5001C79.125 90.9865 80.1127 93.3711 81.8709 95.1292C82.4567 95.715 82.4567 96.6647 81.8709 97.2505C81.2851 97.8363 80.3353 97.8363 79.7496 97.2505C77.4288 94.9298 76.125 91.7821 76.125 88.5001C76.125 85.218 77.4288 82.0704 79.7496 79.7496C80.3353 79.1639 81.2851 79.1639 81.8709 79.7496ZM85.0529 82.9316C85.6386 83.5174 85.6386 84.4672 85.0529 85.0529C84.1386 85.9672 83.625 87.2072 83.625 88.5001C83.625 89.793 84.1386 91.033 85.0529 91.9472C85.6386 92.533 85.6386 93.4828 85.0529 94.0686C84.4671 94.6543 83.5173 94.6543 82.9315 94.0686C81.4547 92.5917 80.625 90.5887 80.625 88.5001C80.625 86.4115 81.4547 84.4085 82.9315 82.9316C83.5173 82.3458 84.4671 82.3458 85.0529 82.9316ZM91.9471 91.9472C91.3614 92.533 91.3614 93.4828 91.9471 94.0686C92.5329 94.6543 93.4827 94.6543 94.0685 94.0686C95.5453 92.5917 96.375 90.5887 96.375 88.5001C96.375 86.4115 95.5453 84.4085 94.0685 82.9316C93.4827 82.3458 92.5329 82.3458 91.9471 82.9316C91.3614 83.5174 91.3614 84.4672 91.9471 85.0529C92.8614 85.9672 93.375 87.2072 93.375 88.5001C93.375 89.793 92.8614 91.033 91.9471 91.9472ZM88.5 91.8751C90.364 91.8751 91.875 90.3641 91.875 88.5001C91.875 86.6361 90.364 85.1251 88.5 85.1251C86.636 85.1251 85.125 86.6361 85.125 88.5001C85.125 90.3641 86.636 91.8751 88.5 91.8751Z" fill="white"/>
<path fill-rule="evenodd" clip-rule="evenodd" d="M49.591 46.409C48.7123 45.5303 47.2877 45.5303 46.409 46.409C45.5303 47.2877 45.5303 48.7123 46.409 49.591L73.212 76.394C74.1468 75.215 75.215 74.1468 76.394 73.212L49.591 46.409Z" fill="#E12A40"/>
</svg>
