<svg width="144" height="144" viewBox="0 0 144 144" fill="none" xmlns="http://www.w3.org/2000/svg">
<path fill-rule="evenodd" clip-rule="evenodd" d="M48 48C44.6863 48 42 50.6863 42 54V81C42 84.3137 44.6863 87 48 87H69.0568C69.1754 85.4416 69.4771 83.9345 69.9405 82.5H48C47.1716 82.5 46.5 81.8284 46.5 81V54C46.5 53.1716 47.1716 52.5 48 52.5H96C96.8284 52.5 97.5 53.1716 97.5 54V71.1966C99.1531 72.0582 100.667 73.1497 102 74.4287V54C102 50.6863 99.3137 48 96 48H48ZM69.75 94.5V93.8743C70.2745 95.7077 71.0607 97.4306 72.0655 99H59.25C58.0074 99 57 97.9926 57 96.75C57 95.5074 58.0074 94.5 59.25 94.5H69.75ZM105 88.5C105 97.6127 97.6127 105 88.5 105C79.3873 105 72 97.6127 72 88.5C72 79.3873 79.3873 72 88.5 72C97.6127 72 105 79.3873 105 88.5ZM81.75 82.5C81.75 81.2574 82.7574 80.25 84 80.25H94.5C95.7426 80.25 96.75 81.2574 96.75 82.5V93C96.75 94.2426 95.7426 95.25 94.5 95.25C93.2574 95.25 92.25 94.2426 92.25 93V87.932L84.091 96.091C83.2123 96.9697 81.7877 96.9697 80.909 96.091C80.0303 95.2123 80.0303 93.7877 80.909 92.909L89.068 84.75H84C82.7574 84.75 81.75 83.7426 81.75 82.5Z" fill="white"/>
</svg>
