<svg width="144" height="144" viewBox="0 0 144 144" fill="none" xmlns="http://www.w3.org/2000/svg">
<path fill-rule="evenodd" clip-rule="evenodd" d="M60.4607 94.467C63.659 96.1214 67.2552 97.1168 71.0785 97.2696C71.8961 98.8907 72.9334 100.382 74.1512 101.705C73.4778 101.75 72.7983 101.773 72.1134 101.773C67.1705 101.773 62.508 100.573 58.401 98.4488L45.7783 101.891C43.5473 102.5 41.5001 100.453 42.1086 98.2217L45.5512 85.599C43.4267 81.492 42.2268 76.8294 42.2268 71.8866C42.2268 62.8817 46.2093 54.807 52.5091 49.3277L55.6881 52.5067C50.1956 57.1665 46.7098 64.1195 46.7098 71.8866C46.7098 76.096 47.7301 80.054 49.533 83.5392L50.3362 85.092L47.1217 96.8783L58.908 93.6638L60.4607 94.467ZM102 71.8866C102 72.7108 101.967 73.5272 101.901 74.3345C100.595 73.0981 99.1172 72.0405 97.5079 71.2008C97.1445 57.4878 85.9141 46.483 72.1134 46.483C67.4903 46.483 63.1556 47.7179 59.4213 49.8759L56.1569 46.6115C60.7738 43.6907 66.2461 42 72.1134 42C88.6193 42 102 55.3807 102 71.8866ZM88.4998 105C97.6125 105 105 97.6127 105 88.5C105 79.3873 97.6125 72 88.4998 72C79.3871 72 71.9998 79.3873 71.9998 88.5C71.9998 97.6127 79.3871 105 88.4998 105ZM80.6341 88.5002C80.6341 84.1561 84.1557 80.6345 88.4998 80.6345C92.8438 80.6345 96.3654 84.1561 96.3654 88.5002V93.8158C96.3654 94.6442 97.037 95.3158 97.8654 95.3158C98.6938 95.3158 99.3654 94.6442 99.3654 93.8158V88.5002C99.3654 82.4992 94.5007 77.6345 88.4998 77.6345C82.4988 77.6345 77.6341 82.4992 77.6341 88.5002V93.8158C77.6341 94.6442 78.3057 95.3158 79.1341 95.3158C79.9626 95.3158 80.6341 94.6442 80.6341 93.8158V88.5002ZM81.4123 92.0438C81.4123 90.6459 82.5456 89.5126 83.9436 89.5126C85.3416 89.5126 86.4748 90.6459 86.4748 92.0438V96.0938C86.4748 97.4918 85.3416 98.6251 83.9436 98.6251C82.5456 98.6251 81.4123 97.4918 81.4123 96.0938V92.0438ZM93.056 89.5126C91.658 89.5126 90.5248 90.6459 90.5248 92.0438V96.0938C90.5248 97.4918 91.658 98.6251 93.056 98.6251C94.454 98.6251 95.5873 97.4918 95.5873 96.0938V92.0438C95.5873 90.6459 94.454 89.5126 93.056 89.5126Z" fill="white"/>
<path fill-rule="evenodd" clip-rule="evenodd" d="M73.212 76.394C74.1468 75.215 75.215 74.1468 76.394 73.212L45.841 42.659C44.9623 41.7803 43.5377 41.7803 42.659 42.659C41.7803 43.5377 41.7803 44.9623 42.659 45.841L73.212 76.394Z" fill="#C02335"/>
</svg>
