<svg width="144" height="144" viewBox="0 0 144 144" fill="none" xmlns="http://www.w3.org/2000/svg">
<path fill-rule="evenodd" clip-rule="evenodd" d="M59.7253 96.0549C63.4079 97.9379 67.5799 99 72 99L72.0654 98.9999C71.1581 97.5827 70.429 96.0403 69.9099 94.4045C66.9972 94.1369 64.2519 93.3153 61.7739 92.0483C60.8705 91.5864 59.8376 91.4434 58.8427 91.6423L50.7364 93.2636L52.3577 85.1573C52.5566 84.1624 52.4136 83.1295 51.9517 82.2261C50.3855 79.163 49.5 75.6914 49.5 72C49.5 65.3397 52.3939 59.3553 56.9929 55.2355L53.8069 52.0495C48.3954 56.9872 45 64.0971 45 72C45 76.4201 46.0621 80.5921 47.9451 84.2747L45.8825 94.5874C45.4627 96.6866 47.3135 98.5373 49.4126 98.1175L59.7253 96.0549ZM75.618 73.8606L69.8198 68.0625C68.4364 68.8301 67.5 70.3057 67.5 72C67.5 74.4853 69.5147 76.5 72 76.5C72.4421 76.5 72.8693 76.4362 73.273 76.3174C73.9823 75.432 74.7672 74.6098 75.618 73.8606ZM72 49.5C68.4295 49.5 65.0533 50.3317 62.0545 51.8118L58.7257 48.483C62.6456 46.2656 67.175 45 72 45C86.9117 45 99 57.0883 99 72L98.9999 72.0654C97.5826 71.158 96.0401 70.4289 94.4042 69.9098C93.3498 58.4634 83.7216 49.5 72 49.5ZM88.857 69.0032C88.033 68.0807 86.8343 67.5 85.5 67.5C83.5893 67.5 81.9568 68.6908 81.304 70.3707C83.5305 69.4862 85.9585 69 88.5 69C88.6193 69 88.7383 69.0011 88.857 69.0032ZM58.5 67.5C56.0147 67.5 54 69.5147 54 72C54 74.4853 56.0147 76.5 58.5 76.5C60.9853 76.5 63 74.4853 63 72C63 69.5147 60.9853 67.5 58.5 67.5ZM105 88.5C105 97.6127 97.6127 105 88.5 105C79.3873 105 72 97.6127 72 88.5C72 79.3873 79.3873 72 88.5 72C97.6127 72 105 79.3873 105 88.5ZM95.1291 97.2505C94.5433 96.6647 94.5433 95.715 95.1291 95.1292C96.8873 93.3711 97.875 90.9865 97.875 88.5001C97.875 86.0137 96.8873 83.6291 95.1291 81.871C94.5433 81.2852 94.5433 80.3354 95.1291 79.7496C95.7149 79.1639 96.6647 79.1639 97.2504 79.7496C99.5712 82.0704 100.875 85.218 100.875 88.5001C100.875 91.7821 99.5712 94.9298 97.2504 97.2505C96.6647 97.8363 95.7149 97.8363 95.1291 97.2505ZM81.8709 79.7496C82.4567 80.3354 82.4567 81.2852 81.8709 81.871C80.1127 83.6291 79.125 86.0137 79.125 88.5001C79.125 90.9865 80.1127 93.3711 81.8709 95.1292C82.4567 95.715 82.4567 96.6647 81.8709 97.2505C81.2851 97.8363 80.3353 97.8363 79.7496 97.2505C77.4288 94.9298 76.125 91.7821 76.125 88.5001C76.125 85.218 77.4288 82.0704 79.7496 79.7496C80.3353 79.1639 81.2851 79.1639 81.8709 79.7496ZM85.0529 82.9316C85.6386 83.5174 85.6386 84.4672 85.0529 85.0529C84.1386 85.9672 83.625 87.2072 83.625 88.5001C83.625 89.793 84.1386 91.033 85.0529 91.9472C85.6386 92.533 85.6386 93.4828 85.0529 94.0686C84.4671 94.6543 83.5173 94.6543 82.9315 94.0686C81.4547 92.5917 80.625 90.5887 80.625 88.5001C80.625 86.4115 81.4547 84.4085 82.9315 82.9316C83.5173 82.3458 84.4671 82.3458 85.0529 82.9316ZM91.9471 91.9472C91.3614 92.533 91.3614 93.4828 91.9471 94.0686C92.5329 94.6543 93.4827 94.6543 94.0685 94.0686C95.5453 92.5917 96.375 90.5887 96.375 88.5001C96.375 86.4115 95.5453 84.4085 94.0685 82.9316C93.4827 82.3458 92.5329 82.3458 91.9471 82.9316C91.3614 83.5174 91.3614 84.4672 91.9471 85.0529C92.8614 85.9672 93.375 87.2072 93.375 88.5001C93.375 89.793 92.8614 91.033 91.9471 91.9472ZM88.5 91.8751C90.364 91.8751 91.875 90.3641 91.875 88.5001C91.875 86.6361 90.364 85.1251 88.5 85.1251C86.636 85.1251 85.125 86.6361 85.125 88.5001C85.125 90.3641 86.636 91.8751 88.5 91.8751Z" fill="white"/>
<path fill-rule="evenodd" clip-rule="evenodd" d="M49.409 49.409C50.2877 48.5303 51.7123 48.5303 52.591 49.409L76.394 73.212C75.215 74.1468 74.1468 75.215 73.212 76.394L49.409 52.591C48.5303 51.7123 48.5303 50.2877 49.409 49.409Z" fill="#E12A40"/>
</svg>
