<svg width="144" height="144" viewBox="0 0 144 144" fill="none" xmlns="http://www.w3.org/2000/svg">
<path d="M54 72C54 69.5147 56.0147 67.5 58.5 67.5C60.9853 67.5 63 69.5147 63 72C63 74.4853 60.9853 76.5 58.5 76.5C56.0147 76.5 54 74.4853 54 72Z" fill="white"/>
<path d="M72 67.5C69.5147 67.5 67.5 69.5147 67.5 72C67.5 74.4853 69.5147 76.5 72 76.5C74.4853 76.5 76.5 74.4853 76.5 72C76.5 69.5147 74.4853 67.5 72 67.5Z" fill="white"/>
<path d="M81 72C81 69.5147 83.0147 67.5 85.5 67.5C87.9853 67.5 90 69.5147 90 72C90 74.4853 87.9853 76.5 85.5 76.5C83.0147 76.5 81 74.4853 81 72Z" fill="white"/>
<path fill-rule="evenodd" clip-rule="evenodd" d="M72 99C67.5799 99 63.4079 97.9379 59.7253 96.0549L49.4126 98.1175C47.3135 98.5373 45.4627 96.6866 45.8825 94.5874L47.9451 84.2747C46.0621 80.5921 45 76.4201 45 72C45 57.0883 57.0883 45 72 45C86.9117 45 99 57.0883 99 72C99 86.9117 86.9117 99 72 99ZM51.9517 82.2261C52.4136 83.1295 52.5566 84.1624 52.3577 85.1573L50.7364 93.2636L58.8427 91.6423C59.8376 91.4434 60.8705 91.5864 61.7739 92.0483C64.837 93.6145 68.3086 94.5 72 94.5C84.4264 94.5 94.5 84.4264 94.5 72C94.5 59.5736 84.4264 49.5 72 49.5C59.5736 49.5 49.5 59.5736 49.5 72C49.5 75.6914 50.3855 79.163 51.9517 82.2261Z" fill="white"/>
</svg>
