<svg width="144" height="144" viewBox="0 0 144 144" fill="none" xmlns="http://www.w3.org/2000/svg">
    <path fill-rule="evenodd" clip-rule="evenodd"
          d="M72 99C67.5799 99 63.4079 97.9379 59.7253 96.0549L49.4126 98.1175C47.3135 98.5373 45.4627 96.6866 45.8825 94.5874L47.9451 84.2747C46.0621 80.5921 45 76.4201 45 72C45 57.0883 57.0883 45 72 45C86.9117 45 99 57.0883 99 72L98.9999 72.0654C97.5826 71.158 96.0401 70.4289 94.4042 69.9098C93.3498 58.4634 83.7216 49.5 72 49.5C59.5736 49.5 49.5 59.5736 49.5 72C49.5 75.6914 50.3855 79.163 51.9517 82.2261C52.4136 83.1295 52.5566 84.1624 52.3577 85.1573L50.7364 93.2636L58.8427 91.6423C59.8376 91.4434 60.8705 91.5864 61.7739 92.0483C64.2519 93.3153 66.9972 94.1369 69.9099 94.4045C70.429 96.0403 71.1581 97.5827 72.0654 98.9999L72 99ZM85.5 67.5C86.8343 67.5 88.033 68.0807 88.857 69.0032C88.7383 69.0011 88.6193 69 88.5 69C85.9585 69 83.5305 69.4862 81.304 70.3707C81.9568 68.6908 83.5893 67.5 85.5 67.5ZM76.5 72C76.5 72.4421 76.4362 72.8693 76.3174 73.273C75.1942 74.1728 74.1728 75.1942 73.273 76.3174C72.8693 76.4362 72.4421 76.5 72 76.5C69.5147 76.5 67.5 74.4853 67.5 72C67.5 69.5147 69.5147 67.5 72 67.5C74.4853 67.5 76.5 69.5147 76.5 72ZM54 72C54 69.5147 56.0147 67.5 58.5 67.5C60.9853 67.5 63 69.5147 63 72C63 74.4853 60.9853 76.5 58.5 76.5C56.0147 76.5 54 74.4853 54 72ZM105 88.5C105 97.6127 97.6127 105 88.5 105C79.3873 105 72 97.6127 72 88.5C72 79.3873 79.3873 72 88.5 72C97.6127 72 105 79.3873 105 88.5ZM88.5001 80.6345C84.1561 80.6345 80.6345 84.1561 80.6345 88.5002V93.8158C80.6345 94.6442 79.9629 95.3158 79.1345 95.3158C78.3061 95.3158 77.6345 94.6442 77.6345 93.8158V88.5002C77.6345 82.4992 82.4992 77.6345 88.5001 77.6345C94.5011 77.6345 99.3658 82.4992 99.3658 88.5002V93.8158C99.3658 94.6442 98.6942 95.3158 97.8658 95.3158C97.0373 95.3158 96.3658 94.6442 96.3658 93.8158V88.5002C96.3658 84.1561 92.8442 80.6345 88.5001 80.6345ZM83.944 89.5129C82.546 89.5129 81.4127 90.6462 81.4127 92.0442V96.0942C81.4127 97.4922 82.546 98.6254 83.944 98.6254C85.3419 98.6254 86.4752 97.4922 86.4752 96.0942V92.0442C86.4752 90.6462 85.3419 89.5129 83.944 89.5129ZM90.5251 92.0442C90.5251 90.6462 91.6584 89.5129 93.0564 89.5129C94.4544 89.5129 95.5876 90.6462 95.5876 92.0442V96.0942C95.5876 97.4922 94.4544 98.6254 93.0564 98.6254C91.6584 98.6254 90.5251 97.4922 90.5251 96.0942V92.0442Z"
          fill="#CFD924"/>
</svg>
