<svg width="144" height="144" viewBox="0 0 144 144" fill="none" xmlns="http://www.w3.org/2000/svg">
<path fill-rule="evenodd" clip-rule="evenodd" d="M72 99C67.5799 99 63.4079 97.9379 59.7253 96.0549L49.4126 98.1175C47.3135 98.5373 45.4627 96.6866 45.8825 94.5874L47.9451 84.2747C46.0621 80.5921 45 76.4201 45 72C45 57.0883 57.0883 45 72 45C86.9117 45 99 57.0883 99 72L98.9999 72.0654C97.5826 71.158 96.0401 70.4289 94.4042 69.9098C93.3498 58.4634 83.7216 49.5 72 49.5C59.5736 49.5 49.5 59.5736 49.5 72C49.5 75.6914 50.3855 79.163 51.9517 82.2261C52.4136 83.1295 52.5566 84.1624 52.3577 85.1573L50.7364 93.2636L58.8427 91.6423C59.8376 91.4434 60.8705 91.5864 61.7739 92.0483C64.2519 93.3153 66.9972 94.1369 69.9099 94.4045C70.429 96.0403 71.1581 97.5827 72.0654 98.9999L72 99ZM85.5 67.5C86.8343 67.5 88.033 68.0807 88.857 69.0032C88.7383 69.0011 88.6193 69 88.5 69C85.9585 69 83.5305 69.4862 81.304 70.3707C81.9568 68.6908 83.5893 67.5 85.5 67.5ZM76.5 72C76.5 72.4421 76.4362 72.8693 76.3174 73.273C75.1942 74.1728 74.1728 75.1942 73.273 76.3174C72.8693 76.4362 72.4421 76.5 72 76.5C69.5147 76.5 67.5 74.4853 67.5 72C67.5 69.5147 69.5147 67.5 72 67.5C74.4853 67.5 76.5 69.5147 76.5 72ZM54 72C54 69.5147 56.0147 67.5 58.5 67.5C60.9853 67.5 63 69.5147 63 72C63 74.4853 60.9853 76.5 58.5 76.5C56.0147 76.5 54 74.4853 54 72ZM105 88.5C105 97.6127 97.6127 105 88.5 105C79.3873 105 72 97.6127 72 88.5C72 79.3873 79.3873 72 88.5 72C97.6127 72 105 79.3873 105 88.5ZM81.75 82.5C81.75 81.2574 82.7574 80.25 84 80.25H94.5C95.7426 80.25 96.75 81.2574 96.75 82.5V93C96.75 94.2426 95.7426 95.25 94.5 95.25C93.2574 95.25 92.25 94.2426 92.25 93V87.932L84.091 96.091C83.2123 96.9697 81.7877 96.9697 80.909 96.091C80.0303 95.2123 80.0303 93.7877 80.909 92.909L89.068 84.75H84C82.7574 84.75 81.75 83.7426 81.75 82.5Z" fill="#CFD924"/>
</svg>
