<svg width="144" height="144" viewBox="0 0 144 144" fill="none" xmlns="http://www.w3.org/2000/svg">
<path d="M71.9996 60C73.2423 60 74.2496 61.0074 74.2496 62.25V75.75C74.2496 76.9926 73.2423 78 71.9996 78C70.757 78 69.7496 76.9926 69.7496 75.75V62.25C69.7496 61.0074 70.757 60 71.9996 60Z" fill="#FF7073"/>
<path d="M71.9996 87C73.6565 87 74.9996 85.6569 74.9996 84C74.9996 82.3431 73.6565 81 71.9996 81C70.3428 81 68.9996 82.3431 68.9996 84C68.9996 85.6569 70.3428 87 71.9996 87Z" fill="#FF7073"/>
<path fill-rule="evenodd" clip-rule="evenodd" d="M77.1958 47.8418C74.8864 43.8418 69.1129 43.8418 66.8035 47.8418L44.1958 86.9995C41.8864 90.9995 44.7731 95.9995 49.3919 95.9995H94.6073C99.2261 95.9995 102.113 90.9995 99.8035 86.9995L77.1958 47.8418ZM95.9064 89.2495L73.2987 50.0918C72.7213 49.0918 71.278 49.0918 70.7006 50.0918L48.0929 89.2495C47.5156 90.2495 48.2372 91.4995 49.3919 91.4995H94.6073C95.762 91.4995 96.4837 90.2495 95.9064 89.2495Z" fill="#FF7073"/>
</svg>
