<svg width="144" height="144" viewBox="0 0 144 144" fill="none" xmlns="http://www.w3.org/2000/svg">
<path fill-rule="evenodd" clip-rule="evenodd" d="M60 48C60 44.6863 62.6863 42 66 42H78C81.3137 42 84 44.6863 84 48V69.5218C82.8995 69.7818 81.835 70.135 80.8153 70.5726L79.2426 69H79.5V48C79.5 47.1716 78.8284 46.5 78 46.5H66C65.1716 46.5 64.5 47.1716 64.5 48V54.2574L60 49.7574V48ZM88.5 69C90.0488 69 91.5554 69.1806 93 69.5218V68.25C93 67.0074 91.9926 66 90.75 66C89.5074 66 88.5 67.0074 88.5 68.25V69ZM66 85.5H69.2293C69.0783 86.4779 69 87.4798 69 88.5C69 89.0047 69.0192 89.5049 69.0568 90H66C62.6863 90 60 87.3137 60 84V58.2426L64.5 62.7426V69L70.7574 69L75.2574 73.5L64.5 73.5V84C64.5 84.8284 65.1716 85.5 66 85.5ZM74.4287 102C72.2627 99.7429 70.6344 96.9656 69.75 93.8743V97.5H59.25C58.0074 97.5 57 98.5074 57 99.75C57 100.993 58.0074 102 59.25 102L74.4287 102ZM53.25 66C54.4926 66 55.5 67.0074 55.5 68.25L55.5 75.75C55.5 76.9926 54.4926 78 53.25 78C52.0074 78 51 76.9926 51 75.75V68.25C51 67.0074 52.0074 66 53.25 66ZM105 88.5C105 97.6127 97.6127 105 88.5 105C79.3873 105 72 97.6127 72 88.5C72 79.3873 79.3873 72 88.5 72C97.6127 72 105 79.3873 105 88.5ZM88.5 80.6343C84.1559 80.6343 80.6343 84.1559 80.6343 88.5V93.8156C80.6343 94.644 79.9628 95.3156 79.1343 95.3156C78.3059 95.3156 77.6343 94.644 77.6343 93.8156V88.5C77.6343 82.4991 82.499 77.6343 88.5 77.6343C94.5009 77.6343 99.3656 82.4991 99.3656 88.5V93.8156C99.3656 94.644 98.694 95.3156 97.8656 95.3156C97.0372 95.3156 96.3656 94.644 96.3656 93.8156V88.5C96.3656 84.1559 92.844 80.6343 88.5 80.6343ZM83.9437 89.5124C82.5457 89.5124 81.4124 90.6457 81.4124 92.0436V96.0936C81.4124 97.4916 82.5457 98.6249 83.9437 98.6249C85.3417 98.6249 86.4749 97.4916 86.4749 96.0936V92.0436C86.4749 90.6457 85.3417 89.5124 83.9437 89.5124ZM90.525 92.0436C90.525 90.6457 91.6582 89.5124 93.0562 89.5124C94.4542 89.5124 95.5875 90.6457 95.5875 92.0436V96.0936C95.5875 97.4916 94.4542 98.6249 93.0562 98.6249C91.6582 98.6249 90.525 97.4916 90.525 96.0936V92.0436Z" fill="#1817B8"/>
<path fill-rule="evenodd" clip-rule="evenodd" d="M52.591 49.409C51.7123 48.5303 50.2877 48.5303 49.409 49.409C48.5303 50.2877 48.5303 51.7123 49.409 52.591L73.212 76.394C74.1468 75.215 75.215 74.1468 76.394 73.212L52.591 49.409Z" fill="#E12A40"/>
</svg>
