<svg width="144" height="144" viewBox="0 0 144 144" fill="none" xmlns="http://www.w3.org/2000/svg">
    <path fill-rule="evenodd" clip-rule="evenodd"
          d="M66 42C62.6863 42 60 44.6863 60 48V84C60 87.3137 62.6863 90 66 90H69.0568C69.0192 89.5049 69 89.0047 69 88.5C69 87.4798 69.0783 86.4779 69.2293 85.5H66C65.1716 85.5 64.5 84.8284 64.5 84V73.5L76.0393 73.5C78.3137 71.6085 81.0252 70.2245 84 69.5218V48C84 44.6863 81.3137 42 78 42H66ZM69.75 97.5V93.8743C70.6344 96.9656 72.2627 99.7429 74.4287 102L59.25 102C58.0074 102 57 100.993 57 99.75C57 98.5074 58.0074 97.5 59.25 97.5H69.75ZM93 68.25V69.5218C91.5554 69.1806 90.0488 69 88.5 69V68.25C88.5 67.0074 89.5074 66 90.75 66C91.9926 66 93 67.0074 93 68.25ZM78 46.5H66C65.1716 46.5 64.5 47.1716 64.5 48V69L79.5 69V48C79.5 47.1716 78.8284 46.5 78 46.5ZM55.5 68.25C55.5 67.0074 54.4926 66 53.25 66C52.0074 66 51 67.0074 51 68.25V75.75C51 76.9926 52.0074 78 53.25 78C54.4926 78 55.5 76.9926 55.5 75.75L55.5 68.25ZM105 88.5C105 97.6127 97.6127 105 88.5 105C79.3873 105 72 97.6127 72 88.5C72 79.3873 79.3873 72 88.5 72C97.6127 72 105 79.3873 105 88.5ZM88.5 80.6345C84.1559 80.6345 80.6343 84.1561 80.6343 88.5002V93.8158C80.6343 94.6442 79.9628 95.3158 79.1343 95.3158C78.3059 95.3158 77.6343 94.6442 77.6343 93.8158V88.5002C77.6343 82.4992 82.499 77.6345 88.5 77.6345C94.5009 77.6345 99.3656 82.4992 99.3656 88.5002V93.8158C99.3656 94.6442 98.694 95.3158 97.8656 95.3158C97.0372 95.3158 96.3656 94.6442 96.3656 93.8158V88.5002C96.3656 84.1561 92.844 80.6345 88.5 80.6345ZM83.9437 89.5126C82.5457 89.5126 81.4124 90.6459 81.4124 92.0438V96.0938C81.4124 97.4918 82.5457 98.6251 83.9437 98.6251C85.3417 98.6251 86.4749 97.4918 86.4749 96.0938V92.0438C86.4749 90.6459 85.3417 89.5126 83.9437 89.5126ZM90.525 92.0438C90.525 90.6459 91.6582 89.5126 93.0562 89.5126C94.4542 89.5126 95.5875 90.6459 95.5875 92.0438V96.0938C95.5875 97.4918 94.4542 98.6251 93.0562 98.6251C91.6582 98.6251 90.525 97.4918 90.525 96.0938V92.0438Z"
          fill="#1817B8"/>
</svg>
