<svg width="144" height="144" viewBox="0 0 144 144" fill="none" xmlns="http://www.w3.org/2000/svg">
    <path fill-rule="evenodd" clip-rule="evenodd"
          d="M66 42C62.6863 42 60 44.6863 60 48V84C60 87.3137 62.6863 90 66 90H69.0568C69.0192 89.5049 69 89.0047 69 88.5C69 87.4798 69.0783 86.4779 69.2293 85.5H66C65.1716 85.5 64.5 84.8284 64.5 84V73.5L76.0393 73.5C78.3137 71.6085 81.0252 70.2245 84 69.5218V48C84 44.6863 81.3137 42 78 42H66ZM69.75 97.5V93.8743C70.6344 96.9656 72.2627 99.7429 74.4287 102L59.25 102C58.0074 102 57 100.993 57 99.75C57 98.5074 58.0074 97.5 59.25 97.5H69.75ZM93 68.25V69.5218C91.5554 69.1806 90.0488 69 88.5 69V68.25C88.5 67.0074 89.5074 66 90.75 66C91.9926 66 93 67.0074 93 68.25ZM78 46.5H66C65.1716 46.5 64.5 47.1716 64.5 48V69L79.5 69V48C79.5 47.1716 78.8284 46.5 78 46.5ZM55.5 68.25C55.5 67.0074 54.4926 66 53.25 66C52.0074 66 51 67.0074 51 68.25V75.75C51 76.9926 52.0074 78 53.25 78C54.4926 78 55.5 76.9926 55.5 75.75L55.5 68.25ZM105 88.5C105 97.6127 97.6127 105 88.5 105C79.3873 105 72 97.6127 72 88.5C72 79.3873 79.3873 72 88.5 72C97.6127 72 105 79.3873 105 88.5ZM95.1291 97.2505C94.5433 96.6647 94.5433 95.715 95.1291 95.1292C96.8873 93.3711 97.875 90.9865 97.875 88.5001C97.875 86.0137 96.8873 83.6291 95.1291 81.871C94.5433 81.2852 94.5433 80.3354 95.1291 79.7496C95.7149 79.1639 96.6647 79.1639 97.2504 79.7496C99.5712 82.0704 100.875 85.218 100.875 88.5001C100.875 91.7821 99.5712 94.9298 97.2504 97.2505C96.6647 97.8363 95.7149 97.8363 95.1291 97.2505ZM81.8709 79.7496C82.4567 80.3354 82.4567 81.2852 81.8709 81.871C80.1127 83.6291 79.125 86.0137 79.125 88.5001C79.125 90.9865 80.1127 93.3711 81.8709 95.1292C82.4567 95.715 82.4567 96.6647 81.8709 97.2505C81.2851 97.8363 80.3353 97.8363 79.7496 97.2505C77.4288 94.9298 76.125 91.7821 76.125 88.5001C76.125 85.218 77.4288 82.0704 79.7496 79.7496C80.3353 79.1639 81.2851 79.1639 81.8709 79.7496ZM85.0529 82.9316C85.6386 83.5174 85.6386 84.4672 85.0529 85.0529C84.1386 85.9672 83.625 87.2072 83.625 88.5001C83.625 89.793 84.1386 91.033 85.0529 91.9472C85.6386 92.533 85.6386 93.4828 85.0529 94.0686C84.4671 94.6543 83.5173 94.6543 82.9315 94.0686C81.4547 92.5917 80.625 90.5887 80.625 88.5001C80.625 86.4115 81.4547 84.4085 82.9315 82.9316C83.5173 82.3458 84.4671 82.3458 85.0529 82.9316ZM91.9471 91.9472C91.3614 92.533 91.3614 93.4828 91.9471 94.0686C92.5329 94.6543 93.4827 94.6543 94.0685 94.0686C95.5453 92.5917 96.375 90.5887 96.375 88.5001C96.375 86.4115 95.5453 84.4085 94.0685 82.9316C93.4827 82.3458 92.5329 82.3458 91.9471 82.9316C91.3614 83.5174 91.3614 84.4672 91.9471 85.0529C92.8614 85.9672 93.375 87.2072 93.375 88.5001C93.375 89.793 92.8614 91.033 91.9471 91.9472ZM88.5 91.8751C90.364 91.8751 91.875 90.3641 91.875 88.5001C91.875 86.6361 90.364 85.1251 88.5 85.1251C86.636 85.1251 85.125 86.6361 85.125 88.5001C85.125 90.3641 86.636 91.8751 88.5 91.8751Z"
          fill="#1817B8"/>
</svg>
