<svg width="144" height="144" viewBox="0 0 144 144" fill="none" xmlns="http://www.w3.org/2000/svg">
<path fill-rule="evenodd" clip-rule="evenodd" d="M66 42C62.6863 42 60 44.6863 60 48V84C60 87.3137 62.6863 90 66 90H69.0568C69.0192 89.5049 69 89.0047 69 88.5C69 87.4798 69.0783 86.4779 69.2293 85.5H66C65.1716 85.5 64.5 84.8284 64.5 84V73.5L76.0393 73.5C78.3137 71.6085 81.0252 70.2245 84 69.5218V48C84 44.6863 81.3137 42 78 42H66ZM69.75 97.5V93.8743C70.6344 96.9656 72.2627 99.7429 74.4287 102L59.25 102C58.0074 102 57 100.993 57 99.75C57 98.5074 58.0074 97.5 59.25 97.5H69.75ZM93 68.25V69.5218C91.5554 69.1806 90.0488 69 88.5 69V68.25C88.5 67.0074 89.5074 66 90.75 66C91.9926 66 93 67.0074 93 68.25ZM78 46.5H66C65.1716 46.5 64.5 47.1716 64.5 48V69L79.5 69V48C79.5 47.1716 78.8284 46.5 78 46.5ZM55.5 68.25C55.5 67.0074 54.4926 66 53.25 66C52.0074 66 51 67.0074 51 68.25V75.75C51 76.9926 52.0074 78 53.25 78C54.4926 78 55.5 76.9926 55.5 75.75L55.5 68.25ZM105 88.5C105 97.6127 97.6127 105 88.5 105C79.3873 105 72 97.6127 72 88.5C72 79.3873 79.3873 72 88.5 72C97.6127 72 105 79.3873 105 88.5ZM81.75 82.5C81.75 81.2574 82.7574 80.25 84 80.25H94.5C95.7426 80.25 96.75 81.2574 96.75 82.5V93C96.75 94.2426 95.7426 95.25 94.5 95.25C93.2574 95.25 92.25 94.2426 92.25 93V87.932L84.091 96.091C83.2123 96.9697 81.7877 96.9697 80.909 96.091C80.0303 95.2123 80.0303 93.7877 80.909 92.909L89.068 84.75H84C82.7574 84.75 81.75 83.7426 81.75 82.5Z" fill="#1817B8"/>
</svg>
